{"glyphs":{"0":{"ha":806,"x_min":0,"x_max":0,"o":"m 250 972 l 68 790 l 493 790 l 493 182 l 311 182 l 311 742 l 68 742 l 68 182 l 250 0 l 554 0 l 736 182 l 736 790 l 554 972 z "},"1":{"ha":467,"x_min":0,"x_max":0,"o":"m 26 972 l 149 790 l 392 790 l 392 972 z m 149 742 l 149 0 l 392 0 l 392 742 z "},"2":{"ha":776,"x_min":0,"x_max":0,"o":""},"3":{"ha":1685,"x_min":0,"x_max":0,"o":"m 522 925 b 501 919 514 925 507 924 b 478 849 486 911 478 888 l 478 842 b 482 801 478 828 479 814 b 521 765 488 778 501 765 b 539 769 528 765 535 767 b 565 840 557 778 565 801 l 565 850 b 560 896 565 868 564 883 b 522 925 554 915 542 925 z m 1304 925 b 1286 921 1297 925 1290 924 b 1261 846 1269 913 1261 888 b 1265 799 1261 826 1263 811 b 1304 765 1272 776 1285 765 b 1324 769 1313 765 1318 767 b 1349 844 1340 778 1349 803 b 1343 893 1349 865 1347 882 b 1304 925 1338 914 1325 925 z m 101 922 b 101 922 101 922 101 922 l 101 768 b 101 768 101 768 101 768 l 115 768 b 115 768 115 768 115 768 l 115 838 l 143 838 b 171 842 156 838 165 839 b 189 879 183 847 189 860 b 186 901 189 888 188 896 b 147 922 181 915 168 922 z m 206 922 b 206 922 206 922 206 922 l 206 768 b 206 768 206 768 206 768 l 276 768 b 279 776 276 768 278 771 l 221 776 l 221 844 l 264 844 b 264 846 264 844 264 846 l 264 853 b 264 854 264 854 264 854 l 221 854 l 221 914 b 221 914 221 914 221 914 l 275 914 b 272 922 274 919 272 922 z m 299 922 b 299 922 299 922 299 922 l 299 768 b 299 768 299 768 299 768 l 313 768 b 313 768 313 768 313 768 l 313 840 l 346 840 b 369 788 351 840 360 824 b 375 768 372 775 374 768 l 389 768 l 390 768 b 361 843 379 808 369 833 b 365 844 363 843 364 844 b 383 882 378 849 383 861 b 381 901 383 889 383 896 b 343 922 376 915 363 922 z m 440 922 b 431 921 438 922 435 922 b 413 893 419 915 413 907 l 413 889 b 425 850 413 879 417 867 b 443 801 438 829 443 813 b 443 794 443 799 443 796 b 425 776 440 782 435 776 l 424 776 b 410 785 419 776 415 779 l 408 785 b 414 768 411 774 413 768 l 425 768 b 439 771 431 768 435 768 b 458 803 451 776 458 788 b 443 850 458 817 453 832 b 428 894 433 868 428 883 l 428 897 b 443 914 428 908 433 914 b 458 907 447 914 451 911 b 458 908 458 908 458 908 b 454 922 457 918 456 922 z m 586 922 b 585 922 585 922 585 922 l 585 768 b 586 768 585 768 585 768 l 593 768 b 593 768 593 768 593 768 l 593 899 b 607 868 601 881 607 871 b 654 768 636 804 653 769 l 665 768 b 665 768 665 768 665 768 l 665 922 b 665 922 665 922 665 922 l 657 922 b 657 922 657 922 657 922 l 657 797 l 656 797 b 599 922 619 878 601 919 z m 732 922 l 725 922 b 681 768 724 918 708 867 b 681 768 681 768 681 768 l 689 768 b 703 814 690 771 694 786 l 749 814 b 758 779 754 793 758 782 b 763 768 761 772 763 768 l 778 768 b 738 903 776 772 764 818 b 732 922 735 915 733 922 z m 797 922 b 797 922 797 922 797 922 l 797 768 b 797 768 797 768 797 768 l 868 768 b 869 776 868 768 869 771 l 811 776 l 811 922 b 811 922 811 922 811 922 z m 943 922 b 943 922 943 922 943 922 l 943 844 b 951 785 943 815 946 796 b 986 765 957 772 969 765 b 1006 769 994 765 1000 767 b 1019 788 1011 772 1015 779 b 1025 854 1022 794 1025 817 l 1025 922 b 1025 922 1025 922 1025 922 l 1015 922 b 1015 922 1015 922 1015 922 l 1015 833 b 1011 788 1015 810 1014 796 b 988 774 1007 779 999 774 b 967 783 976 774 969 778 b 958 836 961 789 958 807 l 958 922 b 958 922 958 922 958 922 z m 1074 922 b 1064 921 1071 922 1068 922 b 1044 892 1051 917 1044 907 b 1058 849 1044 879 1050 865 b 1075 803 1069 829 1075 814 l 1075 801 b 1075 801 1075 801 1075 801 b 1075 800 1075 800 1075 800 l 1075 797 b 1057 776 1074 783 1068 776 l 1056 776 b 1042 785 1053 776 1047 779 b 1046 768 1044 774 1046 768 l 1057 768 b 1071 771 1063 768 1067 768 b 1090 803 1085 776 1090 788 b 1075 850 1090 815 1085 832 b 1060 896 1065 868 1060 883 b 1075 914 1060 908 1065 914 b 1092 907 1079 914 1085 911 b 1092 908 1092 908 1092 908 b 1088 922 1089 918 1088 922 z m 1115 922 b 1114 922 1115 922 1114 922 l 1114 768 b 1115 768 1114 768 1114 768 l 1186 768 b 1188 776 1186 768 1186 771 b 1188 776 1188 776 1188 776 l 1129 776 l 1129 844 l 1172 844 b 1174 846 1172 844 1174 846 l 1174 853 b 1172 854 1174 854 1172 854 l 1129 854 l 1129 914 l 1183 914 b 1181 922 1182 919 1182 922 z m 1368 922 b 1368 922 1368 922 1368 922 l 1368 768 b 1368 768 1368 768 1368 768 l 1375 768 b 1376 768 1376 768 1376 768 l 1376 899 b 1426 789 1408 828 1425 792 b 1436 768 1432 775 1436 768 l 1447 768 b 1447 768 1447 768 1447 768 l 1447 922 b 1447 922 1447 922 1447 922 l 1440 922 b 1439 922 1440 922 1439 922 l 1439 797 b 1389 907 1408 865 1392 901 b 1382 922 1385 917 1382 922 z m 1468 922 b 1467 922 1468 922 1468 922 l 1467 768 b 1468 768 1467 768 1468 768 l 1538 768 b 1540 776 1539 768 1539 771 l 1482 776 l 1482 922 b 1482 922 1482 922 1482 922 z m 1522 922 b 1560 846 1547 872 1560 847 l 1560 768 b 1561 768 1560 768 1560 768 l 1575 768 b 1575 768 1575 768 1575 768 l 1575 847 b 1613 922 1600 897 1613 922 l 1603 922 b 1571 857 1583 883 1574 861 b 1538 922 1549 900 1538 922 z m 493 846 b 497 897 493 871 494 889 b 521 917 501 910 508 917 l 522 917 b 543 906 532 917 539 913 b 550 846 549 899 550 879 b 544 789 550 815 549 796 b 522 774 542 779 533 774 b 500 788 511 774 504 779 b 493 846 496 794 493 814 z m 1276 851 b 1282 901 1276 876 1278 893 b 1304 917 1286 911 1293 917 l 1306 917 b 1324 908 1314 917 1319 914 b 1333 851 1331 903 1333 883 l 1333 839 b 1329 790 1333 815 1332 800 b 1306 774 1325 779 1317 774 b 1285 783 1296 774 1289 778 b 1276 839 1279 790 1276 808 z m 115 914 l 140 914 b 161 911 151 914 160 913 b 172 879 168 907 172 897 b 168 856 172 868 171 860 b 146 846 165 849 157 846 l 115 846 z m 313 914 l 336 914 b 358 910 347 914 354 913 b 367 882 364 907 367 897 b 361 857 367 868 365 860 b 336 850 358 851 350 850 l 313 850 z m 725 893 b 746 822 726 890 733 867 l 706 822 b 725 893 719 869 725 893 z m 1140 674 b 1132 667 1139 672 1136 671 b 1124 647 1131 665 1128 658 b 1060 456 1099 582 1076 518 b 1043 385 1051 428 1046 404 b 1032 361 1042 378 1039 369 b 1007 326 1026 350 1018 339 b 971 303 992 310 981 303 l 969 303 b 957 307 965 303 961 304 b 944 322 949 315 944 319 b 949 325 944 324 946 325 b 968 335 956 328 963 331 b 992 357 974 338 982 346 b 1013 390 1000 369 1007 381 b 1033 474 1026 424 1033 451 l 1033 475 b 1032 492 1033 481 1033 486 b 1006 513 1026 506 1018 513 b 971 489 994 513 983 504 b 901 335 949 456 925 406 b 904 358 901 340 903 349 b 924 440 910 390 917 418 b 983 601 942 500 961 553 b 993 622 990 614 993 621 b 990 625 992 624 992 625 b 982 642 988 629 985 635 b 971 660 979 654 976 660 l 969 660 b 965 658 969 660 968 660 b 942 647 960 650 953 647 b 896 644 939 646 922 644 b 794 639 856 644 821 643 b 760 633 788 639 775 638 b 711 576 728 624 711 606 b 713 567 711 575 711 571 b 719 544 714 557 717 550 b 728 558 722 549 724 554 l 735 568 b 769 590 746 578 757 585 b 910 610 806 603 853 610 l 939 610 b 942 608 940 610 942 610 b 894 463 922 554 907 506 b 854 243 867 367 854 293 l 854 233 b 857 210 854 222 854 214 b 874 193 860 203 865 197 b 886 186 881 188 885 186 b 897 211 889 186 893 194 b 917 301 904 254 911 285 b 921 311 918 308 919 311 l 922 308 b 940 285 928 300 935 292 b 964 271 947 275 956 271 b 1000 285 975 271 986 275 b 1028 306 1010 290 1018 297 b 1025 246 1026 282 1025 261 l 1025 243 b 1026 225 1025 233 1025 226 b 1039 215 1028 221 1032 218 b 1049 208 1044 211 1047 208 l 1050 208 b 1058 222 1051 208 1056 214 b 1082 286 1064 240 1071 261 b 1149 429 1097 324 1119 372 b 1144 414 1147 426 1147 421 b 1122 286 1131 361 1122 318 l 1122 282 b 1128 249 1122 269 1125 258 b 1201 196 1142 214 1167 196 b 1233 201 1213 196 1224 197 b 1249 217 1240 204 1244 208 b 1204 229 1233 217 1218 221 b 1163 306 1176 249 1163 274 l 1163 311 b 1200 450 1163 354 1175 401 b 1210 474 1207 463 1210 471 l 1210 475 b 1194 483 1208 481 1203 483 l 1186 483 b 1178 485 1186 483 1183 485 l 1176 485 b 1129 450 1161 485 1146 474 b 1075 346 1113 428 1094 393 b 1069 333 1072 338 1071 333 b 1072 363 1069 336 1071 346 b 1092 449 1079 396 1085 424 b 1154 614 1111 511 1132 567 b 1164 636 1161 628 1164 635 b 1163 639 1164 636 1164 638 b 1151 664 1157 646 1154 654 b 1144 674 1150 668 1147 672 z m 1371 672 b 1356 668 1363 669 1358 668 b 1349 663 1351 667 1349 665 b 1343 647 1347 660 1346 654 b 1340 640 1342 643 1342 640 b 1322 636 1340 639 1335 638 b 1292 617 1303 633 1292 626 b 1292 613 1292 615 1292 614 b 1301 603 1294 607 1297 604 l 1301 604 b 1311 617 1304 608 1307 613 b 1333 625 1318 622 1325 625 l 1335 625 b 1335 624 1335 625 1335 625 b 1321 583 1331 610 1326 596 b 1311 549 1314 567 1311 556 b 1313 538 1311 544 1311 542 b 1325 522 1318 528 1322 522 b 1344 539 1329 522 1335 528 l 1344 536 b 1354 522 1347 528 1351 522 b 1361 526 1356 522 1358 524 b 1382 554 1367 533 1374 543 b 1369 524 1379 549 1375 538 b 1353 472 1358 499 1353 481 b 1354 463 1353 469 1353 467 b 1367 450 1357 457 1361 451 b 1365 460 1367 451 1365 456 b 1376 507 1365 468 1369 483 b 1413 593 1388 536 1400 564 b 1406 597 1413 594 1410 596 b 1397 593 1403 597 1401 596 b 1368 554 1394 589 1385 576 b 1360 546 1365 549 1363 546 b 1365 561 1361 551 1363 556 b 1381 590 1374 575 1378 585 b 1363 578 1372 588 1365 583 b 1339 551 1357 569 1349 561 b 1329 544 1333 546 1331 544 b 1325 549 1328 544 1326 546 b 1329 560 1325 549 1326 553 b 1354 625 1335 578 1343 600 b 1360 628 1356 628 1357 628 l 1363 628 b 1385 629 1369 628 1378 629 b 1436 624 1403 629 1419 626 b 1456 617 1447 621 1453 618 b 1457 619 1457 617 1457 618 b 1443 631 1457 622 1453 626 b 1372 640 1419 638 1396 640 l 1365 640 b 1363 642 1364 640 1363 640 l 1363 643 b 1374 669 1369 660 1374 668 l 1374 671 b 1371 672 1374 672 1372 672 z m 596 619 b 554 607 583 619 569 615 b 525 588 546 603 536 596 b 472 535 513 578 494 561 b 429 476 456 514 442 494 b 419 467 426 469 422 467 b 407 467 413 467 408 467 b 308 471 358 469 326 471 b 232 463 272 471 247 468 b 193 408 206 453 193 435 b 199 379 193 400 194 390 b 208 394 203 386 206 390 b 347 433 231 421 278 433 b 403 432 383 433 401 433 b 390 407 403 431 399 422 b 358 329 379 385 369 358 b 333 178 342 274 333 224 b 379 40 333 122 349 76 b 517 -17 413 1 458 -17 l 525 -17 b 685 13 565 -17 618 -7 b 829 60 719 24 768 40 b 1147 125 957 103 1063 125 l 1149 125 b 1336 71 1233 125 1296 107 l 1338 71 l 1338 72 b 1315 107 1338 81 1329 92 b 1292 128 1307 115 1299 122 b 1257 147 1279 136 1268 143 b 1135 171 1221 163 1181 171 l 1133 171 b 1024 157 1101 171 1065 167 b 882 118 975 146 928 133 l 731 71 b 517 26 636 42 564 26 l 515 26 b 428 57 485 26 456 38 b 371 178 390 88 371 128 b 385 272 371 203 376 233 b 419 385 394 313 406 350 b 439 431 431 411 436 426 b 457 433 439 431 444 432 b 490 442 472 436 483 439 b 521 454 492 442 503 446 b 607 544 563 475 590 504 b 619 594 613 558 617 575 l 619 599 b 618 603 619 600 619 601 b 596 619 615 614 608 619 z m 1481 600 b 1481 599 1481 600 1481 600 b 1483 575 1483 589 1483 581 b 1479 553 1483 567 1482 560 b 1465 539 1475 544 1469 540 l 1464 539 b 1461 543 1463 539 1463 540 b 1461 546 1461 544 1461 544 b 1478 575 1472 554 1478 564 l 1478 578 b 1469 589 1478 585 1475 589 l 1468 589 b 1463 586 1467 589 1465 588 b 1451 546 1456 574 1451 560 b 1451 540 1451 544 1451 543 b 1465 531 1456 533 1461 531 l 1469 531 b 1479 535 1472 531 1476 532 b 1494 569 1490 546 1494 557 b 1493 578 1494 572 1494 575 b 1481 600 1492 593 1488 600 z m 1422 593 b 1419 592 1422 593 1421 593 b 1407 564 1418 589 1414 579 b 1372 464 1385 508 1374 475 l 1372 463 b 1378 453 1372 460 1374 456 l 1379 453 b 1382 457 1379 453 1381 454 b 1414 525 1388 474 1399 496 b 1419 536 1418 532 1419 536 b 1421 536 1421 536 1421 536 b 1432 531 1425 533 1429 531 l 1433 531 b 1440 533 1435 531 1438 532 b 1447 563 1444 539 1447 549 l 1447 567 b 1439 590 1447 583 1444 590 b 1438 590 1439 590 1439 590 l 1424 565 b 1410 539 1415 549 1411 540 b 1425 575 1414 553 1419 564 b 1432 588 1429 582 1432 588 b 1424 593 1432 590 1429 592 z m 457 468 l 457 469 b 476 496 463 478 468 486 b 521 542 486 507 501 522 b 588 589 546 561 568 578 b 586 582 588 585 586 582 b 576 549 586 575 582 564 b 563 524 572 542 568 533 b 533 494 556 515 546 506 b 464 468 508 478 486 468 z m 1469 575 l 1471 575 b 1464 558 1471 569 1468 564 b 1464 560 1464 558 1464 560 b 1469 575 1464 564 1467 569 z m 1436 568 l 1438 568 b 1438 564 1438 568 1438 567 l 1438 558 b 1435 546 1438 554 1438 550 b 1422 540 1433 543 1429 540 b 1436 568 1431 556 1435 564 z m 746 519 b 735 517 742 519 738 518 b 715 489 722 511 715 501 b 743 453 715 472 725 460 b 749 449 746 451 749 450 b 753 415 751 435 753 424 l 753 406 b 732 288 753 371 746 331 b 717 256 726 269 721 258 b 713 261 715 256 714 257 b 704 304 707 272 704 286 l 704 311 b 717 385 704 333 708 358 b 729 415 721 397 725 407 b 738 428 735 424 738 428 l 738 429 l 736 429 b 722 433 732 432 726 433 b 708 428 717 433 713 432 b 693 406 703 422 697 414 b 672 432 689 424 682 432 b 636 400 663 432 650 422 b 613 351 626 386 619 369 b 599 269 603 321 599 293 b 601 244 599 261 599 253 b 614 228 604 236 608 231 b 624 224 619 226 622 225 b 633 215 628 218 631 215 l 635 215 b 644 224 638 215 640 218 b 681 321 656 239 667 271 l 681 315 b 685 257 681 286 682 267 b 700 239 689 247 693 242 b 711 229 703 238 707 235 b 725 218 717 222 721 218 b 767 292 739 218 753 243 b 782 417 776 340 782 382 b 782 440 782 426 782 435 b 783 443 782 443 782 443 b 842 461 807 449 826 456 b 842 461 842 461 842 461 b 835 449 839 457 836 453 b 813 356 829 428 822 397 b 783 203 793 271 783 219 l 783 199 b 796 165 783 188 788 176 b 839 144 807 151 822 144 l 842 144 b 844 146 843 144 843 144 l 844 147 b 826 229 832 174 826 201 b 872 460 826 279 842 356 b 879 488 878 475 879 485 l 879 492 b 865 504 876 500 871 504 b 853 497 861 504 857 501 b 842 489 847 492 843 489 b 822 481 840 488 835 486 b 781 469 806 476 792 472 b 776 476 779 469 778 472 b 768 501 775 486 772 494 b 746 519 764 513 756 519 z m 1329 508 b 1317 497 1326 508 1322 504 b 1310 492 1313 494 1310 493 b 1293 460 1307 492 1303 481 b 1293 460 1293 460 1293 460 b 1271 490 1288 481 1281 490 b 1242 472 1263 490 1253 483 b 1221 440 1235 464 1228 454 b 1196 379 1213 424 1203 404 b 1183 308 1188 347 1183 324 l 1183 306 b 1189 282 1183 297 1185 289 b 1197 276 1192 278 1194 276 b 1210 267 1203 275 1207 271 b 1219 257 1213 261 1215 257 b 1231 265 1224 257 1228 260 b 1274 365 1242 283 1256 317 l 1274 364 b 1274 360 1274 364 1274 363 b 1264 303 1268 340 1264 322 b 1269 256 1264 288 1265 272 b 1293 201 1274 233 1282 215 b 1356 172 1313 182 1332 172 b 1444 240 1389 172 1418 194 b 1467 293 1453 256 1460 274 b 1482 383 1478 329 1482 358 l 1482 389 b 1471 438 1482 408 1479 425 b 1431 458 1461 451 1449 458 b 1403 450 1421 458 1413 456 b 1379 429 1399 449 1390 440 b 1360 404 1371 419 1364 411 b 1338 340 1344 378 1338 357 l 1338 339 b 1342 317 1338 332 1339 324 b 1349 300 1344 313 1346 307 b 1374 261 1353 274 1361 261 b 1388 265 1378 261 1382 263 b 1385 268 1386 265 1386 267 b 1375 308 1378 279 1375 292 b 1399 407 1375 338 1383 371 b 1418 438 1407 428 1414 438 b 1426 425 1421 438 1424 433 b 1432 354 1431 403 1432 379 l 1432 349 b 1397 217 1432 292 1421 247 b 1383 203 1394 213 1389 207 b 1344 186 1368 192 1356 186 l 1342 186 b 1317 196 1333 186 1325 189 b 1294 272 1303 213 1294 238 b 1318 408 1294 308 1303 354 b 1338 493 1331 453 1338 481 b 1338 503 1338 497 1338 500 b 1331 508 1336 507 1333 508 z m 938 354 b 960 407 938 360 946 378 b 988 456 969 424 978 440 b 1004 478 993 465 999 474 b 992 432 999 458 996 443 b 974 392 986 415 981 401 b 956 365 969 382 964 374 b 939 354 949 360 943 356 z m 1215 310 b 1218 336 1215 314 1217 322 b 1232 388 1222 357 1226 374 b 1261 450 1240 411 1250 432 b 1274 467 1267 461 1272 467 l 1275 465 b 1283 443 1279 461 1281 453 l 1283 442 l 1250 365 b 1217 294 1233 329 1224 306 b 1215 306 1215 299 1215 303 z m 593 447 b 586 446 590 447 589 447 b 568 417 582 440 576 432 b 496 210 547 369 522 301 b 494 211 496 210 496 210 b 510 306 494 235 500 267 b 536 388 518 339 526 365 b 549 417 544 406 549 414 b 546 419 549 418 547 418 b 531 426 539 424 535 425 l 529 426 b 514 411 525 426 521 421 b 438 251 493 376 468 322 l 438 253 b 475 375 438 274 450 314 b 486 401 482 390 486 400 b 483 406 486 403 486 404 b 461 410 482 407 474 408 b 435 358 457 410 447 392 b 406 239 415 301 406 263 l 406 235 b 422 199 406 218 411 206 b 442 192 429 194 436 192 b 442 192 442 192 442 192 b 446 203 443 192 444 196 b 476 289 451 224 463 253 l 476 288 b 463 181 467 244 463 210 b 482 104 463 143 469 117 b 496 97 488 100 492 97 l 497 97 b 499 100 499 97 499 97 l 499 101 l 499 106 b 513 190 499 124 504 153 b 551 315 525 236 538 278 l 553 315 l 553 314 b 549 293 553 313 551 306 b 532 201 538 247 532 217 b 547 157 532 181 538 165 b 558 146 550 154 554 150 b 583 128 565 133 574 128 b 597 131 588 128 593 129 b 640 149 613 139 628 144 b 699 165 657 156 676 161 b 746 171 724 169 739 171 l 746 172 b 693 193 735 186 717 193 b 611 175 675 193 649 188 b 576 165 592 168 579 165 b 571 167 574 165 572 165 b 565 194 567 171 565 181 b 572 265 565 217 568 240 b 608 404 583 319 596 367 b 618 438 614 422 617 433 b 613 443 618 440 615 442 b 593 447 601 446 594 447 z m 356 415 l 354 415 b 344 408 353 415 350 414 b 328 393 339 406 333 400 b 306 349 325 390 318 375 b 288 372 303 364 296 372 l 286 372 b 256 354 278 372 268 367 b 232 322 246 344 238 333 b 204 264 221 306 213 286 b 188 193 193 232 188 207 l 188 189 b 192 169 188 181 189 175 b 199 164 193 167 196 165 b 211 154 204 163 208 160 b 221 144 214 147 217 144 b 235 156 225 144 231 147 b 269 222 244 172 256 194 b 279 240 275 233 278 240 l 279 239 b 271 138 274 190 271 157 l 271 131 b 283 83 271 113 275 97 b 326 60 294 68 308 60 b 338 63 333 60 338 61 b 336 65 338 64 338 64 b 310 186 318 100 310 139 l 310 194 b 338 328 310 233 318 278 b 363 401 354 367 363 392 l 363 406 b 356 415 361 413 360 415 z m 626 265 b 628 272 626 265 626 268 b 636 324 631 296 633 313 b 653 375 642 347 647 364 b 669 400 660 390 665 399 l 672 400 b 679 381 676 392 679 386 b 675 365 679 376 678 372 b 643 269 661 321 650 289 b 633 246 639 254 635 246 l 632 246 b 626 265 629 246 628 253 z m 219 189 b 224 218 219 200 221 210 b 235 256 224 222 228 235 b 276 336 246 288 261 314 b 289 349 282 344 286 349 b 290 347 289 349 289 349 b 296 328 293 339 296 333 b 293 318 296 325 294 321 b 231 199 275 285 256 246 b 219 182 226 192 224 186 b 219 189 219 182 219 185 z m 581 -114 b 568 -119 572 -117 568 -118 l 568 -239 b 569 -239 568 -239 568 -239 l 579 -239 b 581 -239 581 -239 581 -239 l 581 -115 z m 860 -114 b 849 -119 853 -117 849 -118 l 849 -239 b 849 -239 849 -239 849 -239 l 860 -239 b 860 -239 860 -239 860 -239 l 860 -194 l 864 -190 l 865 -190 b 899 -239 871 -201 882 -217 l 913 -239 l 874 -183 l 874 -182 b 904 -154 893 -164 904 -154 l 894 -154 l 860 -185 l 860 -115 z m 936 -114 b 924 -119 928 -117 924 -118 l 924 -239 b 924 -239 924 -239 924 -239 l 935 -239 b 936 -239 936 -239 936 -239 l 936 -179 b 936 -175 936 -178 936 -176 b 953 -160 939 -165 944 -160 b 961 -162 956 -160 960 -161 b 969 -192 967 -165 969 -176 l 969 -239 b 969 -239 969 -239 969 -239 l 982 -239 b 982 -239 982 -239 982 -239 l 982 -189 b 979 -172 982 -183 981 -178 b 956 -154 975 -160 968 -154 l 953 -154 b 936 -160 946 -154 940 -156 l 936 -115 z m 1086 -132 b 1075 -137 1078 -135 1075 -137 l 1075 -154 l 1063 -154 b 1063 -154 1063 -154 1063 -154 l 1063 -160 b 1063 -160 1063 -160 1063 -160 l 1075 -160 l 1075 -201 b 1081 -232 1075 -217 1076 -226 b 1103 -239 1082 -236 1090 -239 l 1110 -239 b 1113 -226 1110 -239 1111 -235 b 1100 -232 1107 -231 1103 -232 l 1097 -232 b 1092 -231 1096 -232 1093 -232 b 1086 -203 1088 -229 1086 -219 l 1086 -160 l 1101 -160 b 1101 -160 1101 -160 1101 -160 l 1101 -154 b 1101 -154 1101 -154 1101 -154 l 1086 -154 l 1086 -132 z m 1226 -153 b 1207 -160 1218 -153 1211 -156 l 1203 -156 b 1194 -160 1199 -157 1194 -158 b 1196 -171 1196 -162 1196 -167 l 1196 -281 l 1197 -281 b 1208 -275 1204 -276 1208 -275 l 1208 -235 b 1226 -240 1214 -237 1219 -240 b 1242 -236 1232 -240 1238 -239 b 1254 -199 1250 -232 1254 -219 l 1254 -194 b 1251 -168 1254 -182 1254 -174 b 1226 -153 1247 -158 1239 -153 z m 607 -153 b 594 -158 599 -156 594 -157 l 594 -239 b 596 -239 594 -239 594 -239 l 607 -239 b 607 -239 607 -239 607 -239 l 607 -179 b 608 -174 607 -178 607 -175 b 624 -160 610 -165 615 -160 b 635 -165 629 -160 633 -162 b 639 -203 638 -168 639 -181 l 639 -239 b 640 -239 639 -239 639 -239 l 651 -239 b 651 -239 651 -239 651 -239 l 651 -179 b 668 -160 653 -167 658 -160 b 679 -164 672 -160 676 -161 b 683 -194 682 -168 683 -178 l 683 -239 b 685 -239 683 -239 685 -239 l 696 -239 b 696 -239 696 -239 696 -239 l 696 -192 b 693 -168 696 -182 694 -175 b 671 -154 689 -158 682 -154 l 667 -154 b 656 -156 664 -154 660 -154 b 647 -165 651 -160 647 -162 b 647 -164 647 -164 647 -164 b 626 -154 643 -157 636 -154 l 622 -154 b 607 -158 617 -154 611 -156 l 607 -153 z m 794 -153 b 782 -158 786 -156 782 -157 l 782 -239 b 782 -239 782 -239 782 -239 l 793 -239 b 794 -239 794 -239 794 -239 l 794 -211 b 796 -182 794 -200 794 -190 b 815 -160 800 -168 806 -160 b 836 -168 822 -160 829 -162 b 831 -154 833 -158 832 -154 l 814 -154 b 808 -154 813 -154 810 -154 b 794 -164 800 -157 796 -160 l 794 -153 z m 1133 -153 b 1121 -158 1126 -156 1122 -157 l 1121 -200 b 1125 -224 1121 -210 1122 -218 b 1149 -239 1129 -235 1138 -239 l 1150 -239 b 1168 -233 1157 -239 1163 -237 l 1168 -236 b 1167 -253 1168 -242 1168 -247 b 1150 -272 1164 -267 1158 -272 l 1147 -272 b 1129 -265 1143 -272 1136 -269 b 1133 -279 1132 -275 1133 -279 l 1151 -279 b 1161 -276 1154 -279 1157 -279 b 1179 -237 1174 -272 1179 -258 l 1179 -153 b 1168 -158 1172 -156 1168 -157 l 1168 -211 b 1168 -217 1168 -212 1168 -214 b 1151 -232 1165 -226 1160 -232 l 1149 -232 b 1140 -229 1144 -232 1142 -231 b 1133 -196 1136 -225 1133 -214 l 1133 -153 z m 1517 -153 b 1504 -158 1508 -156 1504 -157 l 1504 -239 b 1506 -239 1504 -239 1504 -239 l 1517 -239 b 1517 -239 1517 -239 1517 -239 l 1517 -181 b 1518 -172 1517 -178 1517 -175 b 1533 -160 1521 -164 1525 -160 b 1543 -164 1538 -160 1540 -161 b 1549 -192 1547 -167 1549 -176 l 1549 -239 b 1550 -239 1549 -239 1549 -239 l 1561 -239 b 1561 -239 1561 -239 1561 -239 l 1561 -183 b 1563 -174 1561 -181 1561 -176 b 1578 -160 1565 -165 1569 -160 b 1589 -165 1583 -160 1588 -162 b 1594 -203 1592 -168 1594 -181 l 1594 -239 b 1594 -239 1594 -239 1594 -239 l 1606 -239 b 1606 -239 1606 -239 1606 -239 l 1606 -196 b 1604 -171 1606 -185 1606 -176 b 1581 -154 1600 -160 1593 -154 l 1576 -154 b 1564 -157 1572 -154 1568 -154 b 1557 -165 1560 -160 1557 -162 b 1557 -162 1557 -164 1557 -164 b 1536 -154 1551 -157 1546 -154 l 1532 -154 b 1517 -158 1526 -154 1521 -156 l 1517 -153 z m 1299 -153 b 1288 -154 1294 -153 1292 -153 b 1268 -189 1275 -158 1268 -171 l 1268 -204 b 1297 -239 1268 -228 1278 -239 l 1318 -239 b 1322 -225 1318 -239 1319 -233 b 1303 -232 1315 -229 1308 -232 l 1300 -232 b 1290 -231 1296 -232 1293 -232 b 1281 -204 1283 -228 1281 -219 l 1281 -203 b 1313 -196 1301 -199 1313 -196 b 1326 -193 1322 -194 1326 -193 l 1326 -190 b 1322 -168 1326 -182 1325 -174 b 1299 -153 1318 -158 1310 -153 z m 1461 -153 b 1447 -156 1456 -153 1450 -154 b 1431 -197 1436 -161 1431 -175 b 1461 -240 1431 -225 1440 -240 b 1490 -197 1481 -240 1490 -225 l 1490 -194 b 1489 -176 1490 -187 1490 -182 b 1461 -153 1485 -161 1476 -153 z m 108 -154 b 136 -232 108 -156 118 -182 b 139 -239 138 -236 138 -239 l 144 -239 b 161 -189 156 -208 161 -192 b 179 -239 174 -222 179 -239 l 185 -239 b 215 -154 204 -185 215 -157 l 208 -154 b 185 -218 200 -176 192 -199 b 161 -154 169 -175 161 -154 l 150 -154 l 149 -154 l 158 -179 l 144 -218 l 133 -187 b 121 -154 125 -165 121 -154 z m 228 -154 b 250 -217 242 -194 249 -217 b 258 -239 254 -231 257 -237 l 264 -239 b 281 -190 264 -237 269 -221 b 290 -215 282 -190 285 -200 b 299 -239 296 -231 299 -239 l 304 -239 l 335 -154 b 333 -154 335 -154 335 -154 l 328 -154 b 304 -218 319 -175 311 -197 b 290 -181 296 -196 292 -183 b 281 -154 285 -164 282 -156 l 268 -154 b 278 -179 268 -154 271 -162 b 275 -185 276 -183 275 -185 b 263 -218 267 -207 263 -218 b 246 -168 263 -217 257 -200 b 240 -154 242 -158 240 -154 z m 347 -154 b 374 -231 347 -156 357 -182 b 376 -239 376 -236 376 -239 l 382 -239 b 400 -189 383 -239 389 -222 b 414 -228 408 -215 414 -228 b 418 -239 417 -235 418 -239 l 424 -239 b 454 -154 444 -183 454 -154 l 447 -154 b 432 -194 446 -156 442 -169 b 424 -218 426 -211 424 -218 b 406 -168 413 -187 407 -171 b 400 -154 403 -158 400 -154 l 389 -154 l 388 -154 l 396 -179 l 382 -218 b 369 -185 375 -197 371 -186 b 360 -154 363 -164 360 -154 z m 503 -154 b 497 -168 501 -154 500 -158 b 500 -167 499 -168 499 -167 b 519 -160 504 -162 511 -160 b 533 -164 525 -160 531 -161 b 538 -176 536 -168 538 -172 b 511 -181 528 -176 519 -178 b 493 -210 500 -186 493 -194 l 493 -214 b 494 -222 493 -217 494 -219 b 517 -240 499 -233 506 -240 b 539 -232 526 -240 533 -237 b 543 -239 540 -235 542 -237 b 553 -239 544 -239 549 -239 l 554 -239 b 550 -226 551 -236 550 -232 l 550 -192 b 550 -176 550 -186 550 -181 b 522 -154 547 -161 538 -154 z m 718 -154 b 714 -168 718 -154 717 -158 b 715 -167 714 -168 715 -168 b 736 -160 721 -162 728 -160 b 750 -164 743 -160 747 -161 b 754 -176 753 -168 754 -172 b 726 -182 743 -176 733 -178 b 710 -211 715 -186 710 -196 l 710 -212 b 711 -224 710 -215 710 -219 b 733 -240 715 -235 722 -240 b 756 -231 742 -240 750 -236 b 760 -239 757 -236 758 -239 b 769 -239 761 -239 764 -239 b 767 -225 768 -236 767 -232 l 767 -190 b 764 -168 767 -182 765 -174 b 739 -154 758 -158 751 -154 z m 1004 -154 b 1000 -168 1004 -154 1003 -158 b 1000 -168 1000 -168 1000 -168 b 1022 -160 1007 -162 1014 -160 b 1036 -165 1028 -160 1033 -161 b 1040 -176 1038 -167 1039 -171 l 1039 -176 b 1011 -182 1028 -176 1018 -179 b 996 -211 1000 -187 996 -197 b 997 -224 996 -217 996 -221 b 1019 -240 1001 -235 1008 -240 b 1042 -231 1028 -240 1035 -236 b 1044 -239 1042 -233 1042 -236 b 1056 -239 1046 -239 1050 -239 b 1053 -229 1054 -235 1053 -232 l 1053 -199 b 1050 -172 1053 -186 1053 -176 b 1025 -154 1046 -160 1038 -154 z m 1394 -154 b 1381 -157 1389 -154 1385 -154 b 1365 -196 1371 -162 1365 -175 b 1369 -222 1365 -207 1367 -215 b 1396 -239 1374 -233 1382 -239 l 1415 -239 b 1419 -225 1417 -239 1418 -235 b 1401 -232 1413 -229 1407 -232 l 1397 -232 b 1385 -228 1390 -232 1386 -231 b 1379 -197 1381 -226 1379 -215 b 1382 -167 1379 -181 1381 -169 b 1400 -160 1385 -162 1390 -160 b 1419 -168 1406 -160 1413 -162 b 1415 -154 1418 -158 1417 -154 z m 1208 -179 b 1210 -172 1208 -178 1208 -175 b 1225 -160 1211 -164 1217 -160 l 1226 -160 b 1236 -162 1229 -160 1233 -161 b 1243 -192 1240 -167 1243 -176 b 1239 -225 1243 -207 1242 -218 b 1226 -233 1238 -231 1232 -233 b 1218 -232 1224 -233 1221 -232 b 1208 -214 1211 -228 1208 -222 z m 1281 -192 b 1283 -169 1281 -183 1281 -175 b 1297 -160 1286 -162 1290 -160 b 1303 -161 1299 -160 1300 -160 b 1314 -187 1311 -165 1314 -174 l 1314 -189 l 1281 -194 z m 1443 -194 b 1447 -171 1443 -183 1444 -175 b 1461 -160 1449 -162 1454 -160 b 1469 -162 1464 -160 1467 -161 b 1478 -194 1475 -167 1478 -176 l 1478 -199 b 1475 -222 1478 -208 1476 -217 b 1461 -233 1472 -229 1468 -233 b 1451 -231 1457 -233 1454 -232 b 1443 -199 1446 -226 1443 -217 z m 506 -210 b 510 -192 506 -203 507 -197 b 539 -183 515 -186 525 -183 b 539 -189 539 -186 539 -187 l 539 -221 b 521 -231 535 -228 528 -231 b 506 -210 510 -231 506 -224 z m 722 -208 b 726 -193 722 -203 724 -197 b 754 -183 731 -187 740 -183 l 754 -185 l 754 -221 b 736 -231 751 -228 744 -231 l 733 -231 b 722 -211 725 -229 722 -222 z m 1007 -211 b 1010 -196 1007 -204 1008 -200 b 1040 -183 1014 -187 1025 -183 l 1040 -221 b 1022 -231 1036 -228 1031 -231 b 1007 -211 1013 -231 1007 -224 z m 475 -224 l 474 -224 b 467 -231 468 -225 467 -228 l 467 -233 b 474 -239 468 -237 471 -239 b 476 -239 475 -239 476 -239 b 482 -232 479 -237 482 -235 l 482 -231 b 475 -224 481 -226 478 -224 z m 1347 -224 l 1346 -224 b 1339 -232 1342 -225 1339 -228 b 1339 -233 1339 -232 1339 -232 b 1346 -239 1340 -237 1343 -239 l 1349 -239 b 1354 -232 1353 -237 1354 -235 b 1354 -229 1354 -232 1354 -231 b 1347 -224 1351 -225 1350 -224 z "},"4":{"ha":832,"x_min":0,"x_max":0,"o":""},"5":{"ha":785,"x_min":0,"x_max":0,"o":""},"6":{"ha":786,"x_min":0,"x_max":0,"o":""},"7":{"ha":785,"x_min":0,"x_max":0,"o":""},"8":{"ha":800,"x_min":0,"x_max":0,"o":""},"9":{"ha":1685,"x_min":0,"x_max":0,"o":"m 522 925 b 501 919 514 925 507 924 b 478 849 486 911 478 888 l 478 842 b 482 801 478 828 479 814 b 521 765 488 778 501 765 b 539 769 528 765 535 767 b 565 840 557 778 565 801 l 565 850 b 560 896 565 868 564 883 b 522 925 554 915 542 925 z m 1304 925 b 1286 921 1297 925 1290 924 b 1261 846 1269 913 1261 888 b 1265 799 1261 826 1263 811 b 1304 765 1272 776 1285 765 b 1324 769 1313 765 1318 767 b 1349 844 1340 778 1349 803 b 1343 893 1349 865 1347 882 b 1304 925 1338 914 1325 925 z m 101 922 b 101 922 101 922 101 922 l 101 768 b 101 768 101 768 101 768 l 115 768 b 115 768 115 768 115 768 l 115 838 l 143 838 b 171 842 156 838 165 839 b 189 879 183 847 189 860 b 186 901 189 888 188 896 b 147 922 181 915 168 922 z m 206 922 b 206 922 206 922 206 922 l 206 768 b 206 768 206 768 206 768 l 276 768 b 279 776 276 768 278 771 l 221 776 l 221 844 l 264 844 b 264 846 264 844 264 846 l 264 853 b 264 854 264 854 264 854 l 221 854 l 221 914 b 221 914 221 914 221 914 l 275 914 b 272 922 274 919 272 922 z m 299 922 b 299 922 299 922 299 922 l 299 768 b 299 768 299 768 299 768 l 313 768 b 313 768 313 768 313 768 l 313 840 l 346 840 b 369 788 351 840 360 824 b 375 768 372 775 374 768 l 389 768 l 390 768 b 361 843 379 808 369 833 b 365 844 363 843 364 844 b 383 882 378 849 383 861 b 381 901 383 889 383 896 b 343 922 376 915 363 922 z m 440 922 b 431 921 438 922 435 922 b 413 893 419 915 413 907 l 413 889 b 425 850 413 879 417 867 b 443 801 438 829 443 813 b 443 794 443 799 443 796 b 425 776 440 782 435 776 l 424 776 b 410 785 419 776 415 779 l 408 785 b 414 768 411 774 413 768 l 425 768 b 439 771 431 768 435 768 b 458 803 451 776 458 788 b 443 850 458 817 453 832 b 428 894 433 868 428 883 l 428 897 b 443 914 428 908 433 914 b 458 907 447 914 451 911 b 458 908 458 908 458 908 b 454 922 457 918 456 922 z m 586 922 b 585 922 585 922 585 922 l 585 768 b 586 768 585 768 585 768 l 593 768 b 593 768 593 768 593 768 l 593 899 b 607 868 601 881 607 871 b 654 768 636 804 653 769 l 665 768 b 665 768 665 768 665 768 l 665 922 b 665 922 665 922 665 922 l 657 922 b 657 922 657 922 657 922 l 657 797 l 656 797 b 599 922 619 878 601 919 z m 732 922 l 725 922 b 681 768 724 918 708 867 b 681 768 681 768 681 768 l 689 768 b 703 814 690 771 694 786 l 749 814 b 758 779 754 793 758 782 b 763 768 761 772 763 768 l 778 768 b 738 903 776 772 764 818 b 732 922 735 915 733 922 z m 797 922 b 797 922 797 922 797 922 l 797 768 b 797 768 797 768 797 768 l 868 768 b 869 776 868 768 869 771 l 811 776 l 811 922 b 811 922 811 922 811 922 z m 943 922 b 943 922 943 922 943 922 l 943 844 b 951 785 943 815 946 796 b 986 765 957 772 969 765 b 1006 769 994 765 1000 767 b 1019 788 1011 772 1015 779 b 1025 854 1022 794 1025 817 l 1025 922 b 1025 922 1025 922 1025 922 l 1015 922 b 1015 922 1015 922 1015 922 l 1015 833 b 1011 788 1015 810 1014 796 b 988 774 1007 779 999 774 b 967 783 976 774 969 778 b 958 836 961 789 958 807 l 958 922 b 958 922 958 922 958 922 z m 1074 922 b 1064 921 1071 922 1068 922 b 1044 892 1051 917 1044 907 b 1058 849 1044 879 1050 865 b 1075 803 1069 829 1075 814 l 1075 801 b 1075 801 1075 801 1075 801 b 1075 800 1075 800 1075 800 l 1075 797 b 1057 776 1074 783 1068 776 l 1056 776 b 1042 785 1053 776 1047 779 b 1046 768 1044 774 1046 768 l 1057 768 b 1071 771 1063 768 1067 768 b 1090 803 1085 776 1090 788 b 1075 850 1090 815 1085 832 b 1060 896 1065 868 1060 883 b 1075 914 1060 908 1065 914 b 1092 907 1079 914 1085 911 b 1092 908 1092 908 1092 908 b 1088 922 1089 918 1088 922 z m 1115 922 b 1114 922 1115 922 1114 922 l 1114 768 b 1115 768 1114 768 1114 768 l 1186 768 b 1188 776 1186 768 1186 771 b 1188 776 1188 776 1188 776 l 1129 776 l 1129 844 l 1172 844 b 1174 846 1172 844 1174 846 l 1174 853 b 1172 854 1174 854 1172 854 l 1129 854 l 1129 914 l 1183 914 b 1181 922 1182 919 1182 922 z m 1368 922 b 1368 922 1368 922 1368 922 l 1368 768 b 1368 768 1368 768 1368 768 l 1375 768 b 1376 768 1376 768 1376 768 l 1376 899 b 1426 789 1408 828 1425 792 b 1436 768 1432 775 1436 768 l 1447 768 b 1447 768 1447 768 1447 768 l 1447 922 b 1447 922 1447 922 1447 922 l 1440 922 b 1439 922 1440 922 1439 922 l 1439 797 b 1389 907 1408 865 1392 901 b 1382 922 1385 917 1382 922 z m 1468 922 b 1467 922 1468 922 1468 922 l 1467 768 b 1468 768 1467 768 1468 768 l 1538 768 b 1540 776 1539 768 1539 771 l 1482 776 l 1482 922 b 1482 922 1482 922 1482 922 z m 1522 922 b 1560 846 1547 872 1560 847 l 1560 768 b 1561 768 1560 768 1560 768 l 1575 768 b 1575 768 1575 768 1575 768 l 1575 847 b 1613 922 1600 897 1613 922 l 1603 922 b 1571 857 1583 883 1574 861 b 1538 922 1549 900 1538 922 z m 493 846 b 497 897 493 871 494 889 b 521 917 501 910 508 917 l 522 917 b 543 906 532 917 539 913 b 550 846 549 899 550 879 b 544 789 550 815 549 796 b 522 774 542 779 533 774 b 500 788 511 774 504 779 b 493 846 496 794 493 814 z m 1276 851 b 1282 901 1276 876 1278 893 b 1304 917 1286 911 1293 917 l 1306 917 b 1324 908 1314 917 1319 914 b 1333 851 1331 903 1333 883 l 1333 839 b 1329 790 1333 815 1332 800 b 1306 774 1325 779 1317 774 b 1285 783 1296 774 1289 778 b 1276 839 1279 790 1276 808 z m 115 914 l 140 914 b 161 911 151 914 160 913 b 172 879 168 907 172 897 b 168 856 172 868 171 860 b 146 846 165 849 157 846 l 115 846 z m 313 914 l 336 914 b 358 910 347 914 354 913 b 367 882 364 907 367 897 b 361 857 367 868 365 860 b 336 850 358 851 350 850 l 313 850 z m 725 893 b 746 822 726 890 733 867 l 706 822 b 725 893 719 869 725 893 z m 1140 674 b 1132 667 1139 672 1136 671 b 1124 647 1131 665 1128 658 b 1060 456 1099 582 1076 518 b 1043 385 1051 428 1046 404 b 1032 361 1042 378 1039 369 b 1007 326 1026 350 1018 339 b 971 303 992 310 981 303 l 969 303 b 957 307 965 303 961 304 b 944 322 949 315 944 319 b 949 325 944 324 946 325 b 968 335 956 328 963 331 b 992 357 974 338 982 346 b 1013 390 1000 369 1007 381 b 1033 474 1026 424 1033 451 l 1033 475 b 1032 492 1033 481 1033 486 b 1006 513 1026 506 1018 513 b 971 489 994 513 983 504 b 901 335 949 456 925 406 b 904 358 901 340 903 349 b 924 440 910 390 917 418 b 983 601 942 500 961 553 b 993 622 990 614 993 621 b 990 625 992 624 992 625 b 982 642 988 629 985 635 b 971 660 979 654 976 660 l 969 660 b 965 658 969 660 968 660 b 942 647 960 650 953 647 b 896 644 939 646 922 644 b 794 639 856 644 821 643 b 760 633 788 639 775 638 b 711 576 728 624 711 606 b 713 567 711 575 711 571 b 719 544 714 557 717 550 b 728 558 722 549 724 554 l 735 568 b 769 590 746 578 757 585 b 910 610 806 603 853 610 l 939 610 b 942 608 940 610 942 610 b 894 463 922 554 907 506 b 854 243 867 367 854 293 l 854 233 b 857 210 854 222 854 214 b 874 193 860 203 865 197 b 886 186 881 188 885 186 b 897 211 889 186 893 194 b 917 301 904 254 911 285 b 921 311 918 308 919 311 l 922 308 b 940 285 928 300 935 292 b 964 271 947 275 956 271 b 1000 285 975 271 986 275 b 1028 306 1010 290 1018 297 b 1025 246 1026 282 1025 261 l 1025 243 b 1026 225 1025 233 1025 226 b 1039 215 1028 221 1032 218 b 1049 208 1044 211 1047 208 l 1050 208 b 1058 222 1051 208 1056 214 b 1082 286 1064 240 1071 261 b 1149 429 1097 324 1119 372 b 1144 414 1147 426 1147 421 b 1122 286 1131 361 1122 318 l 1122 282 b 1128 249 1122 269 1125 258 b 1201 196 1142 214 1167 196 b 1233 201 1213 196 1224 197 b 1249 217 1240 204 1244 208 b 1204 229 1233 217 1218 221 b 1163 306 1176 249 1163 274 l 1163 311 b 1200 450 1163 354 1175 401 b 1210 474 1207 463 1210 471 l 1210 475 b 1194 483 1208 481 1203 483 l 1186 483 b 1178 485 1186 483 1183 485 l 1176 485 b 1129 450 1161 485 1146 474 b 1075 346 1113 428 1094 393 b 1069 333 1072 338 1071 333 b 1072 363 1069 336 1071 346 b 1092 449 1079 396 1085 424 b 1154 614 1111 511 1132 567 b 1164 636 1161 628 1164 635 b 1163 639 1164 636 1164 638 b 1151 664 1157 646 1154 654 b 1144 674 1150 668 1147 672 z m 1371 672 b 1356 668 1363 669 1358 668 b 1349 663 1351 667 1349 665 b 1343 647 1347 660 1346 654 b 1340 640 1342 643 1342 640 b 1322 636 1340 639 1335 638 b 1292 617 1303 633 1292 626 b 1292 613 1292 615 1292 614 b 1301 603 1294 607 1297 604 l 1301 604 b 1311 617 1304 608 1307 613 b 1333 625 1318 622 1325 625 l 1335 625 b 1335 624 1335 625 1335 625 b 1321 583 1331 610 1326 596 b 1311 549 1314 567 1311 556 b 1313 538 1311 544 1311 542 b 1325 522 1318 528 1322 522 b 1344 539 1329 522 1335 528 l 1344 536 b 1354 522 1347 528 1351 522 b 1361 526 1356 522 1358 524 b 1382 554 1367 533 1374 543 b 1369 524 1379 549 1375 538 b 1353 472 1358 499 1353 481 b 1354 463 1353 469 1353 467 b 1367 450 1357 457 1361 451 b 1365 460 1367 451 1365 456 b 1376 507 1365 468 1369 483 b 1413 593 1388 536 1400 564 b 1406 597 1413 594 1410 596 b 1397 593 1403 597 1401 596 b 1368 554 1394 589 1385 576 b 1360 546 1365 549 1363 546 b 1365 561 1361 551 1363 556 b 1381 590 1374 575 1378 585 b 1363 578 1372 588 1365 583 b 1339 551 1357 569 1349 561 b 1329 544 1333 546 1331 544 b 1325 549 1328 544 1326 546 b 1329 560 1325 549 1326 553 b 1354 625 1335 578 1343 600 b 1360 628 1356 628 1357 628 l 1363 628 b 1385 629 1369 628 1378 629 b 1436 624 1403 629 1419 626 b 1456 617 1447 621 1453 618 b 1457 619 1457 617 1457 618 b 1443 631 1457 622 1453 626 b 1372 640 1419 638 1396 640 l 1365 640 b 1363 642 1364 640 1363 640 l 1363 643 b 1374 669 1369 660 1374 668 l 1374 671 b 1371 672 1374 672 1372 672 z m 596 619 b 554 607 583 619 569 615 b 525 588 546 603 536 596 b 472 535 513 578 494 561 b 429 476 456 514 442 494 b 419 467 426 469 422 467 b 407 467 413 467 408 467 b 308 471 358 469 326 471 b 232 463 272 471 247 468 b 193 408 206 453 193 435 b 199 379 193 400 194 390 b 208 394 203 386 206 390 b 347 433 231 421 278 433 b 403 432 383 433 401 433 b 390 407 403 431 399 422 b 358 329 379 385 369 358 b 333 178 342 274 333 224 b 379 40 333 122 349 76 b 517 -17 413 1 458 -17 l 525 -17 b 685 13 565 -17 618 -7 b 829 60 719 24 768 40 b 1147 125 957 103 1063 125 l 1149 125 b 1336 71 1233 125 1296 107 l 1338 71 l 1338 72 b 1315 107 1338 81 1329 92 b 1292 128 1307 115 1299 122 b 1257 147 1279 136 1268 143 b 1135 171 1221 163 1181 171 l 1133 171 b 1024 157 1101 171 1065 167 b 882 118 975 146 928 133 l 731 71 b 517 26 636 42 564 26 l 515 26 b 428 57 485 26 456 38 b 371 178 390 88 371 128 b 385 272 371 203 376 233 b 419 385 394 313 406 350 b 439 431 431 411 436 426 b 457 433 439 431 444 432 b 490 442 472 436 483 439 b 521 454 492 442 503 446 b 607 544 563 475 590 504 b 619 594 613 558 617 575 l 619 599 b 618 603 619 600 619 601 b 596 619 615 614 608 619 z m 1481 600 b 1481 599 1481 600 1481 600 b 1483 575 1483 589 1483 581 b 1479 553 1483 567 1482 560 b 1465 539 1475 544 1469 540 l 1464 539 b 1461 543 1463 539 1463 540 b 1461 546 1461 544 1461 544 b 1478 575 1472 554 1478 564 l 1478 578 b 1469 589 1478 585 1475 589 l 1468 589 b 1463 586 1467 589 1465 588 b 1451 546 1456 574 1451 560 b 1451 540 1451 544 1451 543 b 1465 531 1456 533 1461 531 l 1469 531 b 1479 535 1472 531 1476 532 b 1494 569 1490 546 1494 557 b 1493 578 1494 572 1494 575 b 1481 600 1492 593 1488 600 z m 1422 593 b 1419 592 1422 593 1421 593 b 1407 564 1418 589 1414 579 b 1372 464 1385 508 1374 475 l 1372 463 b 1378 453 1372 460 1374 456 l 1379 453 b 1382 457 1379 453 1381 454 b 1414 525 1388 474 1399 496 b 1419 536 1418 532 1419 536 b 1421 536 1421 536 1421 536 b 1432 531 1425 533 1429 531 l 1433 531 b 1440 533 1435 531 1438 532 b 1447 563 1444 539 1447 549 l 1447 567 b 1439 590 1447 583 1444 590 b 1438 590 1439 590 1439 590 l 1424 565 b 1410 539 1415 549 1411 540 b 1425 575 1414 553 1419 564 b 1432 588 1429 582 1432 588 b 1424 593 1432 590 1429 592 z m 457 468 l 457 469 b 476 496 463 478 468 486 b 521 542 486 507 501 522 b 588 589 546 561 568 578 b 586 582 588 585 586 582 b 576 549 586 575 582 564 b 563 524 572 542 568 533 b 533 494 556 515 546 506 b 464 468 508 478 486 468 z m 1469 575 l 1471 575 b 1464 558 1471 569 1468 564 b 1464 560 1464 558 1464 560 b 1469 575 1464 564 1467 569 z m 1436 568 l 1438 568 b 1438 564 1438 568 1438 567 l 1438 558 b 1435 546 1438 554 1438 550 b 1422 540 1433 543 1429 540 b 1436 568 1431 556 1435 564 z m 746 519 b 735 517 742 519 738 518 b 715 489 722 511 715 501 b 743 453 715 472 725 460 b 749 449 746 451 749 450 b 753 415 751 435 753 424 l 753 406 b 732 288 753 371 746 331 b 717 256 726 269 721 258 b 713 261 715 256 714 257 b 704 304 707 272 704 286 l 704 311 b 717 385 704 333 708 358 b 729 415 721 397 725 407 b 738 428 735 424 738 428 l 738 429 l 736 429 b 722 433 732 432 726 433 b 708 428 717 433 713 432 b 693 406 703 422 697 414 b 672 432 689 424 682 432 b 636 400 663 432 650 422 b 613 351 626 386 619 369 b 599 269 603 321 599 293 b 601 244 599 261 599 253 b 614 228 604 236 608 231 b 624 224 619 226 622 225 b 633 215 628 218 631 215 l 635 215 b 644 224 638 215 640 218 b 681 321 656 239 667 271 l 681 315 b 685 257 681 286 682 267 b 700 239 689 247 693 242 b 711 229 703 238 707 235 b 725 218 717 222 721 218 b 767 292 739 218 753 243 b 782 417 776 340 782 382 b 782 440 782 426 782 435 b 783 443 782 443 782 443 b 842 461 807 449 826 456 b 842 461 842 461 842 461 b 835 449 839 457 836 453 b 813 356 829 428 822 397 b 783 203 793 271 783 219 l 783 199 b 796 165 783 188 788 176 b 839 144 807 151 822 144 l 842 144 b 844 146 843 144 843 144 l 844 147 b 826 229 832 174 826 201 b 872 460 826 279 842 356 b 879 488 878 475 879 485 l 879 492 b 865 504 876 500 871 504 b 853 497 861 504 857 501 b 842 489 847 492 843 489 b 822 481 840 488 835 486 b 781 469 806 476 792 472 b 776 476 779 469 778 472 b 768 501 775 486 772 494 b 746 519 764 513 756 519 z m 1329 508 b 1317 497 1326 508 1322 504 b 1310 492 1313 494 1310 493 b 1293 460 1307 492 1303 481 b 1293 460 1293 460 1293 460 b 1271 490 1288 481 1281 490 b 1242 472 1263 490 1253 483 b 1221 440 1235 464 1228 454 b 1196 379 1213 424 1203 404 b 1183 308 1188 347 1183 324 l 1183 306 b 1189 282 1183 297 1185 289 b 1197 276 1192 278 1194 276 b 1210 267 1203 275 1207 271 b 1219 257 1213 261 1215 257 b 1231 265 1224 257 1228 260 b 1274 365 1242 283 1256 317 l 1274 364 b 1274 360 1274 364 1274 363 b 1264 303 1268 340 1264 322 b 1269 256 1264 288 1265 272 b 1293 201 1274 233 1282 215 b 1356 172 1313 182 1332 172 b 1444 240 1389 172 1418 194 b 1467 293 1453 256 1460 274 b 1482 383 1478 329 1482 358 l 1482 389 b 1471 438 1482 408 1479 425 b 1431 458 1461 451 1449 458 b 1403 450 1421 458 1413 456 b 1379 429 1399 449 1390 440 b 1360 404 1371 419 1364 411 b 1338 340 1344 378 1338 357 l 1338 339 b 1342 317 1338 332 1339 324 b 1349 300 1344 313 1346 307 b 1374 261 1353 274 1361 261 b 1388 265 1378 261 1382 263 b 1385 268 1386 265 1386 267 b 1375 308 1378 279 1375 292 b 1399 407 1375 338 1383 371 b 1418 438 1407 428 1414 438 b 1426 425 1421 438 1424 433 b 1432 354 1431 403 1432 379 l 1432 349 b 1397 217 1432 292 1421 247 b 1383 203 1394 213 1389 207 b 1344 186 1368 192 1356 186 l 1342 186 b 1317 196 1333 186 1325 189 b 1294 272 1303 213 1294 238 b 1318 408 1294 308 1303 354 b 1338 493 1331 453 1338 481 b 1338 503 1338 497 1338 500 b 1331 508 1336 507 1333 508 z m 938 354 b 960 407 938 360 946 378 b 988 456 969 424 978 440 b 1004 478 993 465 999 474 b 992 432 999 458 996 443 b 974 392 986 415 981 401 b 956 365 969 382 964 374 b 939 354 949 360 943 356 z m 1215 310 b 1218 336 1215 314 1217 322 b 1232 388 1222 357 1226 374 b 1261 450 1240 411 1250 432 b 1274 467 1267 461 1272 467 l 1275 465 b 1283 443 1279 461 1281 453 l 1283 442 l 1250 365 b 1217 294 1233 329 1224 306 b 1215 306 1215 299 1215 303 z m 593 447 b 586 446 590 447 589 447 b 568 417 582 440 576 432 b 496 210 547 369 522 301 b 494 211 496 210 496 210 b 510 306 494 235 500 267 b 536 388 518 339 526 365 b 549 417 544 406 549 414 b 546 419 549 418 547 418 b 531 426 539 424 535 425 l 529 426 b 514 411 525 426 521 421 b 438 251 493 376 468 322 l 438 253 b 475 375 438 274 450 314 b 486 401 482 390 486 400 b 483 406 486 403 486 404 b 461 410 482 407 474 408 b 435 358 457 410 447 392 b 406 239 415 301 406 263 l 406 235 b 422 199 406 218 411 206 b 442 192 429 194 436 192 b 442 192 442 192 442 192 b 446 203 443 192 444 196 b 476 289 451 224 463 253 l 476 288 b 463 181 467 244 463 210 b 482 104 463 143 469 117 b 496 97 488 100 492 97 l 497 97 b 499 100 499 97 499 97 l 499 101 l 499 106 b 513 190 499 124 504 153 b 551 315 525 236 538 278 l 553 315 l 553 314 b 549 293 553 313 551 306 b 532 201 538 247 532 217 b 547 157 532 181 538 165 b 558 146 550 154 554 150 b 583 128 565 133 574 128 b 597 131 588 128 593 129 b 640 149 613 139 628 144 b 699 165 657 156 676 161 b 746 171 724 169 739 171 l 746 172 b 693 193 735 186 717 193 b 611 175 675 193 649 188 b 576 165 592 168 579 165 b 571 167 574 165 572 165 b 565 194 567 171 565 181 b 572 265 565 217 568 240 b 608 404 583 319 596 367 b 618 438 614 422 617 433 b 613 443 618 440 615 442 b 593 447 601 446 594 447 z m 356 415 l 354 415 b 344 408 353 415 350 414 b 328 393 339 406 333 400 b 306 349 325 390 318 375 b 288 372 303 364 296 372 l 286 372 b 256 354 278 372 268 367 b 232 322 246 344 238 333 b 204 264 221 306 213 286 b 188 193 193 232 188 207 l 188 189 b 192 169 188 181 189 175 b 199 164 193 167 196 165 b 211 154 204 163 208 160 b 221 144 214 147 217 144 b 235 156 225 144 231 147 b 269 222 244 172 256 194 b 279 240 275 233 278 240 l 279 239 b 271 138 274 190 271 157 l 271 131 b 283 83 271 113 275 97 b 326 60 294 68 308 60 b 338 63 333 60 338 61 b 336 65 338 64 338 64 b 310 186 318 100 310 139 l 310 194 b 338 328 310 233 318 278 b 363 401 354 367 363 392 l 363 406 b 356 415 361 413 360 415 z m 626 265 b 628 272 626 265 626 268 b 636 324 631 296 633 313 b 653 375 642 347 647 364 b 669 400 660 390 665 399 l 672 400 b 679 381 676 392 679 386 b 675 365 679 376 678 372 b 643 269 661 321 650 289 b 633 246 639 254 635 246 l 632 246 b 626 265 629 246 628 253 z m 219 189 b 224 218 219 200 221 210 b 235 256 224 222 228 235 b 276 336 246 288 261 314 b 289 349 282 344 286 349 b 290 347 289 349 289 349 b 296 328 293 339 296 333 b 293 318 296 325 294 321 b 231 199 275 285 256 246 b 219 182 226 192 224 186 b 219 189 219 182 219 185 z m 581 -114 b 568 -119 572 -117 568 -118 l 568 -239 b 569 -239 568 -239 568 -239 l 579 -239 b 581 -239 581 -239 581 -239 l 581 -115 z m 860 -114 b 849 -119 853 -117 849 -118 l 849 -239 b 849 -239 849 -239 849 -239 l 860 -239 b 860 -239 860 -239 860 -239 l 860 -194 l 864 -190 l 865 -190 b 899 -239 871 -201 882 -217 l 913 -239 l 874 -183 l 874 -182 b 904 -154 893 -164 904 -154 l 894 -154 l 860 -185 l 860 -115 z m 936 -114 b 924 -119 928 -117 924 -118 l 924 -239 b 924 -239 924 -239 924 -239 l 935 -239 b 936 -239 936 -239 936 -239 l 936 -179 b 936 -175 936 -178 936 -176 b 953 -160 939 -165 944 -160 b 961 -162 956 -160 960 -161 b 969 -192 967 -165 969 -176 l 969 -239 b 969 -239 969 -239 969 -239 l 982 -239 b 982 -239 982 -239 982 -239 l 982 -189 b 979 -172 982 -183 981 -178 b 956 -154 975 -160 968 -154 l 953 -154 b 936 -160 946 -154 940 -156 l 936 -115 z m 1086 -132 b 1075 -137 1078 -135 1075 -137 l 1075 -154 l 1063 -154 b 1063 -154 1063 -154 1063 -154 l 1063 -160 b 1063 -160 1063 -160 1063 -160 l 1075 -160 l 1075 -201 b 1081 -232 1075 -217 1076 -226 b 1103 -239 1082 -236 1090 -239 l 1110 -239 b 1113 -226 1110 -239 1111 -235 b 1100 -232 1107 -231 1103 -232 l 1097 -232 b 1092 -231 1096 -232 1093 -232 b 1086 -203 1088 -229 1086 -219 l 1086 -160 l 1101 -160 b 1101 -160 1101 -160 1101 -160 l 1101 -154 b 1101 -154 1101 -154 1101 -154 l 1086 -154 l 1086 -132 z m 1226 -153 b 1207 -160 1218 -153 1211 -156 l 1203 -156 b 1194 -160 1199 -157 1194 -158 b 1196 -171 1196 -162 1196 -167 l 1196 -281 l 1197 -281 b 1208 -275 1204 -276 1208 -275 l 1208 -235 b 1226 -240 1214 -237 1219 -240 b 1242 -236 1232 -240 1238 -239 b 1254 -199 1250 -232 1254 -219 l 1254 -194 b 1251 -168 1254 -182 1254 -174 b 1226 -153 1247 -158 1239 -153 z m 607 -153 b 594 -158 599 -156 594 -157 l 594 -239 b 596 -239 594 -239 594 -239 l 607 -239 b 607 -239 607 -239 607 -239 l 607 -179 b 608 -174 607 -178 607 -175 b 624 -160 610 -165 615 -160 b 635 -165 629 -160 633 -162 b 639 -203 638 -168 639 -181 l 639 -239 b 640 -239 639 -239 639 -239 l 651 -239 b 651 -239 651 -239 651 -239 l 651 -179 b 668 -160 653 -167 658 -160 b 679 -164 672 -160 676 -161 b 683 -194 682 -168 683 -178 l 683 -239 b 685 -239 683 -239 685 -239 l 696 -239 b 696 -239 696 -239 696 -239 l 696 -192 b 693 -168 696 -182 694 -175 b 671 -154 689 -158 682 -154 l 667 -154 b 656 -156 664 -154 660 -154 b 647 -165 651 -160 647 -162 b 647 -164 647 -164 647 -164 b 626 -154 643 -157 636 -154 l 622 -154 b 607 -158 617 -154 611 -156 l 607 -153 z m 794 -153 b 782 -158 786 -156 782 -157 l 782 -239 b 782 -239 782 -239 782 -239 l 793 -239 b 794 -239 794 -239 794 -239 l 794 -211 b 796 -182 794 -200 794 -190 b 815 -160 800 -168 806 -160 b 836 -168 822 -160 829 -162 b 831 -154 833 -158 832 -154 l 814 -154 b 808 -154 813 -154 810 -154 b 794 -164 800 -157 796 -160 l 794 -153 z m 1133 -153 b 1121 -158 1126 -156 1122 -157 l 1121 -200 b 1125 -224 1121 -210 1122 -218 b 1149 -239 1129 -235 1138 -239 l 1150 -239 b 1168 -233 1157 -239 1163 -237 l 1168 -236 b 1167 -253 1168 -242 1168 -247 b 1150 -272 1164 -267 1158 -272 l 1147 -272 b 1129 -265 1143 -272 1136 -269 b 1133 -279 1132 -275 1133 -279 l 1151 -279 b 1161 -276 1154 -279 1157 -279 b 1179 -237 1174 -272 1179 -258 l 1179 -153 b 1168 -158 1172 -156 1168 -157 l 1168 -211 b 1168 -217 1168 -212 1168 -214 b 1151 -232 1165 -226 1160 -232 l 1149 -232 b 1140 -229 1144 -232 1142 -231 b 1133 -196 1136 -225 1133 -214 l 1133 -153 z m 1517 -153 b 1504 -158 1508 -156 1504 -157 l 1504 -239 b 1506 -239 1504 -239 1504 -239 l 1517 -239 b 1517 -239 1517 -239 1517 -239 l 1517 -181 b 1518 -172 1517 -178 1517 -175 b 1533 -160 1521 -164 1525 -160 b 1543 -164 1538 -160 1540 -161 b 1549 -192 1547 -167 1549 -176 l 1549 -239 b 1550 -239 1549 -239 1549 -239 l 1561 -239 b 1561 -239 1561 -239 1561 -239 l 1561 -183 b 1563 -174 1561 -181 1561 -176 b 1578 -160 1565 -165 1569 -160 b 1589 -165 1583 -160 1588 -162 b 1594 -203 1592 -168 1594 -181 l 1594 -239 b 1594 -239 1594 -239 1594 -239 l 1606 -239 b 1606 -239 1606 -239 1606 -239 l 1606 -196 b 1604 -171 1606 -185 1606 -176 b 1581 -154 1600 -160 1593 -154 l 1576 -154 b 1564 -157 1572 -154 1568 -154 b 1557 -165 1560 -160 1557 -162 b 1557 -162 1557 -164 1557 -164 b 1536 -154 1551 -157 1546 -154 l 1532 -154 b 1517 -158 1526 -154 1521 -156 l 1517 -153 z m 1299 -153 b 1288 -154 1294 -153 1292 -153 b 1268 -189 1275 -158 1268 -171 l 1268 -204 b 1297 -239 1268 -228 1278 -239 l 1318 -239 b 1322 -225 1318 -239 1319 -233 b 1303 -232 1315 -229 1308 -232 l 1300 -232 b 1290 -231 1296 -232 1293 -232 b 1281 -204 1283 -228 1281 -219 l 1281 -203 b 1313 -196 1301 -199 1313 -196 b 1326 -193 1322 -194 1326 -193 l 1326 -190 b 1322 -168 1326 -182 1325 -174 b 1299 -153 1318 -158 1310 -153 z m 1461 -153 b 1447 -156 1456 -153 1450 -154 b 1431 -197 1436 -161 1431 -175 b 1461 -240 1431 -225 1440 -240 b 1490 -197 1481 -240 1490 -225 l 1490 -194 b 1489 -176 1490 -187 1490 -182 b 1461 -153 1485 -161 1476 -153 z m 108 -154 b 136 -232 108 -156 118 -182 b 139 -239 138 -236 138 -239 l 144 -239 b 161 -189 156 -208 161 -192 b 179 -239 174 -222 179 -239 l 185 -239 b 215 -154 204 -185 215 -157 l 208 -154 b 185 -218 200 -176 192 -199 b 161 -154 169 -175 161 -154 l 150 -154 l 149 -154 l 158 -179 l 144 -218 l 133 -187 b 121 -154 125 -165 121 -154 z m 228 -154 b 250 -217 242 -194 249 -217 b 258 -239 254 -231 257 -237 l 264 -239 b 281 -190 264 -237 269 -221 b 290 -215 282 -190 285 -200 b 299 -239 296 -231 299 -239 l 304 -239 l 335 -154 b 333 -154 335 -154 335 -154 l 328 -154 b 304 -218 319 -175 311 -197 b 290 -181 296 -196 292 -183 b 281 -154 285 -164 282 -156 l 268 -154 b 278 -179 268 -154 271 -162 b 275 -185 276 -183 275 -185 b 263 -218 267 -207 263 -218 b 246 -168 263 -217 257 -200 b 240 -154 242 -158 240 -154 z m 347 -154 b 374 -231 347 -156 357 -182 b 376 -239 376 -236 376 -239 l 382 -239 b 400 -189 383 -239 389 -222 b 414 -228 408 -215 414 -228 b 418 -239 417 -235 418 -239 l 424 -239 b 454 -154 444 -183 454 -154 l 447 -154 b 432 -194 446 -156 442 -169 b 424 -218 426 -211 424 -218 b 406 -168 413 -187 407 -171 b 400 -154 403 -158 400 -154 l 389 -154 l 388 -154 l 396 -179 l 382 -218 b 369 -185 375 -197 371 -186 b 360 -154 363 -164 360 -154 z m 503 -154 b 497 -168 501 -154 500 -158 b 500 -167 499 -168 499 -167 b 519 -160 504 -162 511 -160 b 533 -164 525 -160 531 -161 b 538 -176 536 -168 538 -172 b 511 -181 528 -176 519 -178 b 493 -210 500 -186 493 -194 l 493 -214 b 494 -222 493 -217 494 -219 b 517 -240 499 -233 506 -240 b 539 -232 526 -240 533 -237 b 543 -239 540 -235 542 -237 b 553 -239 544 -239 549 -239 l 554 -239 b 550 -226 551 -236 550 -232 l 550 -192 b 550 -176 550 -186 550 -181 b 522 -154 547 -161 538 -154 z m 718 -154 b 714 -168 718 -154 717 -158 b 715 -167 714 -168 715 -168 b 736 -160 721 -162 728 -160 b 750 -164 743 -160 747 -161 b 754 -176 753 -168 754 -172 b 726 -182 743 -176 733 -178 b 710 -211 715 -186 710 -196 l 710 -212 b 711 -224 710 -215 710 -219 b 733 -240 715 -235 722 -240 b 756 -231 742 -240 750 -236 b 760 -239 757 -236 758 -239 b 769 -239 761 -239 764 -239 b 767 -225 768 -236 767 -232 l 767 -190 b 764 -168 767 -182 765 -174 b 739 -154 758 -158 751 -154 z m 1004 -154 b 1000 -168 1004 -154 1003 -158 b 1000 -168 1000 -168 1000 -168 b 1022 -160 1007 -162 1014 -160 b 1036 -165 1028 -160 1033 -161 b 1040 -176 1038 -167 1039 -171 l 1039 -176 b 1011 -182 1028 -176 1018 -179 b 996 -211 1000 -187 996 -197 b 997 -224 996 -217 996 -221 b 1019 -240 1001 -235 1008 -240 b 1042 -231 1028 -240 1035 -236 b 1044 -239 1042 -233 1042 -236 b 1056 -239 1046 -239 1050 -239 b 1053 -229 1054 -235 1053 -232 l 1053 -199 b 1050 -172 1053 -186 1053 -176 b 1025 -154 1046 -160 1038 -154 z m 1394 -154 b 1381 -157 1389 -154 1385 -154 b 1365 -196 1371 -162 1365 -175 b 1369 -222 1365 -207 1367 -215 b 1396 -239 1374 -233 1382 -239 l 1415 -239 b 1419 -225 1417 -239 1418 -235 b 1401 -232 1413 -229 1407 -232 l 1397 -232 b 1385 -228 1390 -232 1386 -231 b 1379 -197 1381 -226 1379 -215 b 1382 -167 1379 -181 1381 -169 b 1400 -160 1385 -162 1390 -160 b 1419 -168 1406 -160 1413 -162 b 1415 -154 1418 -158 1417 -154 z m 1208 -179 b 1210 -172 1208 -178 1208 -175 b 1225 -160 1211 -164 1217 -160 l 1226 -160 b 1236 -162 1229 -160 1233 -161 b 1243 -192 1240 -167 1243 -176 b 1239 -225 1243 -207 1242 -218 b 1226 -233 1238 -231 1232 -233 b 1218 -232 1224 -233 1221 -232 b 1208 -214 1211 -228 1208 -222 z m 1281 -192 b 1283 -169 1281 -183 1281 -175 b 1297 -160 1286 -162 1290 -160 b 1303 -161 1299 -160 1300 -160 b 1314 -187 1311 -165 1314 -174 l 1314 -189 l 1281 -194 z m 1443 -194 b 1447 -171 1443 -183 1444 -175 b 1461 -160 1449 -162 1454 -160 b 1469 -162 1464 -160 1467 -161 b 1478 -194 1475 -167 1478 -176 l 1478 -199 b 1475 -222 1478 -208 1476 -217 b 1461 -233 1472 -229 1468 -233 b 1451 -231 1457 -233 1454 -232 b 1443 -199 1446 -226 1443 -217 z m 506 -210 b 510 -192 506 -203 507 -197 b 539 -183 515 -186 525 -183 b 539 -189 539 -186 539 -187 l 539 -221 b 521 -231 535 -228 528 -231 b 506 -210 510 -231 506 -224 z m 722 -208 b 726 -193 722 -203 724 -197 b 754 -183 731 -187 740 -183 l 754 -185 l 754 -221 b 736 -231 751 -228 744 -231 l 733 -231 b 722 -211 725 -229 722 -222 z m 1007 -211 b 1010 -196 1007 -204 1008 -200 b 1040 -183 1014 -187 1025 -183 l 1040 -221 b 1022 -231 1036 -228 1031 -231 b 1007 -211 1013 -231 1007 -224 z m 475 -224 l 474 -224 b 467 -231 468 -225 467 -228 l 467 -233 b 474 -239 468 -237 471 -239 b 476 -239 475 -239 476 -239 b 482 -232 479 -237 482 -235 l 482 -231 b 475 -224 481 -226 478 -224 z m 1347 -224 l 1346 -224 b 1339 -232 1342 -225 1339 -228 b 1339 -233 1339 -232 1339 -232 b 1346 -239 1340 -237 1343 -239 l 1349 -239 b 1354 -232 1353 -237 1354 -235 b 1354 -229 1354 -232 1354 -231 b 1347 -224 1351 -225 1350 -224 z "},"\u0000":{"ha":0,"x_min":0,"x_max":0,"o":""}," ":{"ha":414,"x_min":0,"x_max":0,"o":""},"!":{"ha":1685,"x_min":0,"x_max":0,"o":"m 522 925 b 501 919 514 925 507 924 b 478 849 486 911 478 888 l 478 842 b 482 801 478 828 479 814 b 521 765 488 778 501 765 b 539 769 528 765 535 767 b 565 840 557 778 565 801 l 565 850 b 560 896 565 868 564 883 b 522 925 554 915 542 925 z m 1304 925 b 1286 921 1297 925 1290 924 b 1261 846 1269 913 1261 888 b 1265 799 1261 826 1263 811 b 1304 765 1272 776 1285 765 b 1324 769 1313 765 1318 767 b 1349 844 1340 778 1349 803 b 1343 893 1349 865 1347 882 b 1304 925 1338 914 1325 925 z m 101 922 b 101 922 101 922 101 922 l 101 768 b 101 768 101 768 101 768 l 115 768 b 115 768 115 768 115 768 l 115 838 l 143 838 b 171 842 156 838 165 839 b 189 879 183 847 189 860 b 186 901 189 888 188 896 b 147 922 181 915 168 922 z m 206 922 b 206 922 206 922 206 922 l 206 768 b 206 768 206 768 206 768 l 276 768 b 279 776 276 768 278 771 l 221 776 l 221 844 l 264 844 b 264 846 264 844 264 846 l 264 853 b 264 854 264 854 264 854 l 221 854 l 221 914 b 221 914 221 914 221 914 l 275 914 b 272 922 274 919 272 922 z m 299 922 b 299 922 299 922 299 922 l 299 768 b 299 768 299 768 299 768 l 313 768 b 313 768 313 768 313 768 l 313 840 l 346 840 b 369 788 351 840 360 824 b 375 768 372 775 374 768 l 389 768 l 390 768 b 361 843 379 808 369 833 b 365 844 363 843 364 844 b 383 882 378 849 383 861 b 381 901 383 889 383 896 b 343 922 376 915 363 922 z m 440 922 b 431 921 438 922 435 922 b 413 893 419 915 413 907 l 413 889 b 425 850 413 879 417 867 b 443 801 438 829 443 813 b 443 794 443 799 443 796 b 425 776 440 782 435 776 l 424 776 b 410 785 419 776 415 779 l 408 785 b 414 768 411 774 413 768 l 425 768 b 439 771 431 768 435 768 b 458 803 451 776 458 788 b 443 850 458 817 453 832 b 428 894 433 868 428 883 l 428 897 b 443 914 428 908 433 914 b 458 907 447 914 451 911 b 458 908 458 908 458 908 b 454 922 457 918 456 922 z m 586 922 b 585 922 585 922 585 922 l 585 768 b 586 768 585 768 585 768 l 593 768 b 593 768 593 768 593 768 l 593 899 b 607 868 601 881 607 871 b 654 768 636 804 653 769 l 665 768 b 665 768 665 768 665 768 l 665 922 b 665 922 665 922 665 922 l 657 922 b 657 922 657 922 657 922 l 657 797 l 656 797 b 599 922 619 878 601 919 z m 732 922 l 725 922 b 681 768 724 918 708 867 b 681 768 681 768 681 768 l 689 768 b 703 814 690 771 694 786 l 749 814 b 758 779 754 793 758 782 b 763 768 761 772 763 768 l 778 768 b 738 903 776 772 764 818 b 732 922 735 915 733 922 z m 797 922 b 797 922 797 922 797 922 l 797 768 b 797 768 797 768 797 768 l 868 768 b 869 776 868 768 869 771 l 811 776 l 811 922 b 811 922 811 922 811 922 z m 943 922 b 943 922 943 922 943 922 l 943 844 b 951 785 943 815 946 796 b 986 765 957 772 969 765 b 1006 769 994 765 1000 767 b 1019 788 1011 772 1015 779 b 1025 854 1022 794 1025 817 l 1025 922 b 1025 922 1025 922 1025 922 l 1015 922 b 1015 922 1015 922 1015 922 l 1015 833 b 1011 788 1015 810 1014 796 b 988 774 1007 779 999 774 b 967 783 976 774 969 778 b 958 836 961 789 958 807 l 958 922 b 958 922 958 922 958 922 z m 1074 922 b 1064 921 1071 922 1068 922 b 1044 892 1051 917 1044 907 b 1058 849 1044 879 1050 865 b 1075 803 1069 829 1075 814 l 1075 801 b 1075 801 1075 801 1075 801 b 1075 800 1075 800 1075 800 l 1075 797 b 1057 776 1074 783 1068 776 l 1056 776 b 1042 785 1053 776 1047 779 b 1046 768 1044 774 1046 768 l 1057 768 b 1071 771 1063 768 1067 768 b 1090 803 1085 776 1090 788 b 1075 850 1090 815 1085 832 b 1060 896 1065 868 1060 883 b 1075 914 1060 908 1065 914 b 1092 907 1079 914 1085 911 b 1092 908 1092 908 1092 908 b 1088 922 1089 918 1088 922 z m 1115 922 b 1114 922 1115 922 1114 922 l 1114 768 b 1115 768 1114 768 1114 768 l 1186 768 b 1188 776 1186 768 1186 771 b 1188 776 1188 776 1188 776 l 1129 776 l 1129 844 l 1172 844 b 1174 846 1172 844 1174 846 l 1174 853 b 1172 854 1174 854 1172 854 l 1129 854 l 1129 914 l 1183 914 b 1181 922 1182 919 1182 922 z m 1368 922 b 1368 922 1368 922 1368 922 l 1368 768 b 1368 768 1368 768 1368 768 l 1375 768 b 1376 768 1376 768 1376 768 l 1376 899 b 1426 789 1408 828 1425 792 b 1436 768 1432 775 1436 768 l 1447 768 b 1447 768 1447 768 1447 768 l 1447 922 b 1447 922 1447 922 1447 922 l 1440 922 b 1439 922 1440 922 1439 922 l 1439 797 b 1389 907 1408 865 1392 901 b 1382 922 1385 917 1382 922 z m 1468 922 b 1467 922 1468 922 1468 922 l 1467 768 b 1468 768 1467 768 1468 768 l 1538 768 b 1540 776 1539 768 1539 771 l 1482 776 l 1482 922 b 1482 922 1482 922 1482 922 z m 1522 922 b 1560 846 1547 872 1560 847 l 1560 768 b 1561 768 1560 768 1560 768 l 1575 768 b 1575 768 1575 768 1575 768 l 1575 847 b 1613 922 1600 897 1613 922 l 1603 922 b 1571 857 1583 883 1574 861 b 1538 922 1549 900 1538 922 z m 493 846 b 497 897 493 871 494 889 b 521 917 501 910 508 917 l 522 917 b 543 906 532 917 539 913 b 550 846 549 899 550 879 b 544 789 550 815 549 796 b 522 774 542 779 533 774 b 500 788 511 774 504 779 b 493 846 496 794 493 814 z m 1276 851 b 1282 901 1276 876 1278 893 b 1304 917 1286 911 1293 917 l 1306 917 b 1324 908 1314 917 1319 914 b 1333 851 1331 903 1333 883 l 1333 839 b 1329 790 1333 815 1332 800 b 1306 774 1325 779 1317 774 b 1285 783 1296 774 1289 778 b 1276 839 1279 790 1276 808 z m 115 914 l 140 914 b 161 911 151 914 160 913 b 172 879 168 907 172 897 b 168 856 172 868 171 860 b 146 846 165 849 157 846 l 115 846 z m 313 914 l 336 914 b 358 910 347 914 354 913 b 367 882 364 907 367 897 b 361 857 367 868 365 860 b 336 850 358 851 350 850 l 313 850 z m 725 893 b 746 822 726 890 733 867 l 706 822 b 725 893 719 869 725 893 z m 1140 674 b 1132 667 1139 672 1136 671 b 1124 647 1131 665 1128 658 b 1060 456 1099 582 1076 518 b 1043 385 1051 428 1046 404 b 1032 361 1042 378 1039 369 b 1007 326 1026 350 1018 339 b 971 303 992 310 981 303 l 969 303 b 957 307 965 303 961 304 b 944 322 949 315 944 319 b 949 325 944 324 946 325 b 968 335 956 328 963 331 b 992 357 974 338 982 346 b 1013 390 1000 369 1007 381 b 1033 474 1026 424 1033 451 l 1033 475 b 1032 492 1033 481 1033 486 b 1006 513 1026 506 1018 513 b 971 489 994 513 983 504 b 901 335 949 456 925 406 b 904 358 901 340 903 349 b 924 440 910 390 917 418 b 983 601 942 500 961 553 b 993 622 990 614 993 621 b 990 625 992 624 992 625 b 982 642 988 629 985 635 b 971 660 979 654 976 660 l 969 660 b 965 658 969 660 968 660 b 942 647 960 650 953 647 b 896 644 939 646 922 644 b 794 639 856 644 821 643 b 760 633 788 639 775 638 b 711 576 728 624 711 606 b 713 567 711 575 711 571 b 719 544 714 557 717 550 b 728 558 722 549 724 554 l 735 568 b 769 590 746 578 757 585 b 910 610 806 603 853 610 l 939 610 b 942 608 940 610 942 610 b 894 463 922 554 907 506 b 854 243 867 367 854 293 l 854 233 b 857 210 854 222 854 214 b 874 193 860 203 865 197 b 886 186 881 188 885 186 b 897 211 889 186 893 194 b 917 301 904 254 911 285 b 921 311 918 308 919 311 l 922 308 b 940 285 928 300 935 292 b 964 271 947 275 956 271 b 1000 285 975 271 986 275 b 1028 306 1010 290 1018 297 b 1025 246 1026 282 1025 261 l 1025 243 b 1026 225 1025 233 1025 226 b 1039 215 1028 221 1032 218 b 1049 208 1044 211 1047 208 l 1050 208 b 1058 222 1051 208 1056 214 b 1082 286 1064 240 1071 261 b 1149 429 1097 324 1119 372 b 1144 414 1147 426 1147 421 b 1122 286 1131 361 1122 318 l 1122 282 b 1128 249 1122 269 1125 258 b 1201 196 1142 214 1167 196 b 1233 201 1213 196 1224 197 b 1249 217 1240 204 1244 208 b 1204 229 1233 217 1218 221 b 1163 306 1176 249 1163 274 l 1163 311 b 1200 450 1163 354 1175 401 b 1210 474 1207 463 1210 471 l 1210 475 b 1194 483 1208 481 1203 483 l 1186 483 b 1178 485 1186 483 1183 485 l 1176 485 b 1129 450 1161 485 1146 474 b 1075 346 1113 428 1094 393 b 1069 333 1072 338 1071 333 b 1072 363 1069 336 1071 346 b 1092 449 1079 396 1085 424 b 1154 614 1111 511 1132 567 b 1164 636 1161 628 1164 635 b 1163 639 1164 636 1164 638 b 1151 664 1157 646 1154 654 b 1144 674 1150 668 1147 672 z m 1371 672 b 1356 668 1363 669 1358 668 b 1349 663 1351 667 1349 665 b 1343 647 1347 660 1346 654 b 1340 640 1342 643 1342 640 b 1322 636 1340 639 1335 638 b 1292 617 1303 633 1292 626 b 1292 613 1292 615 1292 614 b 1301 603 1294 607 1297 604 l 1301 604 b 1311 617 1304 608 1307 613 b 1333 625 1318 622 1325 625 l 1335 625 b 1335 624 1335 625 1335 625 b 1321 583 1331 610 1326 596 b 1311 549 1314 567 1311 556 b 1313 538 1311 544 1311 542 b 1325 522 1318 528 1322 522 b 1344 539 1329 522 1335 528 l 1344 536 b 1354 522 1347 528 1351 522 b 1361 526 1356 522 1358 524 b 1382 554 1367 533 1374 543 b 1369 524 1379 549 1375 538 b 1353 472 1358 499 1353 481 b 1354 463 1353 469 1353 467 b 1367 450 1357 457 1361 451 b 1365 460 1367 451 1365 456 b 1376 507 1365 468 1369 483 b 1413 593 1388 536 1400 564 b 1406 597 1413 594 1410 596 b 1397 593 1403 597 1401 596 b 1368 554 1394 589 1385 576 b 1360 546 1365 549 1363 546 b 1365 561 1361 551 1363 556 b 1381 590 1374 575 1378 585 b 1363 578 1372 588 1365 583 b 1339 551 1357 569 1349 561 b 1329 544 1333 546 1331 544 b 1325 549 1328 544 1326 546 b 1329 560 1325 549 1326 553 b 1354 625 1335 578 1343 600 b 1360 628 1356 628 1357 628 l 1363 628 b 1385 629 1369 628 1378 629 b 1436 624 1403 629 1419 626 b 1456 617 1447 621 1453 618 b 1457 619 1457 617 1457 618 b 1443 631 1457 622 1453 626 b 1372 640 1419 638 1396 640 l 1365 640 b 1363 642 1364 640 1363 640 l 1363 643 b 1374 669 1369 660 1374 668 l 1374 671 b 1371 672 1374 672 1372 672 z m 596 619 b 554 607 583 619 569 615 b 525 588 546 603 536 596 b 472 535 513 578 494 561 b 429 476 456 514 442 494 b 419 467 426 469 422 467 b 407 467 413 467 408 467 b 308 471 358 469 326 471 b 232 463 272 471 247 468 b 193 408 206 453 193 435 b 199 379 193 400 194 390 b 208 394 203 386 206 390 b 347 433 231 421 278 433 b 403 432 383 433 401 433 b 390 407 403 431 399 422 b 358 329 379 385 369 358 b 333 178 342 274 333 224 b 379 40 333 122 349 76 b 517 -17 413 1 458 -17 l 525 -17 b 685 13 565 -17 618 -7 b 829 60 719 24 768 40 b 1147 125 957 103 1063 125 l 1149 125 b 1336 71 1233 125 1296 107 l 1338 71 l 1338 72 b 1315 107 1338 81 1329 92 b 1292 128 1307 115 1299 122 b 1257 147 1279 136 1268 143 b 1135 171 1221 163 1181 171 l 1133 171 b 1024 157 1101 171 1065 167 b 882 118 975 146 928 133 l 731 71 b 517 26 636 42 564 26 l 515 26 b 428 57 485 26 456 38 b 371 178 390 88 371 128 b 385 272 371 203 376 233 b 419 385 394 313 406 350 b 439 431 431 411 436 426 b 457 433 439 431 444 432 b 490 442 472 436 483 439 b 521 454 492 442 503 446 b 607 544 563 475 590 504 b 619 594 613 558 617 575 l 619 599 b 618 603 619 600 619 601 b 596 619 615 614 608 619 z m 1481 600 b 1481 599 1481 600 1481 600 b 1483 575 1483 589 1483 581 b 1479 553 1483 567 1482 560 b 1465 539 1475 544 1469 540 l 1464 539 b 1461 543 1463 539 1463 540 b 1461 546 1461 544 1461 544 b 1478 575 1472 554 1478 564 l 1478 578 b 1469 589 1478 585 1475 589 l 1468 589 b 1463 586 1467 589 1465 588 b 1451 546 1456 574 1451 560 b 1451 540 1451 544 1451 543 b 1465 531 1456 533 1461 531 l 1469 531 b 1479 535 1472 531 1476 532 b 1494 569 1490 546 1494 557 b 1493 578 1494 572 1494 575 b 1481 600 1492 593 1488 600 z m 1422 593 b 1419 592 1422 593 1421 593 b 1407 564 1418 589 1414 579 b 1372 464 1385 508 1374 475 l 1372 463 b 1378 453 1372 460 1374 456 l 1379 453 b 1382 457 1379 453 1381 454 b 1414 525 1388 474 1399 496 b 1419 536 1418 532 1419 536 b 1421 536 1421 536 1421 536 b 1432 531 1425 533 1429 531 l 1433 531 b 1440 533 1435 531 1438 532 b 1447 563 1444 539 1447 549 l 1447 567 b 1439 590 1447 583 1444 590 b 1438 590 1439 590 1439 590 l 1424 565 b 1410 539 1415 549 1411 540 b 1425 575 1414 553 1419 564 b 1432 588 1429 582 1432 588 b 1424 593 1432 590 1429 592 z m 457 468 l 457 469 b 476 496 463 478 468 486 b 521 542 486 507 501 522 b 588 589 546 561 568 578 b 586 582 588 585 586 582 b 576 549 586 575 582 564 b 563 524 572 542 568 533 b 533 494 556 515 546 506 b 464 468 508 478 486 468 z m 1469 575 l 1471 575 b 1464 558 1471 569 1468 564 b 1464 560 1464 558 1464 560 b 1469 575 1464 564 1467 569 z m 1436 568 l 1438 568 b 1438 564 1438 568 1438 567 l 1438 558 b 1435 546 1438 554 1438 550 b 1422 540 1433 543 1429 540 b 1436 568 1431 556 1435 564 z m 746 519 b 735 517 742 519 738 518 b 715 489 722 511 715 501 b 743 453 715 472 725 460 b 749 449 746 451 749 450 b 753 415 751 435 753 424 l 753 406 b 732 288 753 371 746 331 b 717 256 726 269 721 258 b 713 261 715 256 714 257 b 704 304 707 272 704 286 l 704 311 b 717 385 704 333 708 358 b 729 415 721 397 725 407 b 738 428 735 424 738 428 l 738 429 l 736 429 b 722 433 732 432 726 433 b 708 428 717 433 713 432 b 693 406 703 422 697 414 b 672 432 689 424 682 432 b 636 400 663 432 650 422 b 613 351 626 386 619 369 b 599 269 603 321 599 293 b 601 244 599 261 599 253 b 614 228 604 236 608 231 b 624 224 619 226 622 225 b 633 215 628 218 631 215 l 635 215 b 644 224 638 215 640 218 b 681 321 656 239 667 271 l 681 315 b 685 257 681 286 682 267 b 700 239 689 247 693 242 b 711 229 703 238 707 235 b 725 218 717 222 721 218 b 767 292 739 218 753 243 b 782 417 776 340 782 382 b 782 440 782 426 782 435 b 783 443 782 443 782 443 b 842 461 807 449 826 456 b 842 461 842 461 842 461 b 835 449 839 457 836 453 b 813 356 829 428 822 397 b 783 203 793 271 783 219 l 783 199 b 796 165 783 188 788 176 b 839 144 807 151 822 144 l 842 144 b 844 146 843 144 843 144 l 844 147 b 826 229 832 174 826 201 b 872 460 826 279 842 356 b 879 488 878 475 879 485 l 879 492 b 865 504 876 500 871 504 b 853 497 861 504 857 501 b 842 489 847 492 843 489 b 822 481 840 488 835 486 b 781 469 806 476 792 472 b 776 476 779 469 778 472 b 768 501 775 486 772 494 b 746 519 764 513 756 519 z m 1329 508 b 1317 497 1326 508 1322 504 b 1310 492 1313 494 1310 493 b 1293 460 1307 492 1303 481 b 1293 460 1293 460 1293 460 b 1271 490 1288 481 1281 490 b 1242 472 1263 490 1253 483 b 1221 440 1235 464 1228 454 b 1196 379 1213 424 1203 404 b 1183 308 1188 347 1183 324 l 1183 306 b 1189 282 1183 297 1185 289 b 1197 276 1192 278 1194 276 b 1210 267 1203 275 1207 271 b 1219 257 1213 261 1215 257 b 1231 265 1224 257 1228 260 b 1274 365 1242 283 1256 317 l 1274 364 b 1274 360 1274 364 1274 363 b 1264 303 1268 340 1264 322 b 1269 256 1264 288 1265 272 b 1293 201 1274 233 1282 215 b 1356 172 1313 182 1332 172 b 1444 240 1389 172 1418 194 b 1467 293 1453 256 1460 274 b 1482 383 1478 329 1482 358 l 1482 389 b 1471 438 1482 408 1479 425 b 1431 458 1461 451 1449 458 b 1403 450 1421 458 1413 456 b 1379 429 1399 449 1390 440 b 1360 404 1371 419 1364 411 b 1338 340 1344 378 1338 357 l 1338 339 b 1342 317 1338 332 1339 324 b 1349 300 1344 313 1346 307 b 1374 261 1353 274 1361 261 b 1388 265 1378 261 1382 263 b 1385 268 1386 265 1386 267 b 1375 308 1378 279 1375 292 b 1399 407 1375 338 1383 371 b 1418 438 1407 428 1414 438 b 1426 425 1421 438 1424 433 b 1432 354 1431 403 1432 379 l 1432 349 b 1397 217 1432 292 1421 247 b 1383 203 1394 213 1389 207 b 1344 186 1368 192 1356 186 l 1342 186 b 1317 196 1333 186 1325 189 b 1294 272 1303 213 1294 238 b 1318 408 1294 308 1303 354 b 1338 493 1331 453 1338 481 b 1338 503 1338 497 1338 500 b 1331 508 1336 507 1333 508 z m 938 354 b 960 407 938 360 946 378 b 988 456 969 424 978 440 b 1004 478 993 465 999 474 b 992 432 999 458 996 443 b 974 392 986 415 981 401 b 956 365 969 382 964 374 b 939 354 949 360 943 356 z m 1215 310 b 1218 336 1215 314 1217 322 b 1232 388 1222 357 1226 374 b 1261 450 1240 411 1250 432 b 1274 467 1267 461 1272 467 l 1275 465 b 1283 443 1279 461 1281 453 l 1283 442 l 1250 365 b 1217 294 1233 329 1224 306 b 1215 306 1215 299 1215 303 z m 593 447 b 586 446 590 447 589 447 b 568 417 582 440 576 432 b 496 210 547 369 522 301 b 494 211 496 210 496 210 b 510 306 494 235 500 267 b 536 388 518 339 526 365 b 549 417 544 406 549 414 b 546 419 549 418 547 418 b 531 426 539 424 535 425 l 529 426 b 514 411 525 426 521 421 b 438 251 493 376 468 322 l 438 253 b 475 375 438 274 450 314 b 486 401 482 390 486 400 b 483 406 486 403 486 404 b 461 410 482 407 474 408 b 435 358 457 410 447 392 b 406 239 415 301 406 263 l 406 235 b 422 199 406 218 411 206 b 442 192 429 194 436 192 b 442 192 442 192 442 192 b 446 203 443 192 444 196 b 476 289 451 224 463 253 l 476 288 b 463 181 467 244 463 210 b 482 104 463 143 469 117 b 496 97 488 100 492 97 l 497 97 b 499 100 499 97 499 97 l 499 101 l 499 106 b 513 190 499 124 504 153 b 551 315 525 236 538 278 l 553 315 l 553 314 b 549 293 553 313 551 306 b 532 201 538 247 532 217 b 547 157 532 181 538 165 b 558 146 550 154 554 150 b 583 128 565 133 574 128 b 597 131 588 128 593 129 b 640 149 613 139 628 144 b 699 165 657 156 676 161 b 746 171 724 169 739 171 l 746 172 b 693 193 735 186 717 193 b 611 175 675 193 649 188 b 576 165 592 168 579 165 b 571 167 574 165 572 165 b 565 194 567 171 565 181 b 572 265 565 217 568 240 b 608 404 583 319 596 367 b 618 438 614 422 617 433 b 613 443 618 440 615 442 b 593 447 601 446 594 447 z m 356 415 l 354 415 b 344 408 353 415 350 414 b 328 393 339 406 333 400 b 306 349 325 390 318 375 b 288 372 303 364 296 372 l 286 372 b 256 354 278 372 268 367 b 232 322 246 344 238 333 b 204 264 221 306 213 286 b 188 193 193 232 188 207 l 188 189 b 192 169 188 181 189 175 b 199 164 193 167 196 165 b 211 154 204 163 208 160 b 221 144 214 147 217 144 b 235 156 225 144 231 147 b 269 222 244 172 256 194 b 279 240 275 233 278 240 l 279 239 b 271 138 274 190 271 157 l 271 131 b 283 83 271 113 275 97 b 326 60 294 68 308 60 b 338 63 333 60 338 61 b 336 65 338 64 338 64 b 310 186 318 100 310 139 l 310 194 b 338 328 310 233 318 278 b 363 401 354 367 363 392 l 363 406 b 356 415 361 413 360 415 z m 626 265 b 628 272 626 265 626 268 b 636 324 631 296 633 313 b 653 375 642 347 647 364 b 669 400 660 390 665 399 l 672 400 b 679 381 676 392 679 386 b 675 365 679 376 678 372 b 643 269 661 321 650 289 b 633 246 639 254 635 246 l 632 246 b 626 265 629 246 628 253 z m 219 189 b 224 218 219 200 221 210 b 235 256 224 222 228 235 b 276 336 246 288 261 314 b 289 349 282 344 286 349 b 290 347 289 349 289 349 b 296 328 293 339 296 333 b 293 318 296 325 294 321 b 231 199 275 285 256 246 b 219 182 226 192 224 186 b 219 189 219 182 219 185 z m 581 -114 b 568 -119 572 -117 568 -118 l 568 -239 b 569 -239 568 -239 568 -239 l 579 -239 b 581 -239 581 -239 581 -239 l 581 -115 z m 860 -114 b 849 -119 853 -117 849 -118 l 849 -239 b 849 -239 849 -239 849 -239 l 860 -239 b 860 -239 860 -239 860 -239 l 860 -194 l 864 -190 l 865 -190 b 899 -239 871 -201 882 -217 l 913 -239 l 874 -183 l 874 -182 b 904 -154 893 -164 904 -154 l 894 -154 l 860 -185 l 860 -115 z m 936 -114 b 924 -119 928 -117 924 -118 l 924 -239 b 924 -239 924 -239 924 -239 l 935 -239 b 936 -239 936 -239 936 -239 l 936 -179 b 936 -175 936 -178 936 -176 b 953 -160 939 -165 944 -160 b 961 -162 956 -160 960 -161 b 969 -192 967 -165 969 -176 l 969 -239 b 969 -239 969 -239 969 -239 l 982 -239 b 982 -239 982 -239 982 -239 l 982 -189 b 979 -172 982 -183 981 -178 b 956 -154 975 -160 968 -154 l 953 -154 b 936 -160 946 -154 940 -156 l 936 -115 z m 1086 -132 b 1075 -137 1078 -135 1075 -137 l 1075 -154 l 1063 -154 b 1063 -154 1063 -154 1063 -154 l 1063 -160 b 1063 -160 1063 -160 1063 -160 l 1075 -160 l 1075 -201 b 1081 -232 1075 -217 1076 -226 b 1103 -239 1082 -236 1090 -239 l 1110 -239 b 1113 -226 1110 -239 1111 -235 b 1100 -232 1107 -231 1103 -232 l 1097 -232 b 1092 -231 1096 -232 1093 -232 b 1086 -203 1088 -229 1086 -219 l 1086 -160 l 1101 -160 b 1101 -160 1101 -160 1101 -160 l 1101 -154 b 1101 -154 1101 -154 1101 -154 l 1086 -154 l 1086 -132 z m 1226 -153 b 1207 -160 1218 -153 1211 -156 l 1203 -156 b 1194 -160 1199 -157 1194 -158 b 1196 -171 1196 -162 1196 -167 l 1196 -281 l 1197 -281 b 1208 -275 1204 -276 1208 -275 l 1208 -235 b 1226 -240 1214 -237 1219 -240 b 1242 -236 1232 -240 1238 -239 b 1254 -199 1250 -232 1254 -219 l 1254 -194 b 1251 -168 1254 -182 1254 -174 b 1226 -153 1247 -158 1239 -153 z m 607 -153 b 594 -158 599 -156 594 -157 l 594 -239 b 596 -239 594 -239 594 -239 l 607 -239 b 607 -239 607 -239 607 -239 l 607 -179 b 608 -174 607 -178 607 -175 b 624 -160 610 -165 615 -160 b 635 -165 629 -160 633 -162 b 639 -203 638 -168 639 -181 l 639 -239 b 640 -239 639 -239 639 -239 l 651 -239 b 651 -239 651 -239 651 -239 l 651 -179 b 668 -160 653 -167 658 -160 b 679 -164 672 -160 676 -161 b 683 -194 682 -168 683 -178 l 683 -239 b 685 -239 683 -239 685 -239 l 696 -239 b 696 -239 696 -239 696 -239 l 696 -192 b 693 -168 696 -182 694 -175 b 671 -154 689 -158 682 -154 l 667 -154 b 656 -156 664 -154 660 -154 b 647 -165 651 -160 647 -162 b 647 -164 647 -164 647 -164 b 626 -154 643 -157 636 -154 l 622 -154 b 607 -158 617 -154 611 -156 l 607 -153 z m 794 -153 b 782 -158 786 -156 782 -157 l 782 -239 b 782 -239 782 -239 782 -239 l 793 -239 b 794 -239 794 -239 794 -239 l 794 -211 b 796 -182 794 -200 794 -190 b 815 -160 800 -168 806 -160 b 836 -168 822 -160 829 -162 b 831 -154 833 -158 832 -154 l 814 -154 b 808 -154 813 -154 810 -154 b 794 -164 800 -157 796 -160 l 794 -153 z m 1133 -153 b 1121 -158 1126 -156 1122 -157 l 1121 -200 b 1125 -224 1121 -210 1122 -218 b 1149 -239 1129 -235 1138 -239 l 1150 -239 b 1168 -233 1157 -239 1163 -237 l 1168 -236 b 1167 -253 1168 -242 1168 -247 b 1150 -272 1164 -267 1158 -272 l 1147 -272 b 1129 -265 1143 -272 1136 -269 b 1133 -279 1132 -275 1133 -279 l 1151 -279 b 1161 -276 1154 -279 1157 -279 b 1179 -237 1174 -272 1179 -258 l 1179 -153 b 1168 -158 1172 -156 1168 -157 l 1168 -211 b 1168 -217 1168 -212 1168 -214 b 1151 -232 1165 -226 1160 -232 l 1149 -232 b 1140 -229 1144 -232 1142 -231 b 1133 -196 1136 -225 1133 -214 l 1133 -153 z m 1517 -153 b 1504 -158 1508 -156 1504 -157 l 1504 -239 b 1506 -239 1504 -239 1504 -239 l 1517 -239 b 1517 -239 1517 -239 1517 -239 l 1517 -181 b 1518 -172 1517 -178 1517 -175 b 1533 -160 1521 -164 1525 -160 b 1543 -164 1538 -160 1540 -161 b 1549 -192 1547 -167 1549 -176 l 1549 -239 b 1550 -239 1549 -239 1549 -239 l 1561 -239 b 1561 -239 1561 -239 1561 -239 l 1561 -183 b 1563 -174 1561 -181 1561 -176 b 1578 -160 1565 -165 1569 -160 b 1589 -165 1583 -160 1588 -162 b 1594 -203 1592 -168 1594 -181 l 1594 -239 b 1594 -239 1594 -239 1594 -239 l 1606 -239 b 1606 -239 1606 -239 1606 -239 l 1606 -196 b 1604 -171 1606 -185 1606 -176 b 1581 -154 1600 -160 1593 -154 l 1576 -154 b 1564 -157 1572 -154 1568 -154 b 1557 -165 1560 -160 1557 -162 b 1557 -162 1557 -164 1557 -164 b 1536 -154 1551 -157 1546 -154 l 1532 -154 b 1517 -158 1526 -154 1521 -156 l 1517 -153 z m 1299 -153 b 1288 -154 1294 -153 1292 -153 b 1268 -189 1275 -158 1268 -171 l 1268 -204 b 1297 -239 1268 -228 1278 -239 l 1318 -239 b 1322 -225 1318 -239 1319 -233 b 1303 -232 1315 -229 1308 -232 l 1300 -232 b 1290 -231 1296 -232 1293 -232 b 1281 -204 1283 -228 1281 -219 l 1281 -203 b 1313 -196 1301 -199 1313 -196 b 1326 -193 1322 -194 1326 -193 l 1326 -190 b 1322 -168 1326 -182 1325 -174 b 1299 -153 1318 -158 1310 -153 z m 1461 -153 b 1447 -156 1456 -153 1450 -154 b 1431 -197 1436 -161 1431 -175 b 1461 -240 1431 -225 1440 -240 b 1490 -197 1481 -240 1490 -225 l 1490 -194 b 1489 -176 1490 -187 1490 -182 b 1461 -153 1485 -161 1476 -153 z m 108 -154 b 136 -232 108 -156 118 -182 b 139 -239 138 -236 138 -239 l 144 -239 b 161 -189 156 -208 161 -192 b 179 -239 174 -222 179 -239 l 185 -239 b 215 -154 204 -185 215 -157 l 208 -154 b 185 -218 200 -176 192 -199 b 161 -154 169 -175 161 -154 l 150 -154 l 149 -154 l 158 -179 l 144 -218 l 133 -187 b 121 -154 125 -165 121 -154 z m 228 -154 b 250 -217 242 -194 249 -217 b 258 -239 254 -231 257 -237 l 264 -239 b 281 -190 264 -237 269 -221 b 290 -215 282 -190 285 -200 b 299 -239 296 -231 299 -239 l 304 -239 l 335 -154 b 333 -154 335 -154 335 -154 l 328 -154 b 304 -218 319 -175 311 -197 b 290 -181 296 -196 292 -183 b 281 -154 285 -164 282 -156 l 268 -154 b 278 -179 268 -154 271 -162 b 275 -185 276 -183 275 -185 b 263 -218 267 -207 263 -218 b 246 -168 263 -217 257 -200 b 240 -154 242 -158 240 -154 z m 347 -154 b 374 -231 347 -156 357 -182 b 376 -239 376 -236 376 -239 l 382 -239 b 400 -189 383 -239 389 -222 b 414 -228 408 -215 414 -228 b 418 -239 417 -235 418 -239 l 424 -239 b 454 -154 444 -183 454 -154 l 447 -154 b 432 -194 446 -156 442 -169 b 424 -218 426 -211 424 -218 b 406 -168 413 -187 407 -171 b 400 -154 403 -158 400 -154 l 389 -154 l 388 -154 l 396 -179 l 382 -218 b 369 -185 375 -197 371 -186 b 360 -154 363 -164 360 -154 z m 503 -154 b 497 -168 501 -154 500 -158 b 500 -167 499 -168 499 -167 b 519 -160 504 -162 511 -160 b 533 -164 525 -160 531 -161 b 538 -176 536 -168 538 -172 b 511 -181 528 -176 519 -178 b 493 -210 500 -186 493 -194 l 493 -214 b 494 -222 493 -217 494 -219 b 517 -240 499 -233 506 -240 b 539 -232 526 -240 533 -237 b 543 -239 540 -235 542 -237 b 553 -239 544 -239 549 -239 l 554 -239 b 550 -226 551 -236 550 -232 l 550 -192 b 550 -176 550 -186 550 -181 b 522 -154 547 -161 538 -154 z m 718 -154 b 714 -168 718 -154 717 -158 b 715 -167 714 -168 715 -168 b 736 -160 721 -162 728 -160 b 750 -164 743 -160 747 -161 b 754 -176 753 -168 754 -172 b 726 -182 743 -176 733 -178 b 710 -211 715 -186 710 -196 l 710 -212 b 711 -224 710 -215 710 -219 b 733 -240 715 -235 722 -240 b 756 -231 742 -240 750 -236 b 760 -239 757 -236 758 -239 b 769 -239 761 -239 764 -239 b 767 -225 768 -236 767 -232 l 767 -190 b 764 -168 767 -182 765 -174 b 739 -154 758 -158 751 -154 z m 1004 -154 b 1000 -168 1004 -154 1003 -158 b 1000 -168 1000 -168 1000 -168 b 1022 -160 1007 -162 1014 -160 b 1036 -165 1028 -160 1033 -161 b 1040 -176 1038 -167 1039 -171 l 1039 -176 b 1011 -182 1028 -176 1018 -179 b 996 -211 1000 -187 996 -197 b 997 -224 996 -217 996 -221 b 1019 -240 1001 -235 1008 -240 b 1042 -231 1028 -240 1035 -236 b 1044 -239 1042 -233 1042 -236 b 1056 -239 1046 -239 1050 -239 b 1053 -229 1054 -235 1053 -232 l 1053 -199 b 1050 -172 1053 -186 1053 -176 b 1025 -154 1046 -160 1038 -154 z m 1394 -154 b 1381 -157 1389 -154 1385 -154 b 1365 -196 1371 -162 1365 -175 b 1369 -222 1365 -207 1367 -215 b 1396 -239 1374 -233 1382 -239 l 1415 -239 b 1419 -225 1417 -239 1418 -235 b 1401 -232 1413 -229 1407 -232 l 1397 -232 b 1385 -228 1390 -232 1386 -231 b 1379 -197 1381 -226 1379 -215 b 1382 -167 1379 -181 1381 -169 b 1400 -160 1385 -162 1390 -160 b 1419 -168 1406 -160 1413 -162 b 1415 -154 1418 -158 1417 -154 z m 1208 -179 b 1210 -172 1208 -178 1208 -175 b 1225 -160 1211 -164 1217 -160 l 1226 -160 b 1236 -162 1229 -160 1233 -161 b 1243 -192 1240 -167 1243 -176 b 1239 -225 1243 -207 1242 -218 b 1226 -233 1238 -231 1232 -233 b 1218 -232 1224 -233 1221 -232 b 1208 -214 1211 -228 1208 -222 z m 1281 -192 b 1283 -169 1281 -183 1281 -175 b 1297 -160 1286 -162 1290 -160 b 1303 -161 1299 -160 1300 -160 b 1314 -187 1311 -165 1314 -174 l 1314 -189 l 1281 -194 z m 1443 -194 b 1447 -171 1443 -183 1444 -175 b 1461 -160 1449 -162 1454 -160 b 1469 -162 1464 -160 1467 -161 b 1478 -194 1475 -167 1478 -176 l 1478 -199 b 1475 -222 1478 -208 1476 -217 b 1461 -233 1472 -229 1468 -233 b 1451 -231 1457 -233 1454 -232 b 1443 -199 1446 -226 1443 -217 z m 506 -210 b 510 -192 506 -203 507 -197 b 539 -183 515 -186 525 -183 b 539 -189 539 -186 539 -187 l 539 -221 b 521 -231 535 -228 528 -231 b 506 -210 510 -231 506 -224 z m 722 -208 b 726 -193 722 -203 724 -197 b 754 -183 731 -187 740 -183 l 754 -185 l 754 -221 b 736 -231 751 -228 744 -231 l 733 -231 b 722 -211 725 -229 722 -222 z m 1007 -211 b 1010 -196 1007 -204 1008 -200 b 1040 -183 1014 -187 1025 -183 l 1040 -221 b 1022 -231 1036 -228 1031 -231 b 1007 -211 1013 -231 1007 -224 z m 475 -224 l 474 -224 b 467 -231 468 -225 467 -228 l 467 -233 b 474 -239 468 -237 471 -239 b 476 -239 475 -239 476 -239 b 482 -232 479 -237 482 -235 l 482 -231 b 475 -224 481 -226 478 -224 z m 1347 -224 l 1346 -224 b 1339 -232 1342 -225 1339 -228 b 1339 -233 1339 -232 1339 -232 b 1346 -239 1340 -237 1343 -239 l 1349 -239 b 1354 -232 1353 -237 1354 -235 b 1354 -229 1354 -232 1354 -231 b 1347 -224 1351 -225 1350 -224 z "},"\"":{"ha":597,"x_min":0,"x_max":0,"o":"m 25 1093 l 56 728 l 238 728 l 268 1093 z m 329 1093 l 360 728 l 542 728 l 572 1093 z "},"#":{"ha":1685,"x_min":0,"x_max":0,"o":"m 522 925 b 501 919 514 925 507 924 b 478 849 486 911 478 888 l 478 842 b 482 801 478 828 479 814 b 521 765 488 778 501 765 b 539 769 528 765 535 767 b 565 840 557 778 565 801 l 565 850 b 560 896 565 868 564 883 b 522 925 554 915 542 925 z m 1304 925 b 1286 921 1297 925 1290 924 b 1261 846 1269 913 1261 888 b 1265 799 1261 826 1263 811 b 1304 765 1272 776 1285 765 b 1324 769 1313 765 1318 767 b 1349 844 1340 778 1349 803 b 1343 893 1349 865 1347 882 b 1304 925 1338 914 1325 925 z m 101 922 b 101 922 101 922 101 922 l 101 768 b 101 768 101 768 101 768 l 115 768 b 115 768 115 768 115 768 l 115 838 l 143 838 b 171 842 156 838 165 839 b 189 879 183 847 189 860 b 186 901 189 888 188 896 b 147 922 181 915 168 922 z m 206 922 b 206 922 206 922 206 922 l 206 768 b 206 768 206 768 206 768 l 276 768 b 279 776 276 768 278 771 l 221 776 l 221 844 l 264 844 b 264 846 264 844 264 846 l 264 853 b 264 854 264 854 264 854 l 221 854 l 221 914 b 221 914 221 914 221 914 l 275 914 b 272 922 274 919 272 922 z m 299 922 b 299 922 299 922 299 922 l 299 768 b 299 768 299 768 299 768 l 313 768 b 313 768 313 768 313 768 l 313 840 l 346 840 b 369 788 351 840 360 824 b 375 768 372 775 374 768 l 389 768 l 390 768 b 361 843 379 808 369 833 b 365 844 363 843 364 844 b 383 882 378 849 383 861 b 381 901 383 889 383 896 b 343 922 376 915 363 922 z m 440 922 b 431 921 438 922 435 922 b 413 893 419 915 413 907 l 413 889 b 425 850 413 879 417 867 b 443 801 438 829 443 813 b 443 794 443 799 443 796 b 425 776 440 782 435 776 l 424 776 b 410 785 419 776 415 779 l 408 785 b 414 768 411 774 413 768 l 425 768 b 439 771 431 768 435 768 b 458 803 451 776 458 788 b 443 850 458 817 453 832 b 428 894 433 868 428 883 l 428 897 b 443 914 428 908 433 914 b 458 907 447 914 451 911 b 458 908 458 908 458 908 b 454 922 457 918 456 922 z m 586 922 b 585 922 585 922 585 922 l 585 768 b 586 768 585 768 585 768 l 593 768 b 593 768 593 768 593 768 l 593 899 b 607 868 601 881 607 871 b 654 768 636 804 653 769 l 665 768 b 665 768 665 768 665 768 l 665 922 b 665 922 665 922 665 922 l 657 922 b 657 922 657 922 657 922 l 657 797 l 656 797 b 599 922 619 878 601 919 z m 732 922 l 725 922 b 681 768 724 918 708 867 b 681 768 681 768 681 768 l 689 768 b 703 814 690 771 694 786 l 749 814 b 758 779 754 793 758 782 b 763 768 761 772 763 768 l 778 768 b 738 903 776 772 764 818 b 732 922 735 915 733 922 z m 797 922 b 797 922 797 922 797 922 l 797 768 b 797 768 797 768 797 768 l 868 768 b 869 776 868 768 869 771 l 811 776 l 811 922 b 811 922 811 922 811 922 z m 943 922 b 943 922 943 922 943 922 l 943 844 b 951 785 943 815 946 796 b 986 765 957 772 969 765 b 1006 769 994 765 1000 767 b 1019 788 1011 772 1015 779 b 1025 854 1022 794 1025 817 l 1025 922 b 1025 922 1025 922 1025 922 l 1015 922 b 1015 922 1015 922 1015 922 l 1015 833 b 1011 788 1015 810 1014 796 b 988 774 1007 779 999 774 b 967 783 976 774 969 778 b 958 836 961 789 958 807 l 958 922 b 958 922 958 922 958 922 z m 1074 922 b 1064 921 1071 922 1068 922 b 1044 892 1051 917 1044 907 b 1058 849 1044 879 1050 865 b 1075 803 1069 829 1075 814 l 1075 801 b 1075 801 1075 801 1075 801 b 1075 800 1075 800 1075 800 l 1075 797 b 1057 776 1074 783 1068 776 l 1056 776 b 1042 785 1053 776 1047 779 b 1046 768 1044 774 1046 768 l 1057 768 b 1071 771 1063 768 1067 768 b 1090 803 1085 776 1090 788 b 1075 850 1090 815 1085 832 b 1060 896 1065 868 1060 883 b 1075 914 1060 908 1065 914 b 1092 907 1079 914 1085 911 b 1092 908 1092 908 1092 908 b 1088 922 1089 918 1088 922 z m 1115 922 b 1114 922 1115 922 1114 922 l 1114 768 b 1115 768 1114 768 1114 768 l 1186 768 b 1188 776 1186 768 1186 771 b 1188 776 1188 776 1188 776 l 1129 776 l 1129 844 l 1172 844 b 1174 846 1172 844 1174 846 l 1174 853 b 1172 854 1174 854 1172 854 l 1129 854 l 1129 914 l 1183 914 b 1181 922 1182 919 1182 922 z m 1368 922 b 1368 922 1368 922 1368 922 l 1368 768 b 1368 768 1368 768 1368 768 l 1375 768 b 1376 768 1376 768 1376 768 l 1376 899 b 1426 789 1408 828 1425 792 b 1436 768 1432 775 1436 768 l 1447 768 b 1447 768 1447 768 1447 768 l 1447 922 b 1447 922 1447 922 1447 922 l 1440 922 b 1439 922 1440 922 1439 922 l 1439 797 b 1389 907 1408 865 1392 901 b 1382 922 1385 917 1382 922 z m 1468 922 b 1467 922 1468 922 1468 922 l 1467 768 b 1468 768 1467 768 1468 768 l 1538 768 b 1540 776 1539 768 1539 771 l 1482 776 l 1482 922 b 1482 922 1482 922 1482 922 z m 1522 922 b 1560 846 1547 872 1560 847 l 1560 768 b 1561 768 1560 768 1560 768 l 1575 768 b 1575 768 1575 768 1575 768 l 1575 847 b 1613 922 1600 897 1613 922 l 1603 922 b 1571 857 1583 883 1574 861 b 1538 922 1549 900 1538 922 z m 493 846 b 497 897 493 871 494 889 b 521 917 501 910 508 917 l 522 917 b 543 906 532 917 539 913 b 550 846 549 899 550 879 b 544 789 550 815 549 796 b 522 774 542 779 533 774 b 500 788 511 774 504 779 b 493 846 496 794 493 814 z m 1276 851 b 1282 901 1276 876 1278 893 b 1304 917 1286 911 1293 917 l 1306 917 b 1324 908 1314 917 1319 914 b 1333 851 1331 903 1333 883 l 1333 839 b 1329 790 1333 815 1332 800 b 1306 774 1325 779 1317 774 b 1285 783 1296 774 1289 778 b 1276 839 1279 790 1276 808 z m 115 914 l 140 914 b 161 911 151 914 160 913 b 172 879 168 907 172 897 b 168 856 172 868 171 860 b 146 846 165 849 157 846 l 115 846 z m 313 914 l 336 914 b 358 910 347 914 354 913 b 367 882 364 907 367 897 b 361 857 367 868 365 860 b 336 850 358 851 350 850 l 313 850 z m 725 893 b 746 822 726 890 733 867 l 706 822 b 725 893 719 869 725 893 z m 1140 674 b 1132 667 1139 672 1136 671 b 1124 647 1131 665 1128 658 b 1060 456 1099 582 1076 518 b 1043 385 1051 428 1046 404 b 1032 361 1042 378 1039 369 b 1007 326 1026 350 1018 339 b 971 303 992 310 981 303 l 969 303 b 957 307 965 303 961 304 b 944 322 949 315 944 319 b 949 325 944 324 946 325 b 968 335 956 328 963 331 b 992 357 974 338 982 346 b 1013 390 1000 369 1007 381 b 1033 474 1026 424 1033 451 l 1033 475 b 1032 492 1033 481 1033 486 b 1006 513 1026 506 1018 513 b 971 489 994 513 983 504 b 901 335 949 456 925 406 b 904 358 901 340 903 349 b 924 440 910 390 917 418 b 983 601 942 500 961 553 b 993 622 990 614 993 621 b 990 625 992 624 992 625 b 982 642 988 629 985 635 b 971 660 979 654 976 660 l 969 660 b 965 658 969 660 968 660 b 942 647 960 650 953 647 b 896 644 939 646 922 644 b 794 639 856 644 821 643 b 760 633 788 639 775 638 b 711 576 728 624 711 606 b 713 567 711 575 711 571 b 719 544 714 557 717 550 b 728 558 722 549 724 554 l 735 568 b 769 590 746 578 757 585 b 910 610 806 603 853 610 l 939 610 b 942 608 940 610 942 610 b 894 463 922 554 907 506 b 854 243 867 367 854 293 l 854 233 b 857 210 854 222 854 214 b 874 193 860 203 865 197 b 886 186 881 188 885 186 b 897 211 889 186 893 194 b 917 301 904 254 911 285 b 921 311 918 308 919 311 l 922 308 b 940 285 928 300 935 292 b 964 271 947 275 956 271 b 1000 285 975 271 986 275 b 1028 306 1010 290 1018 297 b 1025 246 1026 282 1025 261 l 1025 243 b 1026 225 1025 233 1025 226 b 1039 215 1028 221 1032 218 b 1049 208 1044 211 1047 208 l 1050 208 b 1058 222 1051 208 1056 214 b 1082 286 1064 240 1071 261 b 1149 429 1097 324 1119 372 b 1144 414 1147 426 1147 421 b 1122 286 1131 361 1122 318 l 1122 282 b 1128 249 1122 269 1125 258 b 1201 196 1142 214 1167 196 b 1233 201 1213 196 1224 197 b 1249 217 1240 204 1244 208 b 1204 229 1233 217 1218 221 b 1163 306 1176 249 1163 274 l 1163 311 b 1200 450 1163 354 1175 401 b 1210 474 1207 463 1210 471 l 1210 475 b 1194 483 1208 481 1203 483 l 1186 483 b 1178 485 1186 483 1183 485 l 1176 485 b 1129 450 1161 485 1146 474 b 1075 346 1113 428 1094 393 b 1069 333 1072 338 1071 333 b 1072 363 1069 336 1071 346 b 1092 449 1079 396 1085 424 b 1154 614 1111 511 1132 567 b 1164 636 1161 628 1164 635 b 1163 639 1164 636 1164 638 b 1151 664 1157 646 1154 654 b 1144 674 1150 668 1147 672 z m 1371 672 b 1356 668 1363 669 1358 668 b 1349 663 1351 667 1349 665 b 1343 647 1347 660 1346 654 b 1340 640 1342 643 1342 640 b 1322 636 1340 639 1335 638 b 1292 617 1303 633 1292 626 b 1292 613 1292 615 1292 614 b 1301 603 1294 607 1297 604 l 1301 604 b 1311 617 1304 608 1307 613 b 1333 625 1318 622 1325 625 l 1335 625 b 1335 624 1335 625 1335 625 b 1321 583 1331 610 1326 596 b 1311 549 1314 567 1311 556 b 1313 538 1311 544 1311 542 b 1325 522 1318 528 1322 522 b 1344 539 1329 522 1335 528 l 1344 536 b 1354 522 1347 528 1351 522 b 1361 526 1356 522 1358 524 b 1382 554 1367 533 1374 543 b 1369 524 1379 549 1375 538 b 1353 472 1358 499 1353 481 b 1354 463 1353 469 1353 467 b 1367 450 1357 457 1361 451 b 1365 460 1367 451 1365 456 b 1376 507 1365 468 1369 483 b 1413 593 1388 536 1400 564 b 1406 597 1413 594 1410 596 b 1397 593 1403 597 1401 596 b 1368 554 1394 589 1385 576 b 1360 546 1365 549 1363 546 b 1365 561 1361 551 1363 556 b 1381 590 1374 575 1378 585 b 1363 578 1372 588 1365 583 b 1339 551 1357 569 1349 561 b 1329 544 1333 546 1331 544 b 1325 549 1328 544 1326 546 b 1329 560 1325 549 1326 553 b 1354 625 1335 578 1343 600 b 1360 628 1356 628 1357 628 l 1363 628 b 1385 629 1369 628 1378 629 b 1436 624 1403 629 1419 626 b 1456 617 1447 621 1453 618 b 1457 619 1457 617 1457 618 b 1443 631 1457 622 1453 626 b 1372 640 1419 638 1396 640 l 1365 640 b 1363 642 1364 640 1363 640 l 1363 643 b 1374 669 1369 660 1374 668 l 1374 671 b 1371 672 1374 672 1372 672 z m 596 619 b 554 607 583 619 569 615 b 525 588 546 603 536 596 b 472 535 513 578 494 561 b 429 476 456 514 442 494 b 419 467 426 469 422 467 b 407 467 413 467 408 467 b 308 471 358 469 326 471 b 232 463 272 471 247 468 b 193 408 206 453 193 435 b 199 379 193 400 194 390 b 208 394 203 386 206 390 b 347 433 231 421 278 433 b 403 432 383 433 401 433 b 390 407 403 431 399 422 b 358 329 379 385 369 358 b 333 178 342 274 333 224 b 379 40 333 122 349 76 b 517 -17 413 1 458 -17 l 525 -17 b 685 13 565 -17 618 -7 b 829 60 719 24 768 40 b 1147 125 957 103 1063 125 l 1149 125 b 1336 71 1233 125 1296 107 l 1338 71 l 1338 72 b 1315 107 1338 81 1329 92 b 1292 128 1307 115 1299 122 b 1257 147 1279 136 1268 143 b 1135 171 1221 163 1181 171 l 1133 171 b 1024 157 1101 171 1065 167 b 882 118 975 146 928 133 l 731 71 b 517 26 636 42 564 26 l 515 26 b 428 57 485 26 456 38 b 371 178 390 88 371 128 b 385 272 371 203 376 233 b 419 385 394 313 406 350 b 439 431 431 411 436 426 b 457 433 439 431 444 432 b 490 442 472 436 483 439 b 521 454 492 442 503 446 b 607 544 563 475 590 504 b 619 594 613 558 617 575 l 619 599 b 618 603 619 600 619 601 b 596 619 615 614 608 619 z m 1481 600 b 1481 599 1481 600 1481 600 b 1483 575 1483 589 1483 581 b 1479 553 1483 567 1482 560 b 1465 539 1475 544 1469 540 l 1464 539 b 1461 543 1463 539 1463 540 b 1461 546 1461 544 1461 544 b 1478 575 1472 554 1478 564 l 1478 578 b 1469 589 1478 585 1475 589 l 1468 589 b 1463 586 1467 589 1465 588 b 1451 546 1456 574 1451 560 b 1451 540 1451 544 1451 543 b 1465 531 1456 533 1461 531 l 1469 531 b 1479 535 1472 531 1476 532 b 1494 569 1490 546 1494 557 b 1493 578 1494 572 1494 575 b 1481 600 1492 593 1488 600 z m 1422 593 b 1419 592 1422 593 1421 593 b 1407 564 1418 589 1414 579 b 1372 464 1385 508 1374 475 l 1372 463 b 1378 453 1372 460 1374 456 l 1379 453 b 1382 457 1379 453 1381 454 b 1414 525 1388 474 1399 496 b 1419 536 1418 532 1419 536 b 1421 536 1421 536 1421 536 b 1432 531 1425 533 1429 531 l 1433 531 b 1440 533 1435 531 1438 532 b 1447 563 1444 539 1447 549 l 1447 567 b 1439 590 1447 583 1444 590 b 1438 590 1439 590 1439 590 l 1424 565 b 1410 539 1415 549 1411 540 b 1425 575 1414 553 1419 564 b 1432 588 1429 582 1432 588 b 1424 593 1432 590 1429 592 z m 457 468 l 457 469 b 476 496 463 478 468 486 b 521 542 486 507 501 522 b 588 589 546 561 568 578 b 586 582 588 585 586 582 b 576 549 586 575 582 564 b 563 524 572 542 568 533 b 533 494 556 515 546 506 b 464 468 508 478 486 468 z m 1469 575 l 1471 575 b 1464 558 1471 569 1468 564 b 1464 560 1464 558 1464 560 b 1469 575 1464 564 1467 569 z m 1436 568 l 1438 568 b 1438 564 1438 568 1438 567 l 1438 558 b 1435 546 1438 554 1438 550 b 1422 540 1433 543 1429 540 b 1436 568 1431 556 1435 564 z m 746 519 b 735 517 742 519 738 518 b 715 489 722 511 715 501 b 743 453 715 472 725 460 b 749 449 746 451 749 450 b 753 415 751 435 753 424 l 753 406 b 732 288 753 371 746 331 b 717 256 726 269 721 258 b 713 261 715 256 714 257 b 704 304 707 272 704 286 l 704 311 b 717 385 704 333 708 358 b 729 415 721 397 725 407 b 738 428 735 424 738 428 l 738 429 l 736 429 b 722 433 732 432 726 433 b 708 428 717 433 713 432 b 693 406 703 422 697 414 b 672 432 689 424 682 432 b 636 400 663 432 650 422 b 613 351 626 386 619 369 b 599 269 603 321 599 293 b 601 244 599 261 599 253 b 614 228 604 236 608 231 b 624 224 619 226 622 225 b 633 215 628 218 631 215 l 635 215 b 644 224 638 215 640 218 b 681 321 656 239 667 271 l 681 315 b 685 257 681 286 682 267 b 700 239 689 247 693 242 b 711 229 703 238 707 235 b 725 218 717 222 721 218 b 767 292 739 218 753 243 b 782 417 776 340 782 382 b 782 440 782 426 782 435 b 783 443 782 443 782 443 b 842 461 807 449 826 456 b 842 461 842 461 842 461 b 835 449 839 457 836 453 b 813 356 829 428 822 397 b 783 203 793 271 783 219 l 783 199 b 796 165 783 188 788 176 b 839 144 807 151 822 144 l 842 144 b 844 146 843 144 843 144 l 844 147 b 826 229 832 174 826 201 b 872 460 826 279 842 356 b 879 488 878 475 879 485 l 879 492 b 865 504 876 500 871 504 b 853 497 861 504 857 501 b 842 489 847 492 843 489 b 822 481 840 488 835 486 b 781 469 806 476 792 472 b 776 476 779 469 778 472 b 768 501 775 486 772 494 b 746 519 764 513 756 519 z m 1329 508 b 1317 497 1326 508 1322 504 b 1310 492 1313 494 1310 493 b 1293 460 1307 492 1303 481 b 1293 460 1293 460 1293 460 b 1271 490 1288 481 1281 490 b 1242 472 1263 490 1253 483 b 1221 440 1235 464 1228 454 b 1196 379 1213 424 1203 404 b 1183 308 1188 347 1183 324 l 1183 306 b 1189 282 1183 297 1185 289 b 1197 276 1192 278 1194 276 b 1210 267 1203 275 1207 271 b 1219 257 1213 261 1215 257 b 1231 265 1224 257 1228 260 b 1274 365 1242 283 1256 317 l 1274 364 b 1274 360 1274 364 1274 363 b 1264 303 1268 340 1264 322 b 1269 256 1264 288 1265 272 b 1293 201 1274 233 1282 215 b 1356 172 1313 182 1332 172 b 1444 240 1389 172 1418 194 b 1467 293 1453 256 1460 274 b 1482 383 1478 329 1482 358 l 1482 389 b 1471 438 1482 408 1479 425 b 1431 458 1461 451 1449 458 b 1403 450 1421 458 1413 456 b 1379 429 1399 449 1390 440 b 1360 404 1371 419 1364 411 b 1338 340 1344 378 1338 357 l 1338 339 b 1342 317 1338 332 1339 324 b 1349 300 1344 313 1346 307 b 1374 261 1353 274 1361 261 b 1388 265 1378 261 1382 263 b 1385 268 1386 265 1386 267 b 1375 308 1378 279 1375 292 b 1399 407 1375 338 1383 371 b 1418 438 1407 428 1414 438 b 1426 425 1421 438 1424 433 b 1432 354 1431 403 1432 379 l 1432 349 b 1397 217 1432 292 1421 247 b 1383 203 1394 213 1389 207 b 1344 186 1368 192 1356 186 l 1342 186 b 1317 196 1333 186 1325 189 b 1294 272 1303 213 1294 238 b 1318 408 1294 308 1303 354 b 1338 493 1331 453 1338 481 b 1338 503 1338 497 1338 500 b 1331 508 1336 507 1333 508 z m 938 354 b 960 407 938 360 946 378 b 988 456 969 424 978 440 b 1004 478 993 465 999 474 b 992 432 999 458 996 443 b 974 392 986 415 981 401 b 956 365 969 382 964 374 b 939 354 949 360 943 356 z m 1215 310 b 1218 336 1215 314 1217 322 b 1232 388 1222 357 1226 374 b 1261 450 1240 411 1250 432 b 1274 467 1267 461 1272 467 l 1275 465 b 1283 443 1279 461 1281 453 l 1283 442 l 1250 365 b 1217 294 1233 329 1224 306 b 1215 306 1215 299 1215 303 z m 593 447 b 586 446 590 447 589 447 b 568 417 582 440 576 432 b 496 210 547 369 522 301 b 494 211 496 210 496 210 b 510 306 494 235 500 267 b 536 388 518 339 526 365 b 549 417 544 406 549 414 b 546 419 549 418 547 418 b 531 426 539 424 535 425 l 529 426 b 514 411 525 426 521 421 b 438 251 493 376 468 322 l 438 253 b 475 375 438 274 450 314 b 486 401 482 390 486 400 b 483 406 486 403 486 404 b 461 410 482 407 474 408 b 435 358 457 410 447 392 b 406 239 415 301 406 263 l 406 235 b 422 199 406 218 411 206 b 442 192 429 194 436 192 b 442 192 442 192 442 192 b 446 203 443 192 444 196 b 476 289 451 224 463 253 l 476 288 b 463 181 467 244 463 210 b 482 104 463 143 469 117 b 496 97 488 100 492 97 l 497 97 b 499 100 499 97 499 97 l 499 101 l 499 106 b 513 190 499 124 504 153 b 551 315 525 236 538 278 l 553 315 l 553 314 b 549 293 553 313 551 306 b 532 201 538 247 532 217 b 547 157 532 181 538 165 b 558 146 550 154 554 150 b 583 128 565 133 574 128 b 597 131 588 128 593 129 b 640 149 613 139 628 144 b 699 165 657 156 676 161 b 746 171 724 169 739 171 l 746 172 b 693 193 735 186 717 193 b 611 175 675 193 649 188 b 576 165 592 168 579 165 b 571 167 574 165 572 165 b 565 194 567 171 565 181 b 572 265 565 217 568 240 b 608 404 583 319 596 367 b 618 438 614 422 617 433 b 613 443 618 440 615 442 b 593 447 601 446 594 447 z m 356 415 l 354 415 b 344 408 353 415 350 414 b 328 393 339 406 333 400 b 306 349 325 390 318 375 b 288 372 303 364 296 372 l 286 372 b 256 354 278 372 268 367 b 232 322 246 344 238 333 b 204 264 221 306 213 286 b 188 193 193 232 188 207 l 188 189 b 192 169 188 181 189 175 b 199 164 193 167 196 165 b 211 154 204 163 208 160 b 221 144 214 147 217 144 b 235 156 225 144 231 147 b 269 222 244 172 256 194 b 279 240 275 233 278 240 l 279 239 b 271 138 274 190 271 157 l 271 131 b 283 83 271 113 275 97 b 326 60 294 68 308 60 b 338 63 333 60 338 61 b 336 65 338 64 338 64 b 310 186 318 100 310 139 l 310 194 b 338 328 310 233 318 278 b 363 401 354 367 363 392 l 363 406 b 356 415 361 413 360 415 z m 626 265 b 628 272 626 265 626 268 b 636 324 631 296 633 313 b 653 375 642 347 647 364 b 669 400 660 390 665 399 l 672 400 b 679 381 676 392 679 386 b 675 365 679 376 678 372 b 643 269 661 321 650 289 b 633 246 639 254 635 246 l 632 246 b 626 265 629 246 628 253 z m 219 189 b 224 218 219 200 221 210 b 235 256 224 222 228 235 b 276 336 246 288 261 314 b 289 349 282 344 286 349 b 290 347 289 349 289 349 b 296 328 293 339 296 333 b 293 318 296 325 294 321 b 231 199 275 285 256 246 b 219 182 226 192 224 186 b 219 189 219 182 219 185 z m 581 -114 b 568 -119 572 -117 568 -118 l 568 -239 b 569 -239 568 -239 568 -239 l 579 -239 b 581 -239 581 -239 581 -239 l 581 -115 z m 860 -114 b 849 -119 853 -117 849 -118 l 849 -239 b 849 -239 849 -239 849 -239 l 860 -239 b 860 -239 860 -239 860 -239 l 860 -194 l 864 -190 l 865 -190 b 899 -239 871 -201 882 -217 l 913 -239 l 874 -183 l 874 -182 b 904 -154 893 -164 904 -154 l 894 -154 l 860 -185 l 860 -115 z m 936 -114 b 924 -119 928 -117 924 -118 l 924 -239 b 924 -239 924 -239 924 -239 l 935 -239 b 936 -239 936 -239 936 -239 l 936 -179 b 936 -175 936 -178 936 -176 b 953 -160 939 -165 944 -160 b 961 -162 956 -160 960 -161 b 969 -192 967 -165 969 -176 l 969 -239 b 969 -239 969 -239 969 -239 l 982 -239 b 982 -239 982 -239 982 -239 l 982 -189 b 979 -172 982 -183 981 -178 b 956 -154 975 -160 968 -154 l 953 -154 b 936 -160 946 -154 940 -156 l 936 -115 z m 1086 -132 b 1075 -137 1078 -135 1075 -137 l 1075 -154 l 1063 -154 b 1063 -154 1063 -154 1063 -154 l 1063 -160 b 1063 -160 1063 -160 1063 -160 l 1075 -160 l 1075 -201 b 1081 -232 1075 -217 1076 -226 b 1103 -239 1082 -236 1090 -239 l 1110 -239 b 1113 -226 1110 -239 1111 -235 b 1100 -232 1107 -231 1103 -232 l 1097 -232 b 1092 -231 1096 -232 1093 -232 b 1086 -203 1088 -229 1086 -219 l 1086 -160 l 1101 -160 b 1101 -160 1101 -160 1101 -160 l 1101 -154 b 1101 -154 1101 -154 1101 -154 l 1086 -154 l 1086 -132 z m 1226 -153 b 1207 -160 1218 -153 1211 -156 l 1203 -156 b 1194 -160 1199 -157 1194 -158 b 1196 -171 1196 -162 1196 -167 l 1196 -281 l 1197 -281 b 1208 -275 1204 -276 1208 -275 l 1208 -235 b 1226 -240 1214 -237 1219 -240 b 1242 -236 1232 -240 1238 -239 b 1254 -199 1250 -232 1254 -219 l 1254 -194 b 1251 -168 1254 -182 1254 -174 b 1226 -153 1247 -158 1239 -153 z m 607 -153 b 594 -158 599 -156 594 -157 l 594 -239 b 596 -239 594 -239 594 -239 l 607 -239 b 607 -239 607 -239 607 -239 l 607 -179 b 608 -174 607 -178 607 -175 b 624 -160 610 -165 615 -160 b 635 -165 629 -160 633 -162 b 639 -203 638 -168 639 -181 l 639 -239 b 640 -239 639 -239 639 -239 l 651 -239 b 651 -239 651 -239 651 -239 l 651 -179 b 668 -160 653 -167 658 -160 b 679 -164 672 -160 676 -161 b 683 -194 682 -168 683 -178 l 683 -239 b 685 -239 683 -239 685 -239 l 696 -239 b 696 -239 696 -239 696 -239 l 696 -192 b 693 -168 696 -182 694 -175 b 671 -154 689 -158 682 -154 l 667 -154 b 656 -156 664 -154 660 -154 b 647 -165 651 -160 647 -162 b 647 -164 647 -164 647 -164 b 626 -154 643 -157 636 -154 l 622 -154 b 607 -158 617 -154 611 -156 l 607 -153 z m 794 -153 b 782 -158 786 -156 782 -157 l 782 -239 b 782 -239 782 -239 782 -239 l 793 -239 b 794 -239 794 -239 794 -239 l 794 -211 b 796 -182 794 -200 794 -190 b 815 -160 800 -168 806 -160 b 836 -168 822 -160 829 -162 b 831 -154 833 -158 832 -154 l 814 -154 b 808 -154 813 -154 810 -154 b 794 -164 800 -157 796 -160 l 794 -153 z m 1133 -153 b 1121 -158 1126 -156 1122 -157 l 1121 -200 b 1125 -224 1121 -210 1122 -218 b 1149 -239 1129 -235 1138 -239 l 1150 -239 b 1168 -233 1157 -239 1163 -237 l 1168 -236 b 1167 -253 1168 -242 1168 -247 b 1150 -272 1164 -267 1158 -272 l 1147 -272 b 1129 -265 1143 -272 1136 -269 b 1133 -279 1132 -275 1133 -279 l 1151 -279 b 1161 -276 1154 -279 1157 -279 b 1179 -237 1174 -272 1179 -258 l 1179 -153 b 1168 -158 1172 -156 1168 -157 l 1168 -211 b 1168 -217 1168 -212 1168 -214 b 1151 -232 1165 -226 1160 -232 l 1149 -232 b 1140 -229 1144 -232 1142 -231 b 1133 -196 1136 -225 1133 -214 l 1133 -153 z m 1517 -153 b 1504 -158 1508 -156 1504 -157 l 1504 -239 b 1506 -239 1504 -239 1504 -239 l 1517 -239 b 1517 -239 1517 -239 1517 -239 l 1517 -181 b 1518 -172 1517 -178 1517 -175 b 1533 -160 1521 -164 1525 -160 b 1543 -164 1538 -160 1540 -161 b 1549 -192 1547 -167 1549 -176 l 1549 -239 b 1550 -239 1549 -239 1549 -239 l 1561 -239 b 1561 -239 1561 -239 1561 -239 l 1561 -183 b 1563 -174 1561 -181 1561 -176 b 1578 -160 1565 -165 1569 -160 b 1589 -165 1583 -160 1588 -162 b 1594 -203 1592 -168 1594 -181 l 1594 -239 b 1594 -239 1594 -239 1594 -239 l 1606 -239 b 1606 -239 1606 -239 1606 -239 l 1606 -196 b 1604 -171 1606 -185 1606 -176 b 1581 -154 1600 -160 1593 -154 l 1576 -154 b 1564 -157 1572 -154 1568 -154 b 1557 -165 1560 -160 1557 -162 b 1557 -162 1557 -164 1557 -164 b 1536 -154 1551 -157 1546 -154 l 1532 -154 b 1517 -158 1526 -154 1521 -156 l 1517 -153 z m 1299 -153 b 1288 -154 1294 -153 1292 -153 b 1268 -189 1275 -158 1268 -171 l 1268 -204 b 1297 -239 1268 -228 1278 -239 l 1318 -239 b 1322 -225 1318 -239 1319 -233 b 1303 -232 1315 -229 1308 -232 l 1300 -232 b 1290 -231 1296 -232 1293 -232 b 1281 -204 1283 -228 1281 -219 l 1281 -203 b 1313 -196 1301 -199 1313 -196 b 1326 -193 1322 -194 1326 -193 l 1326 -190 b 1322 -168 1326 -182 1325 -174 b 1299 -153 1318 -158 1310 -153 z m 1461 -153 b 1447 -156 1456 -153 1450 -154 b 1431 -197 1436 -161 1431 -175 b 1461 -240 1431 -225 1440 -240 b 1490 -197 1481 -240 1490 -225 l 1490 -194 b 1489 -176 1490 -187 1490 -182 b 1461 -153 1485 -161 1476 -153 z m 108 -154 b 136 -232 108 -156 118 -182 b 139 -239 138 -236 138 -239 l 144 -239 b 161 -189 156 -208 161 -192 b 179 -239 174 -222 179 -239 l 185 -239 b 215 -154 204 -185 215 -157 l 208 -154 b 185 -218 200 -176 192 -199 b 161 -154 169 -175 161 -154 l 150 -154 l 149 -154 l 158 -179 l 144 -218 l 133 -187 b 121 -154 125 -165 121 -154 z m 228 -154 b 250 -217 242 -194 249 -217 b 258 -239 254 -231 257 -237 l 264 -239 b 281 -190 264 -237 269 -221 b 290 -215 282 -190 285 -200 b 299 -239 296 -231 299 -239 l 304 -239 l 335 -154 b 333 -154 335 -154 335 -154 l 328 -154 b 304 -218 319 -175 311 -197 b 290 -181 296 -196 292 -183 b 281 -154 285 -164 282 -156 l 268 -154 b 278 -179 268 -154 271 -162 b 275 -185 276 -183 275 -185 b 263 -218 267 -207 263 -218 b 246 -168 263 -217 257 -200 b 240 -154 242 -158 240 -154 z m 347 -154 b 374 -231 347 -156 357 -182 b 376 -239 376 -236 376 -239 l 382 -239 b 400 -189 383 -239 389 -222 b 414 -228 408 -215 414 -228 b 418 -239 417 -235 418 -239 l 424 -239 b 454 -154 444 -183 454 -154 l 447 -154 b 432 -194 446 -156 442 -169 b 424 -218 426 -211 424 -218 b 406 -168 413 -187 407 -171 b 400 -154 403 -158 400 -154 l 389 -154 l 388 -154 l 396 -179 l 382 -218 b 369 -185 375 -197 371 -186 b 360 -154 363 -164 360 -154 z m 503 -154 b 497 -168 501 -154 500 -158 b 500 -167 499 -168 499 -167 b 519 -160 504 -162 511 -160 b 533 -164 525 -160 531 -161 b 538 -176 536 -168 538 -172 b 511 -181 528 -176 519 -178 b 493 -210 500 -186 493 -194 l 493 -214 b 494 -222 493 -217 494 -219 b 517 -240 499 -233 506 -240 b 539 -232 526 -240 533 -237 b 543 -239 540 -235 542 -237 b 553 -239 544 -239 549 -239 l 554 -239 b 550 -226 551 -236 550 -232 l 550 -192 b 550 -176 550 -186 550 -181 b 522 -154 547 -161 538 -154 z m 718 -154 b 714 -168 718 -154 717 -158 b 715 -167 714 -168 715 -168 b 736 -160 721 -162 728 -160 b 750 -164 743 -160 747 -161 b 754 -176 753 -168 754 -172 b 726 -182 743 -176 733 -178 b 710 -211 715 -186 710 -196 l 710 -212 b 711 -224 710 -215 710 -219 b 733 -240 715 -235 722 -240 b 756 -231 742 -240 750 -236 b 760 -239 757 -236 758 -239 b 769 -239 761 -239 764 -239 b 767 -225 768 -236 767 -232 l 767 -190 b 764 -168 767 -182 765 -174 b 739 -154 758 -158 751 -154 z m 1004 -154 b 1000 -168 1004 -154 1003 -158 b 1000 -168 1000 -168 1000 -168 b 1022 -160 1007 -162 1014 -160 b 1036 -165 1028 -160 1033 -161 b 1040 -176 1038 -167 1039 -171 l 1039 -176 b 1011 -182 1028 -176 1018 -179 b 996 -211 1000 -187 996 -197 b 997 -224 996 -217 996 -221 b 1019 -240 1001 -235 1008 -240 b 1042 -231 1028 -240 1035 -236 b 1044 -239 1042 -233 1042 -236 b 1056 -239 1046 -239 1050 -239 b 1053 -229 1054 -235 1053 -232 l 1053 -199 b 1050 -172 1053 -186 1053 -176 b 1025 -154 1046 -160 1038 -154 z m 1394 -154 b 1381 -157 1389 -154 1385 -154 b 1365 -196 1371 -162 1365 -175 b 1369 -222 1365 -207 1367 -215 b 1396 -239 1374 -233 1382 -239 l 1415 -239 b 1419 -225 1417 -239 1418 -235 b 1401 -232 1413 -229 1407 -232 l 1397 -232 b 1385 -228 1390 -232 1386 -231 b 1379 -197 1381 -226 1379 -215 b 1382 -167 1379 -181 1381 -169 b 1400 -160 1385 -162 1390 -160 b 1419 -168 1406 -160 1413 -162 b 1415 -154 1418 -158 1417 -154 z m 1208 -179 b 1210 -172 1208 -178 1208 -175 b 1225 -160 1211 -164 1217 -160 l 1226 -160 b 1236 -162 1229 -160 1233 -161 b 1243 -192 1240 -167 1243 -176 b 1239 -225 1243 -207 1242 -218 b 1226 -233 1238 -231 1232 -233 b 1218 -232 1224 -233 1221 -232 b 1208 -214 1211 -228 1208 -222 z m 1281 -192 b 1283 -169 1281 -183 1281 -175 b 1297 -160 1286 -162 1290 -160 b 1303 -161 1299 -160 1300 -160 b 1314 -187 1311 -165 1314 -174 l 1314 -189 l 1281 -194 z m 1443 -194 b 1447 -171 1443 -183 1444 -175 b 1461 -160 1449 -162 1454 -160 b 1469 -162 1464 -160 1467 -161 b 1478 -194 1475 -167 1478 -176 l 1478 -199 b 1475 -222 1478 -208 1476 -217 b 1461 -233 1472 -229 1468 -233 b 1451 -231 1457 -233 1454 -232 b 1443 -199 1446 -226 1443 -217 z m 506 -210 b 510 -192 506 -203 507 -197 b 539 -183 515 -186 525 -183 b 539 -189 539 -186 539 -187 l 539 -221 b 521 -231 535 -228 528 -231 b 506 -210 510 -231 506 -224 z m 722 -208 b 726 -193 722 -203 724 -197 b 754 -183 731 -187 740 -183 l 754 -185 l 754 -221 b 736 -231 751 -228 744 -231 l 733 -231 b 722 -211 725 -229 722 -222 z m 1007 -211 b 1010 -196 1007 -204 1008 -200 b 1040 -183 1014 -187 1025 -183 l 1040 -221 b 1022 -231 1036 -228 1031 -231 b 1007 -211 1013 -231 1007 -224 z m 475 -224 l 474 -224 b 467 -231 468 -225 467 -228 l 467 -233 b 474 -239 468 -237 471 -239 b 476 -239 475 -239 476 -239 b 482 -232 479 -237 482 -235 l 482 -231 b 475 -224 481 -226 478 -224 z m 1347 -224 l 1346 -224 b 1339 -232 1342 -225 1339 -228 b 1339 -233 1339 -232 1339 -232 b 1346 -239 1340 -237 1343 -239 l 1349 -239 b 1354 -232 1353 -237 1354 -235 b 1354 -229 1354 -232 1354 -231 b 1347 -224 1351 -225 1350 -224 z "},"$":{"ha":1685,"x_min":0,"x_max":0,"o":"m 522 925 b 501 919 514 925 507 924 b 478 849 486 911 478 888 l 478 842 b 482 801 478 828 479 814 b 521 765 488 778 501 765 b 539 769 528 765 535 767 b 565 840 557 778 565 801 l 565 850 b 560 896 565 868 564 883 b 522 925 554 915 542 925 z m 1304 925 b 1286 921 1297 925 1290 924 b 1261 846 1269 913 1261 888 b 1265 799 1261 826 1263 811 b 1304 765 1272 776 1285 765 b 1324 769 1313 765 1318 767 b 1349 844 1340 778 1349 803 b 1343 893 1349 865 1347 882 b 1304 925 1338 914 1325 925 z m 101 922 b 101 922 101 922 101 922 l 101 768 b 101 768 101 768 101 768 l 115 768 b 115 768 115 768 115 768 l 115 838 l 143 838 b 171 842 156 838 165 839 b 189 879 183 847 189 860 b 186 901 189 888 188 896 b 147 922 181 915 168 922 z m 206 922 b 206 922 206 922 206 922 l 206 768 b 206 768 206 768 206 768 l 276 768 b 279 776 276 768 278 771 l 221 776 l 221 844 l 264 844 b 264 846 264 844 264 846 l 264 853 b 264 854 264 854 264 854 l 221 854 l 221 914 b 221 914 221 914 221 914 l 275 914 b 272 922 274 919 272 922 z m 299 922 b 299 922 299 922 299 922 l 299 768 b 299 768 299 768 299 768 l 313 768 b 313 768 313 768 313 768 l 313 840 l 346 840 b 369 788 351 840 360 824 b 375 768 372 775 374 768 l 389 768 l 390 768 b 361 843 379 808 369 833 b 365 844 363 843 364 844 b 383 882 378 849 383 861 b 381 901 383 889 383 896 b 343 922 376 915 363 922 z m 440 922 b 431 921 438 922 435 922 b 413 893 419 915 413 907 l 413 889 b 425 850 413 879 417 867 b 443 801 438 829 443 813 b 443 794 443 799 443 796 b 425 776 440 782 435 776 l 424 776 b 410 785 419 776 415 779 l 408 785 b 414 768 411 774 413 768 l 425 768 b 439 771 431 768 435 768 b 458 803 451 776 458 788 b 443 850 458 817 453 832 b 428 894 433 868 428 883 l 428 897 b 443 914 428 908 433 914 b 458 907 447 914 451 911 b 458 908 458 908 458 908 b 454 922 457 918 456 922 z m 586 922 b 585 922 585 922 585 922 l 585 768 b 586 768 585 768 585 768 l 593 768 b 593 768 593 768 593 768 l 593 899 b 607 868 601 881 607 871 b 654 768 636 804 653 769 l 665 768 b 665 768 665 768 665 768 l 665 922 b 665 922 665 922 665 922 l 657 922 b 657 922 657 922 657 922 l 657 797 l 656 797 b 599 922 619 878 601 919 z m 732 922 l 725 922 b 681 768 724 918 708 867 b 681 768 681 768 681 768 l 689 768 b 703 814 690 771 694 786 l 749 814 b 758 779 754 793 758 782 b 763 768 761 772 763 768 l 778 768 b 738 903 776 772 764 818 b 732 922 735 915 733 922 z m 797 922 b 797 922 797 922 797 922 l 797 768 b 797 768 797 768 797 768 l 868 768 b 869 776 868 768 869 771 l 811 776 l 811 922 b 811 922 811 922 811 922 z m 943 922 b 943 922 943 922 943 922 l 943 844 b 951 785 943 815 946 796 b 986 765 957 772 969 765 b 1006 769 994 765 1000 767 b 1019 788 1011 772 1015 779 b 1025 854 1022 794 1025 817 l 1025 922 b 1025 922 1025 922 1025 922 l 1015 922 b 1015 922 1015 922 1015 922 l 1015 833 b 1011 788 1015 810 1014 796 b 988 774 1007 779 999 774 b 967 783 976 774 969 778 b 958 836 961 789 958 807 l 958 922 b 958 922 958 922 958 922 z m 1074 922 b 1064 921 1071 922 1068 922 b 1044 892 1051 917 1044 907 b 1058 849 1044 879 1050 865 b 1075 803 1069 829 1075 814 l 1075 801 b 1075 801 1075 801 1075 801 b 1075 800 1075 800 1075 800 l 1075 797 b 1057 776 1074 783 1068 776 l 1056 776 b 1042 785 1053 776 1047 779 b 1046 768 1044 774 1046 768 l 1057 768 b 1071 771 1063 768 1067 768 b 1090 803 1085 776 1090 788 b 1075 850 1090 815 1085 832 b 1060 896 1065 868 1060 883 b 1075 914 1060 908 1065 914 b 1092 907 1079 914 1085 911 b 1092 908 1092 908 1092 908 b 1088 922 1089 918 1088 922 z m 1115 922 b 1114 922 1115 922 1114 922 l 1114 768 b 1115 768 1114 768 1114 768 l 1186 768 b 1188 776 1186 768 1186 771 b 1188 776 1188 776 1188 776 l 1129 776 l 1129 844 l 1172 844 b 1174 846 1172 844 1174 846 l 1174 853 b 1172 854 1174 854 1172 854 l 1129 854 l 1129 914 l 1183 914 b 1181 922 1182 919 1182 922 z m 1368 922 b 1368 922 1368 922 1368 922 l 1368 768 b 1368 768 1368 768 1368 768 l 1375 768 b 1376 768 1376 768 1376 768 l 1376 899 b 1426 789 1408 828 1425 792 b 1436 768 1432 775 1436 768 l 1447 768 b 1447 768 1447 768 1447 768 l 1447 922 b 1447 922 1447 922 1447 922 l 1440 922 b 1439 922 1440 922 1439 922 l 1439 797 b 1389 907 1408 865 1392 901 b 1382 922 1385 917 1382 922 z m 1468 922 b 1467 922 1468 922 1468 922 l 1467 768 b 1468 768 1467 768 1468 768 l 1538 768 b 1540 776 1539 768 1539 771 l 1482 776 l 1482 922 b 1482 922 1482 922 1482 922 z m 1522 922 b 1560 846 1547 872 1560 847 l 1560 768 b 1561 768 1560 768 1560 768 l 1575 768 b 1575 768 1575 768 1575 768 l 1575 847 b 1613 922 1600 897 1613 922 l 1603 922 b 1571 857 1583 883 1574 861 b 1538 922 1549 900 1538 922 z m 493 846 b 497 897 493 871 494 889 b 521 917 501 910 508 917 l 522 917 b 543 906 532 917 539 913 b 550 846 549 899 550 879 b 544 789 550 815 549 796 b 522 774 542 779 533 774 b 500 788 511 774 504 779 b 493 846 496 794 493 814 z m 1276 851 b 1282 901 1276 876 1278 893 b 1304 917 1286 911 1293 917 l 1306 917 b 1324 908 1314 917 1319 914 b 1333 851 1331 903 1333 883 l 1333 839 b 1329 790 1333 815 1332 800 b 1306 774 1325 779 1317 774 b 1285 783 1296 774 1289 778 b 1276 839 1279 790 1276 808 z m 115 914 l 140 914 b 161 911 151 914 160 913 b 172 879 168 907 172 897 b 168 856 172 868 171 860 b 146 846 165 849 157 846 l 115 846 z m 313 914 l 336 914 b 358 910 347 914 354 913 b 367 882 364 907 367 897 b 361 857 367 868 365 860 b 336 850 358 851 350 850 l 313 850 z m 725 893 b 746 822 726 890 733 867 l 706 822 b 725 893 719 869 725 893 z m 1140 674 b 1132 667 1139 672 1136 671 b 1124 647 1131 665 1128 658 b 1060 456 1099 582 1076 518 b 1043 385 1051 428 1046 404 b 1032 361 1042 378 1039 369 b 1007 326 1026 350 1018 339 b 971 303 992 310 981 303 l 969 303 b 957 307 965 303 961 304 b 944 322 949 315 944 319 b 949 325 944 324 946 325 b 968 335 956 328 963 331 b 992 357 974 338 982 346 b 1013 390 1000 369 1007 381 b 1033 474 1026 424 1033 451 l 1033 475 b 1032 492 1033 481 1033 486 b 1006 513 1026 506 1018 513 b 971 489 994 513 983 504 b 901 335 949 456 925 406 b 904 358 901 340 903 349 b 924 440 910 390 917 418 b 983 601 942 500 961 553 b 993 622 990 614 993 621 b 990 625 992 624 992 625 b 982 642 988 629 985 635 b 971 660 979 654 976 660 l 969 660 b 965 658 969 660 968 660 b 942 647 960 650 953 647 b 896 644 939 646 922 644 b 794 639 856 644 821 643 b 760 633 788 639 775 638 b 711 576 728 624 711 606 b 713 567 711 575 711 571 b 719 544 714 557 717 550 b 728 558 722 549 724 554 l 735 568 b 769 590 746 578 757 585 b 910 610 806 603 853 610 l 939 610 b 942 608 940 610 942 610 b 894 463 922 554 907 506 b 854 243 867 367 854 293 l 854 233 b 857 210 854 222 854 214 b 874 193 860 203 865 197 b 886 186 881 188 885 186 b 897 211 889 186 893 194 b 917 301 904 254 911 285 b 921 311 918 308 919 311 l 922 308 b 940 285 928 300 935 292 b 964 271 947 275 956 271 b 1000 285 975 271 986 275 b 1028 306 1010 290 1018 297 b 1025 246 1026 282 1025 261 l 1025 243 b 1026 225 1025 233 1025 226 b 1039 215 1028 221 1032 218 b 1049 208 1044 211 1047 208 l 1050 208 b 1058 222 1051 208 1056 214 b 1082 286 1064 240 1071 261 b 1149 429 1097 324 1119 372 b 1144 414 1147 426 1147 421 b 1122 286 1131 361 1122 318 l 1122 282 b 1128 249 1122 269 1125 258 b 1201 196 1142 214 1167 196 b 1233 201 1213 196 1224 197 b 1249 217 1240 204 1244 208 b 1204 229 1233 217 1218 221 b 1163 306 1176 249 1163 274 l 1163 311 b 1200 450 1163 354 1175 401 b 1210 474 1207 463 1210 471 l 1210 475 b 1194 483 1208 481 1203 483 l 1186 483 b 1178 485 1186 483 1183 485 l 1176 485 b 1129 450 1161 485 1146 474 b 1075 346 1113 428 1094 393 b 1069 333 1072 338 1071 333 b 1072 363 1069 336 1071 346 b 1092 449 1079 396 1085 424 b 1154 614 1111 511 1132 567 b 1164 636 1161 628 1164 635 b 1163 639 1164 636 1164 638 b 1151 664 1157 646 1154 654 b 1144 674 1150 668 1147 672 z m 1371 672 b 1356 668 1363 669 1358 668 b 1349 663 1351 667 1349 665 b 1343 647 1347 660 1346 654 b 1340 640 1342 643 1342 640 b 1322 636 1340 639 1335 638 b 1292 617 1303 633 1292 626 b 1292 613 1292 615 1292 614 b 1301 603 1294 607 1297 604 l 1301 604 b 1311 617 1304 608 1307 613 b 1333 625 1318 622 1325 625 l 1335 625 b 1335 624 1335 625 1335 625 b 1321 583 1331 610 1326 596 b 1311 549 1314 567 1311 556 b 1313 538 1311 544 1311 542 b 1325 522 1318 528 1322 522 b 1344 539 1329 522 1335 528 l 1344 536 b 1354 522 1347 528 1351 522 b 1361 526 1356 522 1358 524 b 1382 554 1367 533 1374 543 b 1369 524 1379 549 1375 538 b 1353 472 1358 499 1353 481 b 1354 463 1353 469 1353 467 b 1367 450 1357 457 1361 451 b 1365 460 1367 451 1365 456 b 1376 507 1365 468 1369 483 b 1413 593 1388 536 1400 564 b 1406 597 1413 594 1410 596 b 1397 593 1403 597 1401 596 b 1368 554 1394 589 1385 576 b 1360 546 1365 549 1363 546 b 1365 561 1361 551 1363 556 b 1381 590 1374 575 1378 585 b 1363 578 1372 588 1365 583 b 1339 551 1357 569 1349 561 b 1329 544 1333 546 1331 544 b 1325 549 1328 544 1326 546 b 1329 560 1325 549 1326 553 b 1354 625 1335 578 1343 600 b 1360 628 1356 628 1357 628 l 1363 628 b 1385 629 1369 628 1378 629 b 1436 624 1403 629 1419 626 b 1456 617 1447 621 1453 618 b 1457 619 1457 617 1457 618 b 1443 631 1457 622 1453 626 b 1372 640 1419 638 1396 640 l 1365 640 b 1363 642 1364 640 1363 640 l 1363 643 b 1374 669 1369 660 1374 668 l 1374 671 b 1371 672 1374 672 1372 672 z m 596 619 b 554 607 583 619 569 615 b 525 588 546 603 536 596 b 472 535 513 578 494 561 b 429 476 456 514 442 494 b 419 467 426 469 422 467 b 407 467 413 467 408 467 b 308 471 358 469 326 471 b 232 463 272 471 247 468 b 193 408 206 453 193 435 b 199 379 193 400 194 390 b 208 394 203 386 206 390 b 347 433 231 421 278 433 b 403 432 383 433 401 433 b 390 407 403 431 399 422 b 358 329 379 385 369 358 b 333 178 342 274 333 224 b 379 40 333 122 349 76 b 517 -17 413 1 458 -17 l 525 -17 b 685 13 565 -17 618 -7 b 829 60 719 24 768 40 b 1147 125 957 103 1063 125 l 1149 125 b 1336 71 1233 125 1296 107 l 1338 71 l 1338 72 b 1315 107 1338 81 1329 92 b 1292 128 1307 115 1299 122 b 1257 147 1279 136 1268 143 b 1135 171 1221 163 1181 171 l 1133 171 b 1024 157 1101 171 1065 167 b 882 118 975 146 928 133 l 731 71 b 517 26 636 42 564 26 l 515 26 b 428 57 485 26 456 38 b 371 178 390 88 371 128 b 385 272 371 203 376 233 b 419 385 394 313 406 350 b 439 431 431 411 436 426 b 457 433 439 431 444 432 b 490 442 472 436 483 439 b 521 454 492 442 503 446 b 607 544 563 475 590 504 b 619 594 613 558 617 575 l 619 599 b 618 603 619 600 619 601 b 596 619 615 614 608 619 z m 1481 600 b 1481 599 1481 600 1481 600 b 1483 575 1483 589 1483 581 b 1479 553 1483 567 1482 560 b 1465 539 1475 544 1469 540 l 1464 539 b 1461 543 1463 539 1463 540 b 1461 546 1461 544 1461 544 b 1478 575 1472 554 1478 564 l 1478 578 b 1469 589 1478 585 1475 589 l 1468 589 b 1463 586 1467 589 1465 588 b 1451 546 1456 574 1451 560 b 1451 540 1451 544 1451 543 b 1465 531 1456 533 1461 531 l 1469 531 b 1479 535 1472 531 1476 532 b 1494 569 1490 546 1494 557 b 1493 578 1494 572 1494 575 b 1481 600 1492 593 1488 600 z m 1422 593 b 1419 592 1422 593 1421 593 b 1407 564 1418 589 1414 579 b 1372 464 1385 508 1374 475 l 1372 463 b 1378 453 1372 460 1374 456 l 1379 453 b 1382 457 1379 453 1381 454 b 1414 525 1388 474 1399 496 b 1419 536 1418 532 1419 536 b 1421 536 1421 536 1421 536 b 1432 531 1425 533 1429 531 l 1433 531 b 1440 533 1435 531 1438 532 b 1447 563 1444 539 1447 549 l 1447 567 b 1439 590 1447 583 1444 590 b 1438 590 1439 590 1439 590 l 1424 565 b 1410 539 1415 549 1411 540 b 1425 575 1414 553 1419 564 b 1432 588 1429 582 1432 588 b 1424 593 1432 590 1429 592 z m 457 468 l 457 469 b 476 496 463 478 468 486 b 521 542 486 507 501 522 b 588 589 546 561 568 578 b 586 582 588 585 586 582 b 576 549 586 575 582 564 b 563 524 572 542 568 533 b 533 494 556 515 546 506 b 464 468 508 478 486 468 z m 1469 575 l 1471 575 b 1464 558 1471 569 1468 564 b 1464 560 1464 558 1464 560 b 1469 575 1464 564 1467 569 z m 1436 568 l 1438 568 b 1438 564 1438 568 1438 567 l 1438 558 b 1435 546 1438 554 1438 550 b 1422 540 1433 543 1429 540 b 1436 568 1431 556 1435 564 z m 746 519 b 735 517 742 519 738 518 b 715 489 722 511 715 501 b 743 453 715 472 725 460 b 749 449 746 451 749 450 b 753 415 751 435 753 424 l 753 406 b 732 288 753 371 746 331 b 717 256 726 269 721 258 b 713 261 715 256 714 257 b 704 304 707 272 704 286 l 704 311 b 717 385 704 333 708 358 b 729 415 721 397 725 407 b 738 428 735 424 738 428 l 738 429 l 736 429 b 722 433 732 432 726 433 b 708 428 717 433 713 432 b 693 406 703 422 697 414 b 672 432 689 424 682 432 b 636 400 663 432 650 422 b 613 351 626 386 619 369 b 599 269 603 321 599 293 b 601 244 599 261 599 253 b 614 228 604 236 608 231 b 624 224 619 226 622 225 b 633 215 628 218 631 215 l 635 215 b 644 224 638 215 640 218 b 681 321 656 239 667 271 l 681 315 b 685 257 681 286 682 267 b 700 239 689 247 693 242 b 711 229 703 238 707 235 b 725 218 717 222 721 218 b 767 292 739 218 753 243 b 782 417 776 340 782 382 b 782 440 782 426 782 435 b 783 443 782 443 782 443 b 842 461 807 449 826 456 b 842 461 842 461 842 461 b 835 449 839 457 836 453 b 813 356 829 428 822 397 b 783 203 793 271 783 219 l 783 199 b 796 165 783 188 788 176 b 839 144 807 151 822 144 l 842 144 b 844 146 843 144 843 144 l 844 147 b 826 229 832 174 826 201 b 872 460 826 279 842 356 b 879 488 878 475 879 485 l 879 492 b 865 504 876 500 871 504 b 853 497 861 504 857 501 b 842 489 847 492 843 489 b 822 481 840 488 835 486 b 781 469 806 476 792 472 b 776 476 779 469 778 472 b 768 501 775 486 772 494 b 746 519 764 513 756 519 z m 1329 508 b 1317 497 1326 508 1322 504 b 1310 492 1313 494 1310 493 b 1293 460 1307 492 1303 481 b 1293 460 1293 460 1293 460 b 1271 490 1288 481 1281 490 b 1242 472 1263 490 1253 483 b 1221 440 1235 464 1228 454 b 1196 379 1213 424 1203 404 b 1183 308 1188 347 1183 324 l 1183 306 b 1189 282 1183 297 1185 289 b 1197 276 1192 278 1194 276 b 1210 267 1203 275 1207 271 b 1219 257 1213 261 1215 257 b 1231 265 1224 257 1228 260 b 1274 365 1242 283 1256 317 l 1274 364 b 1274 360 1274 364 1274 363 b 1264 303 1268 340 1264 322 b 1269 256 1264 288 1265 272 b 1293 201 1274 233 1282 215 b 1356 172 1313 182 1332 172 b 1444 240 1389 172 1418 194 b 1467 293 1453 256 1460 274 b 1482 383 1478 329 1482 358 l 1482 389 b 1471 438 1482 408 1479 425 b 1431 458 1461 451 1449 458 b 1403 450 1421 458 1413 456 b 1379 429 1399 449 1390 440 b 1360 404 1371 419 1364 411 b 1338 340 1344 378 1338 357 l 1338 339 b 1342 317 1338 332 1339 324 b 1349 300 1344 313 1346 307 b 1374 261 1353 274 1361 261 b 1388 265 1378 261 1382 263 b 1385 268 1386 265 1386 267 b 1375 308 1378 279 1375 292 b 1399 407 1375 338 1383 371 b 1418 438 1407 428 1414 438 b 1426 425 1421 438 1424 433 b 1432 354 1431 403 1432 379 l 1432 349 b 1397 217 1432 292 1421 247 b 1383 203 1394 213 1389 207 b 1344 186 1368 192 1356 186 l 1342 186 b 1317 196 1333 186 1325 189 b 1294 272 1303 213 1294 238 b 1318 408 1294 308 1303 354 b 1338 493 1331 453 1338 481 b 1338 503 1338 497 1338 500 b 1331 508 1336 507 1333 508 z m 938 354 b 960 407 938 360 946 378 b 988 456 969 424 978 440 b 1004 478 993 465 999 474 b 992 432 999 458 996 443 b 974 392 986 415 981 401 b 956 365 969 382 964 374 b 939 354 949 360 943 356 z m 1215 310 b 1218 336 1215 314 1217 322 b 1232 388 1222 357 1226 374 b 1261 450 1240 411 1250 432 b 1274 467 1267 461 1272 467 l 1275 465 b 1283 443 1279 461 1281 453 l 1283 442 l 1250 365 b 1217 294 1233 329 1224 306 b 1215 306 1215 299 1215 303 z m 593 447 b 586 446 590 447 589 447 b 568 417 582 440 576 432 b 496 210 547 369 522 301 b 494 211 496 210 496 210 b 510 306 494 235 500 267 b 536 388 518 339 526 365 b 549 417 544 406 549 414 b 546 419 549 418 547 418 b 531 426 539 424 535 425 l 529 426 b 514 411 525 426 521 421 b 438 251 493 376 468 322 l 438 253 b 475 375 438 274 450 314 b 486 401 482 390 486 400 b 483 406 486 403 486 404 b 461 410 482 407 474 408 b 435 358 457 410 447 392 b 406 239 415 301 406 263 l 406 235 b 422 199 406 218 411 206 b 442 192 429 194 436 192 b 442 192 442 192 442 192 b 446 203 443 192 444 196 b 476 289 451 224 463 253 l 476 288 b 463 181 467 244 463 210 b 482 104 463 143 469 117 b 496 97 488 100 492 97 l 497 97 b 499 100 499 97 499 97 l 499 101 l 499 106 b 513 190 499 124 504 153 b 551 315 525 236 538 278 l 553 315 l 553 314 b 549 293 553 313 551 306 b 532 201 538 247 532 217 b 547 157 532 181 538 165 b 558 146 550 154 554 150 b 583 128 565 133 574 128 b 597 131 588 128 593 129 b 640 149 613 139 628 144 b 699 165 657 156 676 161 b 746 171 724 169 739 171 l 746 172 b 693 193 735 186 717 193 b 611 175 675 193 649 188 b 576 165 592 168 579 165 b 571 167 574 165 572 165 b 565 194 567 171 565 181 b 572 265 565 217 568 240 b 608 404 583 319 596 367 b 618 438 614 422 617 433 b 613 443 618 440 615 442 b 593 447 601 446 594 447 z m 356 415 l 354 415 b 344 408 353 415 350 414 b 328 393 339 406 333 400 b 306 349 325 390 318 375 b 288 372 303 364 296 372 l 286 372 b 256 354 278 372 268 367 b 232 322 246 344 238 333 b 204 264 221 306 213 286 b 188 193 193 232 188 207 l 188 189 b 192 169 188 181 189 175 b 199 164 193 167 196 165 b 211 154 204 163 208 160 b 221 144 214 147 217 144 b 235 156 225 144 231 147 b 269 222 244 172 256 194 b 279 240 275 233 278 240 l 279 239 b 271 138 274 190 271 157 l 271 131 b 283 83 271 113 275 97 b 326 60 294 68 308 60 b 338 63 333 60 338 61 b 336 65 338 64 338 64 b 310 186 318 100 310 139 l 310 194 b 338 328 310 233 318 278 b 363 401 354 367 363 392 l 363 406 b 356 415 361 413 360 415 z m 626 265 b 628 272 626 265 626 268 b 636 324 631 296 633 313 b 653 375 642 347 647 364 b 669 400 660 390 665 399 l 672 400 b 679 381 676 392 679 386 b 675 365 679 376 678 372 b 643 269 661 321 650 289 b 633 246 639 254 635 246 l 632 246 b 626 265 629 246 628 253 z m 219 189 b 224 218 219 200 221 210 b 235 256 224 222 228 235 b 276 336 246 288 261 314 b 289 349 282 344 286 349 b 290 347 289 349 289 349 b 296 328 293 339 296 333 b 293 318 296 325 294 321 b 231 199 275 285 256 246 b 219 182 226 192 224 186 b 219 189 219 182 219 185 z m 581 -114 b 568 -119 572 -117 568 -118 l 568 -239 b 569 -239 568 -239 568 -239 l 579 -239 b 581 -239 581 -239 581 -239 l 581 -115 z m 860 -114 b 849 -119 853 -117 849 -118 l 849 -239 b 849 -239 849 -239 849 -239 l 860 -239 b 860 -239 860 -239 860 -239 l 860 -194 l 864 -190 l 865 -190 b 899 -239 871 -201 882 -217 l 913 -239 l 874 -183 l 874 -182 b 904 -154 893 -164 904 -154 l 894 -154 l 860 -185 l 860 -115 z m 936 -114 b 924 -119 928 -117 924 -118 l 924 -239 b 924 -239 924 -239 924 -239 l 935 -239 b 936 -239 936 -239 936 -239 l 936 -179 b 936 -175 936 -178 936 -176 b 953 -160 939 -165 944 -160 b 961 -162 956 -160 960 -161 b 969 -192 967 -165 969 -176 l 969 -239 b 969 -239 969 -239 969 -239 l 982 -239 b 982 -239 982 -239 982 -239 l 982 -189 b 979 -172 982 -183 981 -178 b 956 -154 975 -160 968 -154 l 953 -154 b 936 -160 946 -154 940 -156 l 936 -115 z m 1086 -132 b 1075 -137 1078 -135 1075 -137 l 1075 -154 l 1063 -154 b 1063 -154 1063 -154 1063 -154 l 1063 -160 b 1063 -160 1063 -160 1063 -160 l 1075 -160 l 1075 -201 b 1081 -232 1075 -217 1076 -226 b 1103 -239 1082 -236 1090 -239 l 1110 -239 b 1113 -226 1110 -239 1111 -235 b 1100 -232 1107 -231 1103 -232 l 1097 -232 b 1092 -231 1096 -232 1093 -232 b 1086 -203 1088 -229 1086 -219 l 1086 -160 l 1101 -160 b 1101 -160 1101 -160 1101 -160 l 1101 -154 b 1101 -154 1101 -154 1101 -154 l 1086 -154 l 1086 -132 z m 1226 -153 b 1207 -160 1218 -153 1211 -156 l 1203 -156 b 1194 -160 1199 -157 1194 -158 b 1196 -171 1196 -162 1196 -167 l 1196 -281 l 1197 -281 b 1208 -275 1204 -276 1208 -275 l 1208 -235 b 1226 -240 1214 -237 1219 -240 b 1242 -236 1232 -240 1238 -239 b 1254 -199 1250 -232 1254 -219 l 1254 -194 b 1251 -168 1254 -182 1254 -174 b 1226 -153 1247 -158 1239 -153 z m 607 -153 b 594 -158 599 -156 594 -157 l 594 -239 b 596 -239 594 -239 594 -239 l 607 -239 b 607 -239 607 -239 607 -239 l 607 -179 b 608 -174 607 -178 607 -175 b 624 -160 610 -165 615 -160 b 635 -165 629 -160 633 -162 b 639 -203 638 -168 639 -181 l 639 -239 b 640 -239 639 -239 639 -239 l 651 -239 b 651 -239 651 -239 651 -239 l 651 -179 b 668 -160 653 -167 658 -160 b 679 -164 672 -160 676 -161 b 683 -194 682 -168 683 -178 l 683 -239 b 685 -239 683 -239 685 -239 l 696 -239 b 696 -239 696 -239 696 -239 l 696 -192 b 693 -168 696 -182 694 -175 b 671 -154 689 -158 682 -154 l 667 -154 b 656 -156 664 -154 660 -154 b 647 -165 651 -160 647 -162 b 647 -164 647 -164 647 -164 b 626 -154 643 -157 636 -154 l 622 -154 b 607 -158 617 -154 611 -156 l 607 -153 z m 794 -153 b 782 -158 786 -156 782 -157 l 782 -239 b 782 -239 782 -239 782 -239 l 793 -239 b 794 -239 794 -239 794 -239 l 794 -211 b 796 -182 794 -200 794 -190 b 815 -160 800 -168 806 -160 b 836 -168 822 -160 829 -162 b 831 -154 833 -158 832 -154 l 814 -154 b 808 -154 813 -154 810 -154 b 794 -164 800 -157 796 -160 l 794 -153 z m 1133 -153 b 1121 -158 1126 -156 1122 -157 l 1121 -200 b 1125 -224 1121 -210 1122 -218 b 1149 -239 1129 -235 1138 -239 l 1150 -239 b 1168 -233 1157 -239 1163 -237 l 1168 -236 b 1167 -253 1168 -242 1168 -247 b 1150 -272 1164 -267 1158 -272 l 1147 -272 b 1129 -265 1143 -272 1136 -269 b 1133 -279 1132 -275 1133 -279 l 1151 -279 b 1161 -276 1154 -279 1157 -279 b 1179 -237 1174 -272 1179 -258 l 1179 -153 b 1168 -158 1172 -156 1168 -157 l 1168 -211 b 1168 -217 1168 -212 1168 -214 b 1151 -232 1165 -226 1160 -232 l 1149 -232 b 1140 -229 1144 -232 1142 -231 b 1133 -196 1136 -225 1133 -214 l 1133 -153 z m 1517 -153 b 1504 -158 1508 -156 1504 -157 l 1504 -239 b 1506 -239 1504 -239 1504 -239 l 1517 -239 b 1517 -239 1517 -239 1517 -239 l 1517 -181 b 1518 -172 1517 -178 1517 -175 b 1533 -160 1521 -164 1525 -160 b 1543 -164 1538 -160 1540 -161 b 1549 -192 1547 -167 1549 -176 l 1549 -239 b 1550 -239 1549 -239 1549 -239 l 1561 -239 b 1561 -239 1561 -239 1561 -239 l 1561 -183 b 1563 -174 1561 -181 1561 -176 b 1578 -160 1565 -165 1569 -160 b 1589 -165 1583 -160 1588 -162 b 1594 -203 1592 -168 1594 -181 l 1594 -239 b 1594 -239 1594 -239 1594 -239 l 1606 -239 b 1606 -239 1606 -239 1606 -239 l 1606 -196 b 1604 -171 1606 -185 1606 -176 b 1581 -154 1600 -160 1593 -154 l 1576 -154 b 1564 -157 1572 -154 1568 -154 b 1557 -165 1560 -160 1557 -162 b 1557 -162 1557 -164 1557 -164 b 1536 -154 1551 -157 1546 -154 l 1532 -154 b 1517 -158 1526 -154 1521 -156 l 1517 -153 z m 1299 -153 b 1288 -154 1294 -153 1292 -153 b 1268 -189 1275 -158 1268 -171 l 1268 -204 b 1297 -239 1268 -228 1278 -239 l 1318 -239 b 1322 -225 1318 -239 1319 -233 b 1303 -232 1315 -229 1308 -232 l 1300 -232 b 1290 -231 1296 -232 1293 -232 b 1281 -204 1283 -228 1281 -219 l 1281 -203 b 1313 -196 1301 -199 1313 -196 b 1326 -193 1322 -194 1326 -193 l 1326 -190 b 1322 -168 1326 -182 1325 -174 b 1299 -153 1318 -158 1310 -153 z m 1461 -153 b 1447 -156 1456 -153 1450 -154 b 1431 -197 1436 -161 1431 -175 b 1461 -240 1431 -225 1440 -240 b 1490 -197 1481 -240 1490 -225 l 1490 -194 b 1489 -176 1490 -187 1490 -182 b 1461 -153 1485 -161 1476 -153 z m 108 -154 b 136 -232 108 -156 118 -182 b 139 -239 138 -236 138 -239 l 144 -239 b 161 -189 156 -208 161 -192 b 179 -239 174 -222 179 -239 l 185 -239 b 215 -154 204 -185 215 -157 l 208 -154 b 185 -218 200 -176 192 -199 b 161 -154 169 -175 161 -154 l 150 -154 l 149 -154 l 158 -179 l 144 -218 l 133 -187 b 121 -154 125 -165 121 -154 z m 228 -154 b 250 -217 242 -194 249 -217 b 258 -239 254 -231 257 -237 l 264 -239 b 281 -190 264 -237 269 -221 b 290 -215 282 -190 285 -200 b 299 -239 296 -231 299 -239 l 304 -239 l 335 -154 b 333 -154 335 -154 335 -154 l 328 -154 b 304 -218 319 -175 311 -197 b 290 -181 296 -196 292 -183 b 281 -154 285 -164 282 -156 l 268 -154 b 278 -179 268 -154 271 -162 b 275 -185 276 -183 275 -185 b 263 -218 267 -207 263 -218 b 246 -168 263 -217 257 -200 b 240 -154 242 -158 240 -154 z m 347 -154 b 374 -231 347 -156 357 -182 b 376 -239 376 -236 376 -239 l 382 -239 b 400 -189 383 -239 389 -222 b 414 -228 408 -215 414 -228 b 418 -239 417 -235 418 -239 l 424 -239 b 454 -154 444 -183 454 -154 l 447 -154 b 432 -194 446 -156 442 -169 b 424 -218 426 -211 424 -218 b 406 -168 413 -187 407 -171 b 400 -154 403 -158 400 -154 l 389 -154 l 388 -154 l 396 -179 l 382 -218 b 369 -185 375 -197 371 -186 b 360 -154 363 -164 360 -154 z m 503 -154 b 497 -168 501 -154 500 -158 b 500 -167 499 -168 499 -167 b 519 -160 504 -162 511 -160 b 533 -164 525 -160 531 -161 b 538 -176 536 -168 538 -172 b 511 -181 528 -176 519 -178 b 493 -210 500 -186 493 -194 l 493 -214 b 494 -222 493 -217 494 -219 b 517 -240 499 -233 506 -240 b 539 -232 526 -240 533 -237 b 543 -239 540 -235 542 -237 b 553 -239 544 -239 549 -239 l 554 -239 b 550 -226 551 -236 550 -232 l 550 -192 b 550 -176 550 -186 550 -181 b 522 -154 547 -161 538 -154 z m 718 -154 b 714 -168 718 -154 717 -158 b 715 -167 714 -168 715 -168 b 736 -160 721 -162 728 -160 b 750 -164 743 -160 747 -161 b 754 -176 753 -168 754 -172 b 726 -182 743 -176 733 -178 b 710 -211 715 -186 710 -196 l 710 -212 b 711 -224 710 -215 710 -219 b 733 -240 715 -235 722 -240 b 756 -231 742 -240 750 -236 b 760 -239 757 -236 758 -239 b 769 -239 761 -239 764 -239 b 767 -225 768 -236 767 -232 l 767 -190 b 764 -168 767 -182 765 -174 b 739 -154 758 -158 751 -154 z m 1004 -154 b 1000 -168 1004 -154 1003 -158 b 1000 -168 1000 -168 1000 -168 b 1022 -160 1007 -162 1014 -160 b 1036 -165 1028 -160 1033 -161 b 1040 -176 1038 -167 1039 -171 l 1039 -176 b 1011 -182 1028 -176 1018 -179 b 996 -211 1000 -187 996 -197 b 997 -224 996 -217 996 -221 b 1019 -240 1001 -235 1008 -240 b 1042 -231 1028 -240 1035 -236 b 1044 -239 1042 -233 1042 -236 b 1056 -239 1046 -239 1050 -239 b 1053 -229 1054 -235 1053 -232 l 1053 -199 b 1050 -172 1053 -186 1053 -176 b 1025 -154 1046 -160 1038 -154 z m 1394 -154 b 1381 -157 1389 -154 1385 -154 b 1365 -196 1371 -162 1365 -175 b 1369 -222 1365 -207 1367 -215 b 1396 -239 1374 -233 1382 -239 l 1415 -239 b 1419 -225 1417 -239 1418 -235 b 1401 -232 1413 -229 1407 -232 l 1397 -232 b 1385 -228 1390 -232 1386 -231 b 1379 -197 1381 -226 1379 -215 b 1382 -167 1379 -181 1381 -169 b 1400 -160 1385 -162 1390 -160 b 1419 -168 1406 -160 1413 -162 b 1415 -154 1418 -158 1417 -154 z m 1208 -179 b 1210 -172 1208 -178 1208 -175 b 1225 -160 1211 -164 1217 -160 l 1226 -160 b 1236 -162 1229 -160 1233 -161 b 1243 -192 1240 -167 1243 -176 b 1239 -225 1243 -207 1242 -218 b 1226 -233 1238 -231 1232 -233 b 1218 -232 1224 -233 1221 -232 b 1208 -214 1211 -228 1208 -222 z m 1281 -192 b 1283 -169 1281 -183 1281 -175 b 1297 -160 1286 -162 1290 -160 b 1303 -161 1299 -160 1300 -160 b 1314 -187 1311 -165 1314 -174 l 1314 -189 l 1281 -194 z m 1443 -194 b 1447 -171 1443 -183 1444 -175 b 1461 -160 1449 -162 1454 -160 b 1469 -162 1464 -160 1467 -161 b 1478 -194 1475 -167 1478 -176 l 1478 -199 b 1475 -222 1478 -208 1476 -217 b 1461 -233 1472 -229 1468 -233 b 1451 -231 1457 -233 1454 -232 b 1443 -199 1446 -226 1443 -217 z m 506 -210 b 510 -192 506 -203 507 -197 b 539 -183 515 -186 525 -183 b 539 -189 539 -186 539 -187 l 539 -221 b 521 -231 535 -228 528 -231 b 506 -210 510 -231 506 -224 z m 722 -208 b 726 -193 722 -203 724 -197 b 754 -183 731 -187 740 -183 l 754 -185 l 754 -221 b 736 -231 751 -228 744 -231 l 733 -231 b 722 -211 725 -229 722 -222 z m 1007 -211 b 1010 -196 1007 -204 1008 -200 b 1040 -183 1014 -187 1025 -183 l 1040 -221 b 1022 -231 1036 -228 1031 -231 b 1007 -211 1013 -231 1007 -224 z m 475 -224 l 474 -224 b 467 -231 468 -225 467 -228 l 467 -233 b 474 -239 468 -237 471 -239 b 476 -239 475 -239 476 -239 b 482 -232 479 -237 482 -235 l 482 -231 b 475 -224 481 -226 478 -224 z m 1347 -224 l 1346 -224 b 1339 -232 1342 -225 1339 -228 b 1339 -233 1339 -232 1339 -232 b 1346 -239 1340 -237 1343 -239 l 1349 -239 b 1354 -232 1353 -237 1354 -235 b 1354 -229 1354 -232 1354 -231 b 1347 -224 1351 -225 1350 -224 z "},"%":{"ha":1529,"x_min":0,"x_max":0,"o":"m 1311 515 l 1068 515 l 886 333 l 886 182 l 1068 -1 l 1311 -1 l 1493 182 l 1493 333 z m 1250 182 l 1129 182 l 1129 333 l 1250 333 z m 643 789 l 460 971 l 278 971 l 217 971 l 35 789 l 35 638 l 217 454 l 460 454 l 643 638 z m 400 638 l 278 638 l 278 789 l 400 789 z m 764 971 l 521 -1 l 764 -1 l 1007 971 z "},"&":{"ha":1685,"x_min":0,"x_max":0,"o":"m 522 925 b 501 919 514 925 507 924 b 478 849 486 911 478 888 l 478 842 b 482 801 478 828 479 814 b 521 765 488 778 501 765 b 539 769 528 765 535 767 b 565 840 557 778 565 801 l 565 850 b 560 896 565 868 564 883 b 522 925 554 915 542 925 z m 1304 925 b 1286 921 1297 925 1290 924 b 1261 846 1269 913 1261 888 b 1265 799 1261 826 1263 811 b 1304 765 1272 776 1285 765 b 1324 769 1313 765 1318 767 b 1349 844 1340 778 1349 803 b 1343 893 1349 865 1347 882 b 1304 925 1338 914 1325 925 z m 101 922 b 101 922 101 922 101 922 l 101 768 b 101 768 101 768 101 768 l 115 768 b 115 768 115 768 115 768 l 115 838 l 143 838 b 171 842 156 838 165 839 b 189 879 183 847 189 860 b 186 901 189 888 188 896 b 147 922 181 915 168 922 z m 206 922 b 206 922 206 922 206 922 l 206 768 b 206 768 206 768 206 768 l 276 768 b 279 776 276 768 278 771 l 221 776 l 221 844 l 264 844 b 264 846 264 844 264 846 l 264 853 b 264 854 264 854 264 854 l 221 854 l 221 914 b 221 914 221 914 221 914 l 275 914 b 272 922 274 919 272 922 z m 299 922 b 299 922 299 922 299 922 l 299 768 b 299 768 299 768 299 768 l 313 768 b 313 768 313 768 313 768 l 313 840 l 346 840 b 369 788 351 840 360 824 b 375 768 372 775 374 768 l 389 768 l 390 768 b 361 843 379 808 369 833 b 365 844 363 843 364 844 b 383 882 378 849 383 861 b 381 901 383 889 383 896 b 343 922 376 915 363 922 z m 440 922 b 431 921 438 922 435 922 b 413 893 419 915 413 907 l 413 889 b 425 850 413 879 417 867 b 443 801 438 829 443 813 b 443 794 443 799 443 796 b 425 776 440 782 435 776 l 424 776 b 410 785 419 776 415 779 l 408 785 b 414 768 411 774 413 768 l 425 768 b 439 771 431 768 435 768 b 458 803 451 776 458 788 b 443 850 458 817 453 832 b 428 894 433 868 428 883 l 428 897 b 443 914 428 908 433 914 b 458 907 447 914 451 911 b 458 908 458 908 458 908 b 454 922 457 918 456 922 z m 586 922 b 585 922 585 922 585 922 l 585 768 b 586 768 585 768 585 768 l 593 768 b 593 768 593 768 593 768 l 593 899 b 607 868 601 881 607 871 b 654 768 636 804 653 769 l 665 768 b 665 768 665 768 665 768 l 665 922 b 665 922 665 922 665 922 l 657 922 b 657 922 657 922 657 922 l 657 797 l 656 797 b 599 922 619 878 601 919 z m 732 922 l 725 922 b 681 768 724 918 708 867 b 681 768 681 768 681 768 l 689 768 b 703 814 690 771 694 786 l 749 814 b 758 779 754 793 758 782 b 763 768 761 772 763 768 l 778 768 b 738 903 776 772 764 818 b 732 922 735 915 733 922 z m 797 922 b 797 922 797 922 797 922 l 797 768 b 797 768 797 768 797 768 l 868 768 b 869 776 868 768 869 771 l 811 776 l 811 922 b 811 922 811 922 811 922 z m 943 922 b 943 922 943 922 943 922 l 943 844 b 951 785 943 815 946 796 b 986 765 957 772 969 765 b 1006 769 994 765 1000 767 b 1019 788 1011 772 1015 779 b 1025 854 1022 794 1025 817 l 1025 922 b 1025 922 1025 922 1025 922 l 1015 922 b 1015 922 1015 922 1015 922 l 1015 833 b 1011 788 1015 810 1014 796 b 988 774 1007 779 999 774 b 967 783 976 774 969 778 b 958 836 961 789 958 807 l 958 922 b 958 922 958 922 958 922 z m 1074 922 b 1064 921 1071 922 1068 922 b 1044 892 1051 917 1044 907 b 1058 849 1044 879 1050 865 b 1075 803 1069 829 1075 814 l 1075 801 b 1075 801 1075 801 1075 801 b 1075 800 1075 800 1075 800 l 1075 797 b 1057 776 1074 783 1068 776 l 1056 776 b 1042 785 1053 776 1047 779 b 1046 768 1044 774 1046 768 l 1057 768 b 1071 771 1063 768 1067 768 b 1090 803 1085 776 1090 788 b 1075 850 1090 815 1085 832 b 1060 896 1065 868 1060 883 b 1075 914 1060 908 1065 914 b 1092 907 1079 914 1085 911 b 1092 908 1092 908 1092 908 b 1088 922 1089 918 1088 922 z m 1115 922 b 1114 922 1115 922 1114 922 l 1114 768 b 1115 768 1114 768 1114 768 l 1186 768 b 1188 776 1186 768 1186 771 b 1188 776 1188 776 1188 776 l 1129 776 l 1129 844 l 1172 844 b 1174 846 1172 844 1174 846 l 1174 853 b 1172 854 1174 854 1172 854 l 1129 854 l 1129 914 l 1183 914 b 1181 922 1182 919 1182 922 z m 1368 922 b 1368 922 1368 922 1368 922 l 1368 768 b 1368 768 1368 768 1368 768 l 1375 768 b 1376 768 1376 768 1376 768 l 1376 899 b 1426 789 1408 828 1425 792 b 1436 768 1432 775 1436 768 l 1447 768 b 1447 768 1447 768 1447 768 l 1447 922 b 1447 922 1447 922 1447 922 l 1440 922 b 1439 922 1440 922 1439 922 l 1439 797 b 1389 907 1408 865 1392 901 b 1382 922 1385 917 1382 922 z m 1468 922 b 1467 922 1468 922 1468 922 l 1467 768 b 1468 768 1467 768 1468 768 l 1538 768 b 1540 776 1539 768 1539 771 l 1482 776 l 1482 922 b 1482 922 1482 922 1482 922 z m 1522 922 b 1560 846 1547 872 1560 847 l 1560 768 b 1561 768 1560 768 1560 768 l 1575 768 b 1575 768 1575 768 1575 768 l 1575 847 b 1613 922 1600 897 1613 922 l 1603 922 b 1571 857 1583 883 1574 861 b 1538 922 1549 900 1538 922 z m 493 846 b 497 897 493 871 494 889 b 521 917 501 910 508 917 l 522 917 b 543 906 532 917 539 913 b 550 846 549 899 550 879 b 544 789 550 815 549 796 b 522 774 542 779 533 774 b 500 788 511 774 504 779 b 493 846 496 794 493 814 z m 1276 851 b 1282 901 1276 876 1278 893 b 1304 917 1286 911 1293 917 l 1306 917 b 1324 908 1314 917 1319 914 b 1333 851 1331 903 1333 883 l 1333 839 b 1329 790 1333 815 1332 800 b 1306 774 1325 779 1317 774 b 1285 783 1296 774 1289 778 b 1276 839 1279 790 1276 808 z m 115 914 l 140 914 b 161 911 151 914 160 913 b 172 879 168 907 172 897 b 168 856 172 868 171 860 b 146 846 165 849 157 846 l 115 846 z m 313 914 l 336 914 b 358 910 347 914 354 913 b 367 882 364 907 367 897 b 361 857 367 868 365 860 b 336 850 358 851 350 850 l 313 850 z m 725 893 b 746 822 726 890 733 867 l 706 822 b 725 893 719 869 725 893 z m 1140 674 b 1132 667 1139 672 1136 671 b 1124 647 1131 665 1128 658 b 1060 456 1099 582 1076 518 b 1043 385 1051 428 1046 404 b 1032 361 1042 378 1039 369 b 1007 326 1026 350 1018 339 b 971 303 992 310 981 303 l 969 303 b 957 307 965 303 961 304 b 944 322 949 315 944 319 b 949 325 944 324 946 325 b 968 335 956 328 963 331 b 992 357 974 338 982 346 b 1013 390 1000 369 1007 381 b 1033 474 1026 424 1033 451 l 1033 475 b 1032 492 1033 481 1033 486 b 1006 513 1026 506 1018 513 b 971 489 994 513 983 504 b 901 335 949 456 925 406 b 904 358 901 340 903 349 b 924 440 910 390 917 418 b 983 601 942 500 961 553 b 993 622 990 614 993 621 b 990 625 992 624 992 625 b 982 642 988 629 985 635 b 971 660 979 654 976 660 l 969 660 b 965 658 969 660 968 660 b 942 647 960 650 953 647 b 896 644 939 646 922 644 b 794 639 856 644 821 643 b 760 633 788 639 775 638 b 711 576 728 624 711 606 b 713 567 711 575 711 571 b 719 544 714 557 717 550 b 728 558 722 549 724 554 l 735 568 b 769 590 746 578 757 585 b 910 610 806 603 853 610 l 939 610 b 942 608 940 610 942 610 b 894 463 922 554 907 506 b 854 243 867 367 854 293 l 854 233 b 857 210 854 222 854 214 b 874 193 860 203 865 197 b 886 186 881 188 885 186 b 897 211 889 186 893 194 b 917 301 904 254 911 285 b 921 311 918 308 919 311 l 922 308 b 940 285 928 300 935 292 b 964 271 947 275 956 271 b 1000 285 975 271 986 275 b 1028 306 1010 290 1018 297 b 1025 246 1026 282 1025 261 l 1025 243 b 1026 225 1025 233 1025 226 b 1039 215 1028 221 1032 218 b 1049 208 1044 211 1047 208 l 1050 208 b 1058 222 1051 208 1056 214 b 1082 286 1064 240 1071 261 b 1149 429 1097 324 1119 372 b 1144 414 1147 426 1147 421 b 1122 286 1131 361 1122 318 l 1122 282 b 1128 249 1122 269 1125 258 b 1201 196 1142 214 1167 196 b 1233 201 1213 196 1224 197 b 1249 217 1240 204 1244 208 b 1204 229 1233 217 1218 221 b 1163 306 1176 249 1163 274 l 1163 311 b 1200 450 1163 354 1175 401 b 1210 474 1207 463 1210 471 l 1210 475 b 1194 483 1208 481 1203 483 l 1186 483 b 1178 485 1186 483 1183 485 l 1176 485 b 1129 450 1161 485 1146 474 b 1075 346 1113 428 1094 393 b 1069 333 1072 338 1071 333 b 1072 363 1069 336 1071 346 b 1092 449 1079 396 1085 424 b 1154 614 1111 511 1132 567 b 1164 636 1161 628 1164 635 b 1163 639 1164 636 1164 638 b 1151 664 1157 646 1154 654 b 1144 674 1150 668 1147 672 z m 1371 672 b 1356 668 1363 669 1358 668 b 1349 663 1351 667 1349 665 b 1343 647 1347 660 1346 654 b 1340 640 1342 643 1342 640 b 1322 636 1340 639 1335 638 b 1292 617 1303 633 1292 626 b 1292 613 1292 615 1292 614 b 1301 603 1294 607 1297 604 l 1301 604 b 1311 617 1304 608 1307 613 b 1333 625 1318 622 1325 625 l 1335 625 b 1335 624 1335 625 1335 625 b 1321 583 1331 610 1326 596 b 1311 549 1314 567 1311 556 b 1313 538 1311 544 1311 542 b 1325 522 1318 528 1322 522 b 1344 539 1329 522 1335 528 l 1344 536 b 1354 522 1347 528 1351 522 b 1361 526 1356 522 1358 524 b 1382 554 1367 533 1374 543 b 1369 524 1379 549 1375 538 b 1353 472 1358 499 1353 481 b 1354 463 1353 469 1353 467 b 1367 450 1357 457 1361 451 b 1365 460 1367 451 1365 456 b 1376 507 1365 468 1369 483 b 1413 593 1388 536 1400 564 b 1406 597 1413 594 1410 596 b 1397 593 1403 597 1401 596 b 1368 554 1394 589 1385 576 b 1360 546 1365 549 1363 546 b 1365 561 1361 551 1363 556 b 1381 590 1374 575 1378 585 b 1363 578 1372 588 1365 583 b 1339 551 1357 569 1349 561 b 1329 544 1333 546 1331 544 b 1325 549 1328 544 1326 546 b 1329 560 1325 549 1326 553 b 1354 625 1335 578 1343 600 b 1360 628 1356 628 1357 628 l 1363 628 b 1385 629 1369 628 1378 629 b 1436 624 1403 629 1419 626 b 1456 617 1447 621 1453 618 b 1457 619 1457 617 1457 618 b 1443 631 1457 622 1453 626 b 1372 640 1419 638 1396 640 l 1365 640 b 1363 642 1364 640 1363 640 l 1363 643 b 1374 669 1369 660 1374 668 l 1374 671 b 1371 672 1374 672 1372 672 z m 596 619 b 554 607 583 619 569 615 b 525 588 546 603 536 596 b 472 535 513 578 494 561 b 429 476 456 514 442 494 b 419 467 426 469 422 467 b 407 467 413 467 408 467 b 308 471 358 469 326 471 b 232 463 272 471 247 468 b 193 408 206 453 193 435 b 199 379 193 400 194 390 b 208 394 203 386 206 390 b 347 433 231 421 278 433 b 403 432 383 433 401 433 b 390 407 403 431 399 422 b 358 329 379 385 369 358 b 333 178 342 274 333 224 b 379 40 333 122 349 76 b 517 -17 413 1 458 -17 l 525 -17 b 685 13 565 -17 618 -7 b 829 60 719 24 768 40 b 1147 125 957 103 1063 125 l 1149 125 b 1336 71 1233 125 1296 107 l 1338 71 l 1338 72 b 1315 107 1338 81 1329 92 b 1292 128 1307 115 1299 122 b 1257 147 1279 136 1268 143 b 1135 171 1221 163 1181 171 l 1133 171 b 1024 157 1101 171 1065 167 b 882 118 975 146 928 133 l 731 71 b 517 26 636 42 564 26 l 515 26 b 428 57 485 26 456 38 b 371 178 390 88 371 128 b 385 272 371 203 376 233 b 419 385 394 313 406 350 b 439 431 431 411 436 426 b 457 433 439 431 444 432 b 490 442 472 436 483 439 b 521 454 492 442 503 446 b 607 544 563 475 590 504 b 619 594 613 558 617 575 l 619 599 b 618 603 619 600 619 601 b 596 619 615 614 608 619 z m 1481 600 b 1481 599 1481 600 1481 600 b 1483 575 1483 589 1483 581 b 1479 553 1483 567 1482 560 b 1465 539 1475 544 1469 540 l 1464 539 b 1461 543 1463 539 1463 540 b 1461 546 1461 544 1461 544 b 1478 575 1472 554 1478 564 l 1478 578 b 1469 589 1478 585 1475 589 l 1468 589 b 1463 586 1467 589 1465 588 b 1451 546 1456 574 1451 560 b 1451 540 1451 544 1451 543 b 1465 531 1456 533 1461 531 l 1469 531 b 1479 535 1472 531 1476 532 b 1494 569 1490 546 1494 557 b 1493 578 1494 572 1494 575 b 1481 600 1492 593 1488 600 z m 1422 593 b 1419 592 1422 593 1421 593 b 1407 564 1418 589 1414 579 b 1372 464 1385 508 1374 475 l 1372 463 b 1378 453 1372 460 1374 456 l 1379 453 b 1382 457 1379 453 1381 454 b 1414 525 1388 474 1399 496 b 1419 536 1418 532 1419 536 b 1421 536 1421 536 1421 536 b 1432 531 1425 533 1429 531 l 1433 531 b 1440 533 1435 531 1438 532 b 1447 563 1444 539 1447 549 l 1447 567 b 1439 590 1447 583 1444 590 b 1438 590 1439 590 1439 590 l 1424 565 b 1410 539 1415 549 1411 540 b 1425 575 1414 553 1419 564 b 1432 588 1429 582 1432 588 b 1424 593 1432 590 1429 592 z m 457 468 l 457 469 b 476 496 463 478 468 486 b 521 542 486 507 501 522 b 588 589 546 561 568 578 b 586 582 588 585 586 582 b 576 549 586 575 582 564 b 563 524 572 542 568 533 b 533 494 556 515 546 506 b 464 468 508 478 486 468 z m 1469 575 l 1471 575 b 1464 558 1471 569 1468 564 b 1464 560 1464 558 1464 560 b 1469 575 1464 564 1467 569 z m 1436 568 l 1438 568 b 1438 564 1438 568 1438 567 l 1438 558 b 1435 546 1438 554 1438 550 b 1422 540 1433 543 1429 540 b 1436 568 1431 556 1435 564 z m 746 519 b 735 517 742 519 738 518 b 715 489 722 511 715 501 b 743 453 715 472 725 460 b 749 449 746 451 749 450 b 753 415 751 435 753 424 l 753 406 b 732 288 753 371 746 331 b 717 256 726 269 721 258 b 713 261 715 256 714 257 b 704 304 707 272 704 286 l 704 311 b 717 385 704 333 708 358 b 729 415 721 397 725 407 b 738 428 735 424 738 428 l 738 429 l 736 429 b 722 433 732 432 726 433 b 708 428 717 433 713 432 b 693 406 703 422 697 414 b 672 432 689 424 682 432 b 636 400 663 432 650 422 b 613 351 626 386 619 369 b 599 269 603 321 599 293 b 601 244 599 261 599 253 b 614 228 604 236 608 231 b 624 224 619 226 622 225 b 633 215 628 218 631 215 l 635 215 b 644 224 638 215 640 218 b 681 321 656 239 667 271 l 681 315 b 685 257 681 286 682 267 b 700 239 689 247 693 242 b 711 229 703 238 707 235 b 725 218 717 222 721 218 b 767 292 739 218 753 243 b 782 417 776 340 782 382 b 782 440 782 426 782 435 b 783 443 782 443 782 443 b 842 461 807 449 826 456 b 842 461 842 461 842 461 b 835 449 839 457 836 453 b 813 356 829 428 822 397 b 783 203 793 271 783 219 l 783 199 b 796 165 783 188 788 176 b 839 144 807 151 822 144 l 842 144 b 844 146 843 144 843 144 l 844 147 b 826 229 832 174 826 201 b 872 460 826 279 842 356 b 879 488 878 475 879 485 l 879 492 b 865 504 876 500 871 504 b 853 497 861 504 857 501 b 842 489 847 492 843 489 b 822 481 840 488 835 486 b 781 469 806 476 792 472 b 776 476 779 469 778 472 b 768 501 775 486 772 494 b 746 519 764 513 756 519 z m 1329 508 b 1317 497 1326 508 1322 504 b 1310 492 1313 494 1310 493 b 1293 460 1307 492 1303 481 b 1293 460 1293 460 1293 460 b 1271 490 1288 481 1281 490 b 1242 472 1263 490 1253 483 b 1221 440 1235 464 1228 454 b 1196 379 1213 424 1203 404 b 1183 308 1188 347 1183 324 l 1183 306 b 1189 282 1183 297 1185 289 b 1197 276 1192 278 1194 276 b 1210 267 1203 275 1207 271 b 1219 257 1213 261 1215 257 b 1231 265 1224 257 1228 260 b 1274 365 1242 283 1256 317 l 1274 364 b 1274 360 1274 364 1274 363 b 1264 303 1268 340 1264 322 b 1269 256 1264 288 1265 272 b 1293 201 1274 233 1282 215 b 1356 172 1313 182 1332 172 b 1444 240 1389 172 1418 194 b 1467 293 1453 256 1460 274 b 1482 383 1478 329 1482 358 l 1482 389 b 1471 438 1482 408 1479 425 b 1431 458 1461 451 1449 458 b 1403 450 1421 458 1413 456 b 1379 429 1399 449 1390 440 b 1360 404 1371 419 1364 411 b 1338 340 1344 378 1338 357 l 1338 339 b 1342 317 1338 332 1339 324 b 1349 300 1344 313 1346 307 b 1374 261 1353 274 1361 261 b 1388 265 1378 261 1382 263 b 1385 268 1386 265 1386 267 b 1375 308 1378 279 1375 292 b 1399 407 1375 338 1383 371 b 1418 438 1407 428 1414 438 b 1426 425 1421 438 1424 433 b 1432 354 1431 403 1432 379 l 1432 349 b 1397 217 1432 292 1421 247 b 1383 203 1394 213 1389 207 b 1344 186 1368 192 1356 186 l 1342 186 b 1317 196 1333 186 1325 189 b 1294 272 1303 213 1294 238 b 1318 408 1294 308 1303 354 b 1338 493 1331 453 1338 481 b 1338 503 1338 497 1338 500 b 1331 508 1336 507 1333 508 z m 938 354 b 960 407 938 360 946 378 b 988 456 969 424 978 440 b 1004 478 993 465 999 474 b 992 432 999 458 996 443 b 974 392 986 415 981 401 b 956 365 969 382 964 374 b 939 354 949 360 943 356 z m 1215 310 b 1218 336 1215 314 1217 322 b 1232 388 1222 357 1226 374 b 1261 450 1240 411 1250 432 b 1274 467 1267 461 1272 467 l 1275 465 b 1283 443 1279 461 1281 453 l 1283 442 l 1250 365 b 1217 294 1233 329 1224 306 b 1215 306 1215 299 1215 303 z m 593 447 b 586 446 590 447 589 447 b 568 417 582 440 576 432 b 496 210 547 369 522 301 b 494 211 496 210 496 210 b 510 306 494 235 500 267 b 536 388 518 339 526 365 b 549 417 544 406 549 414 b 546 419 549 418 547 418 b 531 426 539 424 535 425 l 529 426 b 514 411 525 426 521 421 b 438 251 493 376 468 322 l 438 253 b 475 375 438 274 450 314 b 486 401 482 390 486 400 b 483 406 486 403 486 404 b 461 410 482 407 474 408 b 435 358 457 410 447 392 b 406 239 415 301 406 263 l 406 235 b 422 199 406 218 411 206 b 442 192 429 194 436 192 b 442 192 442 192 442 192 b 446 203 443 192 444 196 b 476 289 451 224 463 253 l 476 288 b 463 181 467 244 463 210 b 482 104 463 143 469 117 b 496 97 488 100 492 97 l 497 97 b 499 100 499 97 499 97 l 499 101 l 499 106 b 513 190 499 124 504 153 b 551 315 525 236 538 278 l 553 315 l 553 314 b 549 293 553 313 551 306 b 532 201 538 247 532 217 b 547 157 532 181 538 165 b 558 146 550 154 554 150 b 583 128 565 133 574 128 b 597 131 588 128 593 129 b 640 149 613 139 628 144 b 699 165 657 156 676 161 b 746 171 724 169 739 171 l 746 172 b 693 193 735 186 717 193 b 611 175 675 193 649 188 b 576 165 592 168 579 165 b 571 167 574 165 572 165 b 565 194 567 171 565 181 b 572 265 565 217 568 240 b 608 404 583 319 596 367 b 618 438 614 422 617 433 b 613 443 618 440 615 442 b 593 447 601 446 594 447 z m 356 415 l 354 415 b 344 408 353 415 350 414 b 328 393 339 406 333 400 b 306 349 325 390 318 375 b 288 372 303 364 296 372 l 286 372 b 256 354 278 372 268 367 b 232 322 246 344 238 333 b 204 264 221 306 213 286 b 188 193 193 232 188 207 l 188 189 b 192 169 188 181 189 175 b 199 164 193 167 196 165 b 211 154 204 163 208 160 b 221 144 214 147 217 144 b 235 156 225 144 231 147 b 269 222 244 172 256 194 b 279 240 275 233 278 240 l 279 239 b 271 138 274 190 271 157 l 271 131 b 283 83 271 113 275 97 b 326 60 294 68 308 60 b 338 63 333 60 338 61 b 336 65 338 64 338 64 b 310 186 318 100 310 139 l 310 194 b 338 328 310 233 318 278 b 363 401 354 367 363 392 l 363 406 b 356 415 361 413 360 415 z m 626 265 b 628 272 626 265 626 268 b 636 324 631 296 633 313 b 653 375 642 347 647 364 b 669 400 660 390 665 399 l 672 400 b 679 381 676 392 679 386 b 675 365 679 376 678 372 b 643 269 661 321 650 289 b 633 246 639 254 635 246 l 632 246 b 626 265 629 246 628 253 z m 219 189 b 224 218 219 200 221 210 b 235 256 224 222 228 235 b 276 336 246 288 261 314 b 289 349 282 344 286 349 b 290 347 289 349 289 349 b 296 328 293 339 296 333 b 293 318 296 325 294 321 b 231 199 275 285 256 246 b 219 182 226 192 224 186 b 219 189 219 182 219 185 z m 581 -114 b 568 -119 572 -117 568 -118 l 568 -239 b 569 -239 568 -239 568 -239 l 579 -239 b 581 -239 581 -239 581 -239 l 581 -115 z m 860 -114 b 849 -119 853 -117 849 -118 l 849 -239 b 849 -239 849 -239 849 -239 l 860 -239 b 860 -239 860 -239 860 -239 l 860 -194 l 864 -190 l 865 -190 b 899 -239 871 -201 882 -217 l 913 -239 l 874 -183 l 874 -182 b 904 -154 893 -164 904 -154 l 894 -154 l 860 -185 l 860 -115 z m 936 -114 b 924 -119 928 -117 924 -118 l 924 -239 b 924 -239 924 -239 924 -239 l 935 -239 b 936 -239 936 -239 936 -239 l 936 -179 b 936 -175 936 -178 936 -176 b 953 -160 939 -165 944 -160 b 961 -162 956 -160 960 -161 b 969 -192 967 -165 969 -176 l 969 -239 b 969 -239 969 -239 969 -239 l 982 -239 b 982 -239 982 -239 982 -239 l 982 -189 b 979 -172 982 -183 981 -178 b 956 -154 975 -160 968 -154 l 953 -154 b 936 -160 946 -154 940 -156 l 936 -115 z m 1086 -132 b 1075 -137 1078 -135 1075 -137 l 1075 -154 l 1063 -154 b 1063 -154 1063 -154 1063 -154 l 1063 -160 b 1063 -160 1063 -160 1063 -160 l 1075 -160 l 1075 -201 b 1081 -232 1075 -217 1076 -226 b 1103 -239 1082 -236 1090 -239 l 1110 -239 b 1113 -226 1110 -239 1111 -235 b 1100 -232 1107 -231 1103 -232 l 1097 -232 b 1092 -231 1096 -232 1093 -232 b 1086 -203 1088 -229 1086 -219 l 1086 -160 l 1101 -160 b 1101 -160 1101 -160 1101 -160 l 1101 -154 b 1101 -154 1101 -154 1101 -154 l 1086 -154 l 1086 -132 z m 1226 -153 b 1207 -160 1218 -153 1211 -156 l 1203 -156 b 1194 -160 1199 -157 1194 -158 b 1196 -171 1196 -162 1196 -167 l 1196 -281 l 1197 -281 b 1208 -275 1204 -276 1208 -275 l 1208 -235 b 1226 -240 1214 -237 1219 -240 b 1242 -236 1232 -240 1238 -239 b 1254 -199 1250 -232 1254 -219 l 1254 -194 b 1251 -168 1254 -182 1254 -174 b 1226 -153 1247 -158 1239 -153 z m 607 -153 b 594 -158 599 -156 594 -157 l 594 -239 b 596 -239 594 -239 594 -239 l 607 -239 b 607 -239 607 -239 607 -239 l 607 -179 b 608 -174 607 -178 607 -175 b 624 -160 610 -165 615 -160 b 635 -165 629 -160 633 -162 b 639 -203 638 -168 639 -181 l 639 -239 b 640 -239 639 -239 639 -239 l 651 -239 b 651 -239 651 -239 651 -239 l 651 -179 b 668 -160 653 -167 658 -160 b 679 -164 672 -160 676 -161 b 683 -194 682 -168 683 -178 l 683 -239 b 685 -239 683 -239 685 -239 l 696 -239 b 696 -239 696 -239 696 -239 l 696 -192 b 693 -168 696 -182 694 -175 b 671 -154 689 -158 682 -154 l 667 -154 b 656 -156 664 -154 660 -154 b 647 -165 651 -160 647 -162 b 647 -164 647 -164 647 -164 b 626 -154 643 -157 636 -154 l 622 -154 b 607 -158 617 -154 611 -156 l 607 -153 z m 794 -153 b 782 -158 786 -156 782 -157 l 782 -239 b 782 -239 782 -239 782 -239 l 793 -239 b 794 -239 794 -239 794 -239 l 794 -211 b 796 -182 794 -200 794 -190 b 815 -160 800 -168 806 -160 b 836 -168 822 -160 829 -162 b 831 -154 833 -158 832 -154 l 814 -154 b 808 -154 813 -154 810 -154 b 794 -164 800 -157 796 -160 l 794 -153 z m 1133 -153 b 1121 -158 1126 -156 1122 -157 l 1121 -200 b 1125 -224 1121 -210 1122 -218 b 1149 -239 1129 -235 1138 -239 l 1150 -239 b 1168 -233 1157 -239 1163 -237 l 1168 -236 b 1167 -253 1168 -242 1168 -247 b 1150 -272 1164 -267 1158 -272 l 1147 -272 b 1129 -265 1143 -272 1136 -269 b 1133 -279 1132 -275 1133 -279 l 1151 -279 b 1161 -276 1154 -279 1157 -279 b 1179 -237 1174 -272 1179 -258 l 1179 -153 b 1168 -158 1172 -156 1168 -157 l 1168 -211 b 1168 -217 1168 -212 1168 -214 b 1151 -232 1165 -226 1160 -232 l 1149 -232 b 1140 -229 1144 -232 1142 -231 b 1133 -196 1136 -225 1133 -214 l 1133 -153 z m 1517 -153 b 1504 -158 1508 -156 1504 -157 l 1504 -239 b 1506 -239 1504 -239 1504 -239 l 1517 -239 b 1517 -239 1517 -239 1517 -239 l 1517 -181 b 1518 -172 1517 -178 1517 -175 b 1533 -160 1521 -164 1525 -160 b 1543 -164 1538 -160 1540 -161 b 1549 -192 1547 -167 1549 -176 l 1549 -239 b 1550 -239 1549 -239 1549 -239 l 1561 -239 b 1561 -239 1561 -239 1561 -239 l 1561 -183 b 1563 -174 1561 -181 1561 -176 b 1578 -160 1565 -165 1569 -160 b 1589 -165 1583 -160 1588 -162 b 1594 -203 1592 -168 1594 -181 l 1594 -239 b 1594 -239 1594 -239 1594 -239 l 1606 -239 b 1606 -239 1606 -239 1606 -239 l 1606 -196 b 1604 -171 1606 -185 1606 -176 b 1581 -154 1600 -160 1593 -154 l 1576 -154 b 1564 -157 1572 -154 1568 -154 b 1557 -165 1560 -160 1557 -162 b 1557 -162 1557 -164 1557 -164 b 1536 -154 1551 -157 1546 -154 l 1532 -154 b 1517 -158 1526 -154 1521 -156 l 1517 -153 z m 1299 -153 b 1288 -154 1294 -153 1292 -153 b 1268 -189 1275 -158 1268 -171 l 1268 -204 b 1297 -239 1268 -228 1278 -239 l 1318 -239 b 1322 -225 1318 -239 1319 -233 b 1303 -232 1315 -229 1308 -232 l 1300 -232 b 1290 -231 1296 -232 1293 -232 b 1281 -204 1283 -228 1281 -219 l 1281 -203 b 1313 -196 1301 -199 1313 -196 b 1326 -193 1322 -194 1326 -193 l 1326 -190 b 1322 -168 1326 -182 1325 -174 b 1299 -153 1318 -158 1310 -153 z m 1461 -153 b 1447 -156 1456 -153 1450 -154 b 1431 -197 1436 -161 1431 -175 b 1461 -240 1431 -225 1440 -240 b 1490 -197 1481 -240 1490 -225 l 1490 -194 b 1489 -176 1490 -187 1490 -182 b 1461 -153 1485 -161 1476 -153 z m 108 -154 b 136 -232 108 -156 118 -182 b 139 -239 138 -236 138 -239 l 144 -239 b 161 -189 156 -208 161 -192 b 179 -239 174 -222 179 -239 l 185 -239 b 215 -154 204 -185 215 -157 l 208 -154 b 185 -218 200 -176 192 -199 b 161 -154 169 -175 161 -154 l 150 -154 l 149 -154 l 158 -179 l 144 -218 l 133 -187 b 121 -154 125 -165 121 -154 z m 228 -154 b 250 -217 242 -194 249 -217 b 258 -239 254 -231 257 -237 l 264 -239 b 281 -190 264 -237 269 -221 b 290 -215 282 -190 285 -200 b 299 -239 296 -231 299 -239 l 304 -239 l 335 -154 b 333 -154 335 -154 335 -154 l 328 -154 b 304 -218 319 -175 311 -197 b 290 -181 296 -196 292 -183 b 281 -154 285 -164 282 -156 l 268 -154 b 278 -179 268 -154 271 -162 b 275 -185 276 -183 275 -185 b 263 -218 267 -207 263 -218 b 246 -168 263 -217 257 -200 b 240 -154 242 -158 240 -154 z m 347 -154 b 374 -231 347 -156 357 -182 b 376 -239 376 -236 376 -239 l 382 -239 b 400 -189 383 -239 389 -222 b 414 -228 408 -215 414 -228 b 418 -239 417 -235 418 -239 l 424 -239 b 454 -154 444 -183 454 -154 l 447 -154 b 432 -194 446 -156 442 -169 b 424 -218 426 -211 424 -218 b 406 -168 413 -187 407 -171 b 400 -154 403 -158 400 -154 l 389 -154 l 388 -154 l 396 -179 l 382 -218 b 369 -185 375 -197 371 -186 b 360 -154 363 -164 360 -154 z m 503 -154 b 497 -168 501 -154 500 -158 b 500 -167 499 -168 499 -167 b 519 -160 504 -162 511 -160 b 533 -164 525 -160 531 -161 b 538 -176 536 -168 538 -172 b 511 -181 528 -176 519 -178 b 493 -210 500 -186 493 -194 l 493 -214 b 494 -222 493 -217 494 -219 b 517 -240 499 -233 506 -240 b 539 -232 526 -240 533 -237 b 543 -239 540 -235 542 -237 b 553 -239 544 -239 549 -239 l 554 -239 b 550 -226 551 -236 550 -232 l 550 -192 b 550 -176 550 -186 550 -181 b 522 -154 547 -161 538 -154 z m 718 -154 b 714 -168 718 -154 717 -158 b 715 -167 714 -168 715 -168 b 736 -160 721 -162 728 -160 b 750 -164 743 -160 747 -161 b 754 -176 753 -168 754 -172 b 726 -182 743 -176 733 -178 b 710 -211 715 -186 710 -196 l 710 -212 b 711 -224 710 -215 710 -219 b 733 -240 715 -235 722 -240 b 756 -231 742 -240 750 -236 b 760 -239 757 -236 758 -239 b 769 -239 761 -239 764 -239 b 767 -225 768 -236 767 -232 l 767 -190 b 764 -168 767 -182 765 -174 b 739 -154 758 -158 751 -154 z m 1004 -154 b 1000 -168 1004 -154 1003 -158 b 1000 -168 1000 -168 1000 -168 b 1022 -160 1007 -162 1014 -160 b 1036 -165 1028 -160 1033 -161 b 1040 -176 1038 -167 1039 -171 l 1039 -176 b 1011 -182 1028 -176 1018 -179 b 996 -211 1000 -187 996 -197 b 997 -224 996 -217 996 -221 b 1019 -240 1001 -235 1008 -240 b 1042 -231 1028 -240 1035 -236 b 1044 -239 1042 -233 1042 -236 b 1056 -239 1046 -239 1050 -239 b 1053 -229 1054 -235 1053 -232 l 1053 -199 b 1050 -172 1053 -186 1053 -176 b 1025 -154 1046 -160 1038 -154 z m 1394 -154 b 1381 -157 1389 -154 1385 -154 b 1365 -196 1371 -162 1365 -175 b 1369 -222 1365 -207 1367 -215 b 1396 -239 1374 -233 1382 -239 l 1415 -239 b 1419 -225 1417 -239 1418 -235 b 1401 -232 1413 -229 1407 -232 l 1397 -232 b 1385 -228 1390 -232 1386 -231 b 1379 -197 1381 -226 1379 -215 b 1382 -167 1379 -181 1381 -169 b 1400 -160 1385 -162 1390 -160 b 1419 -168 1406 -160 1413 -162 b 1415 -154 1418 -158 1417 -154 z m 1208 -179 b 1210 -172 1208 -178 1208 -175 b 1225 -160 1211 -164 1217 -160 l 1226 -160 b 1236 -162 1229 -160 1233 -161 b 1243 -192 1240 -167 1243 -176 b 1239 -225 1243 -207 1242 -218 b 1226 -233 1238 -231 1232 -233 b 1218 -232 1224 -233 1221 -232 b 1208 -214 1211 -228 1208 -222 z m 1281 -192 b 1283 -169 1281 -183 1281 -175 b 1297 -160 1286 -162 1290 -160 b 1303 -161 1299 -160 1300 -160 b 1314 -187 1311 -165 1314 -174 l 1314 -189 l 1281 -194 z m 1443 -194 b 1447 -171 1443 -183 1444 -175 b 1461 -160 1449 -162 1454 -160 b 1469 -162 1464 -160 1467 -161 b 1478 -194 1475 -167 1478 -176 l 1478 -199 b 1475 -222 1478 -208 1476 -217 b 1461 -233 1472 -229 1468 -233 b 1451 -231 1457 -233 1454 -232 b 1443 -199 1446 -226 1443 -217 z m 506 -210 b 510 -192 506 -203 507 -197 b 539 -183 515 -186 525 -183 b 539 -189 539 -186 539 -187 l 539 -221 b 521 -231 535 -228 528 -231 b 506 -210 510 -231 506 -224 z m 722 -208 b 726 -193 722 -203 724 -197 b 754 -183 731 -187 740 -183 l 754 -185 l 754 -221 b 736 -231 751 -228 744 -231 l 733 -231 b 722 -211 725 -229 722 -222 z m 1007 -211 b 1010 -196 1007 -204 1008 -200 b 1040 -183 1014 -187 1025 -183 l 1040 -221 b 1022 -231 1036 -228 1031 -231 b 1007 -211 1013 -231 1007 -224 z m 475 -224 l 474 -224 b 467 -231 468 -225 467 -228 l 467 -233 b 474 -239 468 -237 471 -239 b 476 -239 475 -239 476 -239 b 482 -232 479 -237 482 -235 l 482 -231 b 475 -224 481 -226 478 -224 z m 1347 -224 l 1346 -224 b 1339 -232 1342 -225 1339 -228 b 1339 -233 1339 -232 1339 -232 b 1346 -239 1340 -237 1343 -239 l 1349 -239 b 1354 -232 1353 -237 1354 -235 b 1354 -229 1354 -232 1354 -231 b 1347 -224 1351 -225 1350 -224 z "},"'":{"ha":422,"x_min":0,"x_max":0,"o":"m 93 1093 l 124 728 l 306 728 l 336 1093 z "},"(":{"ha":397,"x_min":0,"x_max":0,"o":"m 501 1032 l 501 1214 l 258 1214 l 76 1032 l 76 -61 l 258 -244 l 501 -244 l 501 -61 l 319 -61 l 319 1032 z "},")":{"ha":397,"x_min":0,"x_max":0,"o":"m 138 1214 l -106 1214 l -106 1032 l 76 1032 l 76 -61 l -106 -61 l -106 -244 l 138 -244 l 319 -61 l 319 1032 z "},"*":{"ha":479,"x_min":0,"x_max":0,"o":"m 440 758 l 385 932 l 299 867 l 331 971 l 147 971 l 179 867 l 94 932 l 38 758 l 143 754 l 58 696 l 206 588 l 239 683 l 272 588 l 419 696 l 335 754 z "},"+":{"ha":760,"x_min":0,"x_max":0,"o":"m 501 425 l 501 668 l 258 668 l 258 425 l 39 425 l 39 242 l 258 242 l 258 -1 l 501 -1 l 501 242 l 719 242 l 719 425 z "},",":{"ha":317,"x_min":0,"x_max":0,"o":"m 38 242 l 38 -122 l 99 -122 l 281 60 l 281 242 z "},"-":{"ha":699,"x_min":0,"x_max":0,"o":"m 665 242 l 665 425 l 33 425 l 33 242 z "},".":{"ha":318,"x_min":0,"x_max":0,"o":"m 38 242 l 38 -1 l 281 -1 l 281 242 z "},"/":{"ha":547,"x_min":0,"x_max":0,"o":"m 274 971 l 31 -1 l 274 -1 l 517 971 z "},":":{"ha":351,"x_min":0,"x_max":0,"o":"m 54 242 l 54 -1 l 297 -1 l 297 242 z m 54 668 l 54 425 l 297 425 l 297 668 z "},";":{"ha":351,"x_min":0,"x_max":0,"o":"m 54 242 l 54 -122 l 115 -122 l 297 60 l 297 242 z m 54 668 l 54 425 l 297 425 l 297 668 z "},"<":{"ha":815,"x_min":0,"x_max":0,"o":"m 763 576 l 46 454 l 46 211 l 763 90 l 763 272 l 404 333 l 763 394 z "},"=":{"ha":726,"x_min":0,"x_max":0,"o":"m 679 90 l 679 272 l 47 272 l 47 90 z m 679 394 l 679 576 l 47 576 l 47 394 z "},">":{"ha":815,"x_min":0,"x_max":0,"o":"m 51 576 l 51 394 l 410 333 l 51 272 l 51 90 l 768 211 l 768 454 z "},"?":{"ha":1685,"x_min":0,"x_max":0,"o":"m 522 925 b 501 919 514 925 507 924 b 478 849 486 911 478 888 l 478 842 b 482 801 478 828 479 814 b 521 765 488 778 501 765 b 539 769 528 765 535 767 b 565 840 557 778 565 801 l 565 850 b 560 896 565 868 564 883 b 522 925 554 915 542 925 z m 1304 925 b 1286 921 1297 925 1290 924 b 1261 846 1269 913 1261 888 b 1265 799 1261 826 1263 811 b 1304 765 1272 776 1285 765 b 1324 769 1313 765 1318 767 b 1349 844 1340 778 1349 803 b 1343 893 1349 865 1347 882 b 1304 925 1338 914 1325 925 z m 101 922 b 101 922 101 922 101 922 l 101 768 b 101 768 101 768 101 768 l 115 768 b 115 768 115 768 115 768 l 115 838 l 143 838 b 171 842 156 838 165 839 b 189 879 183 847 189 860 b 186 901 189 888 188 896 b 147 922 181 915 168 922 z m 206 922 b 206 922 206 922 206 922 l 206 768 b 206 768 206 768 206 768 l 276 768 b 279 776 276 768 278 771 l 221 776 l 221 844 l 264 844 b 264 846 264 844 264 846 l 264 853 b 264 854 264 854 264 854 l 221 854 l 221 914 b 221 914 221 914 221 914 l 275 914 b 272 922 274 919 272 922 z m 299 922 b 299 922 299 922 299 922 l 299 768 b 299 768 299 768 299 768 l 313 768 b 313 768 313 768 313 768 l 313 840 l 346 840 b 369 788 351 840 360 824 b 375 768 372 775 374 768 l 389 768 l 390 768 b 361 843 379 808 369 833 b 365 844 363 843 364 844 b 383 882 378 849 383 861 b 381 901 383 889 383 896 b 343 922 376 915 363 922 z m 440 922 b 431 921 438 922 435 922 b 413 893 419 915 413 907 l 413 889 b 425 850 413 879 417 867 b 443 801 438 829 443 813 b 443 794 443 799 443 796 b 425 776 440 782 435 776 l 424 776 b 410 785 419 776 415 779 l 408 785 b 414 768 411 774 413 768 l 425 768 b 439 771 431 768 435 768 b 458 803 451 776 458 788 b 443 850 458 817 453 832 b 428 894 433 868 428 883 l 428 897 b 443 914 428 908 433 914 b 458 907 447 914 451 911 b 458 908 458 908 458 908 b 454 922 457 918 456 922 z m 586 922 b 585 922 585 922 585 922 l 585 768 b 586 768 585 768 585 768 l 593 768 b 593 768 593 768 593 768 l 593 899 b 607 868 601 881 607 871 b 654 768 636 804 653 769 l 665 768 b 665 768 665 768 665 768 l 665 922 b 665 922 665 922 665 922 l 657 922 b 657 922 657 922 657 922 l 657 797 l 656 797 b 599 922 619 878 601 919 z m 732 922 l 725 922 b 681 768 724 918 708 867 b 681 768 681 768 681 768 l 689 768 b 703 814 690 771 694 786 l 749 814 b 758 779 754 793 758 782 b 763 768 761 772 763 768 l 778 768 b 738 903 776 772 764 818 b 732 922 735 915 733 922 z m 797 922 b 797 922 797 922 797 922 l 797 768 b 797 768 797 768 797 768 l 868 768 b 869 776 868 768 869 771 l 811 776 l 811 922 b 811 922 811 922 811 922 z m 943 922 b 943 922 943 922 943 922 l 943 844 b 951 785 943 815 946 796 b 986 765 957 772 969 765 b 1006 769 994 765 1000 767 b 1019 788 1011 772 1015 779 b 1025 854 1022 794 1025 817 l 1025 922 b 1025 922 1025 922 1025 922 l 1015 922 b 1015 922 1015 922 1015 922 l 1015 833 b 1011 788 1015 810 1014 796 b 988 774 1007 779 999 774 b 967 783 976 774 969 778 b 958 836 961 789 958 807 l 958 922 b 958 922 958 922 958 922 z m 1074 922 b 1064 921 1071 922 1068 922 b 1044 892 1051 917 1044 907 b 1058 849 1044 879 1050 865 b 1075 803 1069 829 1075 814 l 1075 801 b 1075 801 1075 801 1075 801 b 1075 800 1075 800 1075 800 l 1075 797 b 1057 776 1074 783 1068 776 l 1056 776 b 1042 785 1053 776 1047 779 b 1046 768 1044 774 1046 768 l 1057 768 b 1071 771 1063 768 1067 768 b 1090 803 1085 776 1090 788 b 1075 850 1090 815 1085 832 b 1060 896 1065 868 1060 883 b 1075 914 1060 908 1065 914 b 1092 907 1079 914 1085 911 b 1092 908 1092 908 1092 908 b 1088 922 1089 918 1088 922 z m 1115 922 b 1114 922 1115 922 1114 922 l 1114 768 b 1115 768 1114 768 1114 768 l 1186 768 b 1188 776 1186 768 1186 771 b 1188 776 1188 776 1188 776 l 1129 776 l 1129 844 l 1172 844 b 1174 846 1172 844 1174 846 l 1174 853 b 1172 854 1174 854 1172 854 l 1129 854 l 1129 914 l 1183 914 b 1181 922 1182 919 1182 922 z m 1368 922 b 1368 922 1368 922 1368 922 l 1368 768 b 1368 768 1368 768 1368 768 l 1375 768 b 1376 768 1376 768 1376 768 l 1376 899 b 1426 789 1408 828 1425 792 b 1436 768 1432 775 1436 768 l 1447 768 b 1447 768 1447 768 1447 768 l 1447 922 b 1447 922 1447 922 1447 922 l 1440 922 b 1439 922 1440 922 1439 922 l 1439 797 b 1389 907 1408 865 1392 901 b 1382 922 1385 917 1382 922 z m 1468 922 b 1467 922 1468 922 1468 922 l 1467 768 b 1468 768 1467 768 1468 768 l 1538 768 b 1540 776 1539 768 1539 771 l 1482 776 l 1482 922 b 1482 922 1482 922 1482 922 z m 1522 922 b 1560 846 1547 872 1560 847 l 1560 768 b 1561 768 1560 768 1560 768 l 1575 768 b 1575 768 1575 768 1575 768 l 1575 847 b 1613 922 1600 897 1613 922 l 1603 922 b 1571 857 1583 883 1574 861 b 1538 922 1549 900 1538 922 z m 493 846 b 497 897 493 871 494 889 b 521 917 501 910 508 917 l 522 917 b 543 906 532 917 539 913 b 550 846 549 899 550 879 b 544 789 550 815 549 796 b 522 774 542 779 533 774 b 500 788 511 774 504 779 b 493 846 496 794 493 814 z m 1276 851 b 1282 901 1276 876 1278 893 b 1304 917 1286 911 1293 917 l 1306 917 b 1324 908 1314 917 1319 914 b 1333 851 1331 903 1333 883 l 1333 839 b 1329 790 1333 815 1332 800 b 1306 774 1325 779 1317 774 b 1285 783 1296 774 1289 778 b 1276 839 1279 790 1276 808 z m 115 914 l 140 914 b 161 911 151 914 160 913 b 172 879 168 907 172 897 b 168 856 172 868 171 860 b 146 846 165 849 157 846 l 115 846 z m 313 914 l 336 914 b 358 910 347 914 354 913 b 367 882 364 907 367 897 b 361 857 367 868 365 860 b 336 850 358 851 350 850 l 313 850 z m 725 893 b 746 822 726 890 733 867 l 706 822 b 725 893 719 869 725 893 z m 1140 674 b 1132 667 1139 672 1136 671 b 1124 647 1131 665 1128 658 b 1060 456 1099 582 1076 518 b 1043 385 1051 428 1046 404 b 1032 361 1042 378 1039 369 b 1007 326 1026 350 1018 339 b 971 303 992 310 981 303 l 969 303 b 957 307 965 303 961 304 b 944 322 949 315 944 319 b 949 325 944 324 946 325 b 968 335 956 328 963 331 b 992 357 974 338 982 346 b 1013 390 1000 369 1007 381 b 1033 474 1026 424 1033 451 l 1033 475 b 1032 492 1033 481 1033 486 b 1006 513 1026 506 1018 513 b 971 489 994 513 983 504 b 901 335 949 456 925 406 b 904 358 901 340 903 349 b 924 440 910 390 917 418 b 983 601 942 500 961 553 b 993 622 990 614 993 621 b 990 625 992 624 992 625 b 982 642 988 629 985 635 b 971 660 979 654 976 660 l 969 660 b 965 658 969 660 968 660 b 942 647 960 650 953 647 b 896 644 939 646 922 644 b 794 639 856 644 821 643 b 760 633 788 639 775 638 b 711 576 728 624 711 606 b 713 567 711 575 711 571 b 719 544 714 557 717 550 b 728 558 722 549 724 554 l 735 568 b 769 590 746 578 757 585 b 910 610 806 603 853 610 l 939 610 b 942 608 940 610 942 610 b 894 463 922 554 907 506 b 854 243 867 367 854 293 l 854 233 b 857 210 854 222 854 214 b 874 193 860 203 865 197 b 886 186 881 188 885 186 b 897 211 889 186 893 194 b 917 301 904 254 911 285 b 921 311 918 308 919 311 l 922 308 b 940 285 928 300 935 292 b 964 271 947 275 956 271 b 1000 285 975 271 986 275 b 1028 306 1010 290 1018 297 b 1025 246 1026 282 1025 261 l 1025 243 b 1026 225 1025 233 1025 226 b 1039 215 1028 221 1032 218 b 1049 208 1044 211 1047 208 l 1050 208 b 1058 222 1051 208 1056 214 b 1082 286 1064 240 1071 261 b 1149 429 1097 324 1119 372 b 1144 414 1147 426 1147 421 b 1122 286 1131 361 1122 318 l 1122 282 b 1128 249 1122 269 1125 258 b 1201 196 1142 214 1167 196 b 1233 201 1213 196 1224 197 b 1249 217 1240 204 1244 208 b 1204 229 1233 217 1218 221 b 1163 306 1176 249 1163 274 l 1163 311 b 1200 450 1163 354 1175 401 b 1210 474 1207 463 1210 471 l 1210 475 b 1194 483 1208 481 1203 483 l 1186 483 b 1178 485 1186 483 1183 485 l 1176 485 b 1129 450 1161 485 1146 474 b 1075 346 1113 428 1094 393 b 1069 333 1072 338 1071 333 b 1072 363 1069 336 1071 346 b 1092 449 1079 396 1085 424 b 1154 614 1111 511 1132 567 b 1164 636 1161 628 1164 635 b 1163 639 1164 636 1164 638 b 1151 664 1157 646 1154 654 b 1144 674 1150 668 1147 672 z m 1371 672 b 1356 668 1363 669 1358 668 b 1349 663 1351 667 1349 665 b 1343 647 1347 660 1346 654 b 1340 640 1342 643 1342 640 b 1322 636 1340 639 1335 638 b 1292 617 1303 633 1292 626 b 1292 613 1292 615 1292 614 b 1301 603 1294 607 1297 604 l 1301 604 b 1311 617 1304 608 1307 613 b 1333 625 1318 622 1325 625 l 1335 625 b 1335 624 1335 625 1335 625 b 1321 583 1331 610 1326 596 b 1311 549 1314 567 1311 556 b 1313 538 1311 544 1311 542 b 1325 522 1318 528 1322 522 b 1344 539 1329 522 1335 528 l 1344 536 b 1354 522 1347 528 1351 522 b 1361 526 1356 522 1358 524 b 1382 554 1367 533 1374 543 b 1369 524 1379 549 1375 538 b 1353 472 1358 499 1353 481 b 1354 463 1353 469 1353 467 b 1367 450 1357 457 1361 451 b 1365 460 1367 451 1365 456 b 1376 507 1365 468 1369 483 b 1413 593 1388 536 1400 564 b 1406 597 1413 594 1410 596 b 1397 593 1403 597 1401 596 b 1368 554 1394 589 1385 576 b 1360 546 1365 549 1363 546 b 1365 561 1361 551 1363 556 b 1381 590 1374 575 1378 585 b 1363 578 1372 588 1365 583 b 1339 551 1357 569 1349 561 b 1329 544 1333 546 1331 544 b 1325 549 1328 544 1326 546 b 1329 560 1325 549 1326 553 b 1354 625 1335 578 1343 600 b 1360 628 1356 628 1357 628 l 1363 628 b 1385 629 1369 628 1378 629 b 1436 624 1403 629 1419 626 b 1456 617 1447 621 1453 618 b 1457 619 1457 617 1457 618 b 1443 631 1457 622 1453 626 b 1372 640 1419 638 1396 640 l 1365 640 b 1363 642 1364 640 1363 640 l 1363 643 b 1374 669 1369 660 1374 668 l 1374 671 b 1371 672 1374 672 1372 672 z m 596 619 b 554 607 583 619 569 615 b 525 588 546 603 536 596 b 472 535 513 578 494 561 b 429 476 456 514 442 494 b 419 467 426 469 422 467 b 407 467 413 467 408 467 b 308 471 358 469 326 471 b 232 463 272 471 247 468 b 193 408 206 453 193 435 b 199 379 193 400 194 390 b 208 394 203 386 206 390 b 347 433 231 421 278 433 b 403 432 383 433 401 433 b 390 407 403 431 399 422 b 358 329 379 385 369 358 b 333 178 342 274 333 224 b 379 40 333 122 349 76 b 517 -17 413 1 458 -17 l 525 -17 b 685 13 565 -17 618 -7 b 829 60 719 24 768 40 b 1147 125 957 103 1063 125 l 1149 125 b 1336 71 1233 125 1296 107 l 1338 71 l 1338 72 b 1315 107 1338 81 1329 92 b 1292 128 1307 115 1299 122 b 1257 147 1279 136 1268 143 b 1135 171 1221 163 1181 171 l 1133 171 b 1024 157 1101 171 1065 167 b 882 118 975 146 928 133 l 731 71 b 517 26 636 42 564 26 l 515 26 b 428 57 485 26 456 38 b 371 178 390 88 371 128 b 385 272 371 203 376 233 b 419 385 394 313 406 350 b 439 431 431 411 436 426 b 457 433 439 431 444 432 b 490 442 472 436 483 439 b 521 454 492 442 503 446 b 607 544 563 475 590 504 b 619 594 613 558 617 575 l 619 599 b 618 603 619 600 619 601 b 596 619 615 614 608 619 z m 1481 600 b 1481 599 1481 600 1481 600 b 1483 575 1483 589 1483 581 b 1479 553 1483 567 1482 560 b 1465 539 1475 544 1469 540 l 1464 539 b 1461 543 1463 539 1463 540 b 1461 546 1461 544 1461 544 b 1478 575 1472 554 1478 564 l 1478 578 b 1469 589 1478 585 1475 589 l 1468 589 b 1463 586 1467 589 1465 588 b 1451 546 1456 574 1451 560 b 1451 540 1451 544 1451 543 b 1465 531 1456 533 1461 531 l 1469 531 b 1479 535 1472 531 1476 532 b 1494 569 1490 546 1494 557 b 1493 578 1494 572 1494 575 b 1481 600 1492 593 1488 600 z m 1422 593 b 1419 592 1422 593 1421 593 b 1407 564 1418 589 1414 579 b 1372 464 1385 508 1374 475 l 1372 463 b 1378 453 1372 460 1374 456 l 1379 453 b 1382 457 1379 453 1381 454 b 1414 525 1388 474 1399 496 b 1419 536 1418 532 1419 536 b 1421 536 1421 536 1421 536 b 1432 531 1425 533 1429 531 l 1433 531 b 1440 533 1435 531 1438 532 b 1447 563 1444 539 1447 549 l 1447 567 b 1439 590 1447 583 1444 590 b 1438 590 1439 590 1439 590 l 1424 565 b 1410 539 1415 549 1411 540 b 1425 575 1414 553 1419 564 b 1432 588 1429 582 1432 588 b 1424 593 1432 590 1429 592 z m 457 468 l 457 469 b 476 496 463 478 468 486 b 521 542 486 507 501 522 b 588 589 546 561 568 578 b 586 582 588 585 586 582 b 576 549 586 575 582 564 b 563 524 572 542 568 533 b 533 494 556 515 546 506 b 464 468 508 478 486 468 z m 1469 575 l 1471 575 b 1464 558 1471 569 1468 564 b 1464 560 1464 558 1464 560 b 1469 575 1464 564 1467 569 z m 1436 568 l 1438 568 b 1438 564 1438 568 1438 567 l 1438 558 b 1435 546 1438 554 1438 550 b 1422 540 1433 543 1429 540 b 1436 568 1431 556 1435 564 z m 746 519 b 735 517 742 519 738 518 b 715 489 722 511 715 501 b 743 453 715 472 725 460 b 749 449 746 451 749 450 b 753 415 751 435 753 424 l 753 406 b 732 288 753 371 746 331 b 717 256 726 269 721 258 b 713 261 715 256 714 257 b 704 304 707 272 704 286 l 704 311 b 717 385 704 333 708 358 b 729 415 721 397 725 407 b 738 428 735 424 738 428 l 738 429 l 736 429 b 722 433 732 432 726 433 b 708 428 717 433 713 432 b 693 406 703 422 697 414 b 672 432 689 424 682 432 b 636 400 663 432 650 422 b 613 351 626 386 619 369 b 599 269 603 321 599 293 b 601 244 599 261 599 253 b 614 228 604 236 608 231 b 624 224 619 226 622 225 b 633 215 628 218 631 215 l 635 215 b 644 224 638 215 640 218 b 681 321 656 239 667 271 l 681 315 b 685 257 681 286 682 267 b 700 239 689 247 693 242 b 711 229 703 238 707 235 b 725 218 717 222 721 218 b 767 292 739 218 753 243 b 782 417 776 340 782 382 b 782 440 782 426 782 435 b 783 443 782 443 782 443 b 842 461 807 449 826 456 b 842 461 842 461 842 461 b 835 449 839 457 836 453 b 813 356 829 428 822 397 b 783 203 793 271 783 219 l 783 199 b 796 165 783 188 788 176 b 839 144 807 151 822 144 l 842 144 b 844 146 843 144 843 144 l 844 147 b 826 229 832 174 826 201 b 872 460 826 279 842 356 b 879 488 878 475 879 485 l 879 492 b 865 504 876 500 871 504 b 853 497 861 504 857 501 b 842 489 847 492 843 489 b 822 481 840 488 835 486 b 781 469 806 476 792 472 b 776 476 779 469 778 472 b 768 501 775 486 772 494 b 746 519 764 513 756 519 z m 1329 508 b 1317 497 1326 508 1322 504 b 1310 492 1313 494 1310 493 b 1293 460 1307 492 1303 481 b 1293 460 1293 460 1293 460 b 1271 490 1288 481 1281 490 b 1242 472 1263 490 1253 483 b 1221 440 1235 464 1228 454 b 1196 379 1213 424 1203 404 b 1183 308 1188 347 1183 324 l 1183 306 b 1189 282 1183 297 1185 289 b 1197 276 1192 278 1194 276 b 1210 267 1203 275 1207 271 b 1219 257 1213 261 1215 257 b 1231 265 1224 257 1228 260 b 1274 365 1242 283 1256 317 l 1274 364 b 1274 360 1274 364 1274 363 b 1264 303 1268 340 1264 322 b 1269 256 1264 288 1265 272 b 1293 201 1274 233 1282 215 b 1356 172 1313 182 1332 172 b 1444 240 1389 172 1418 194 b 1467 293 1453 256 1460 274 b 1482 383 1478 329 1482 358 l 1482 389 b 1471 438 1482 408 1479 425 b 1431 458 1461 451 1449 458 b 1403 450 1421 458 1413 456 b 1379 429 1399 449 1390 440 b 1360 404 1371 419 1364 411 b 1338 340 1344 378 1338 357 l 1338 339 b 1342 317 1338 332 1339 324 b 1349 300 1344 313 1346 307 b 1374 261 1353 274 1361 261 b 1388 265 1378 261 1382 263 b 1385 268 1386 265 1386 267 b 1375 308 1378 279 1375 292 b 1399 407 1375 338 1383 371 b 1418 438 1407 428 1414 438 b 1426 425 1421 438 1424 433 b 1432 354 1431 403 1432 379 l 1432 349 b 1397 217 1432 292 1421 247 b 1383 203 1394 213 1389 207 b 1344 186 1368 192 1356 186 l 1342 186 b 1317 196 1333 186 1325 189 b 1294 272 1303 213 1294 238 b 1318 408 1294 308 1303 354 b 1338 493 1331 453 1338 481 b 1338 503 1338 497 1338 500 b 1331 508 1336 507 1333 508 z m 938 354 b 960 407 938 360 946 378 b 988 456 969 424 978 440 b 1004 478 993 465 999 474 b 992 432 999 458 996 443 b 974 392 986 415 981 401 b 956 365 969 382 964 374 b 939 354 949 360 943 356 z m 1215 310 b 1218 336 1215 314 1217 322 b 1232 388 1222 357 1226 374 b 1261 450 1240 411 1250 432 b 1274 467 1267 461 1272 467 l 1275 465 b 1283 443 1279 461 1281 453 l 1283 442 l 1250 365 b 1217 294 1233 329 1224 306 b 1215 306 1215 299 1215 303 z m 593 447 b 586 446 590 447 589 447 b 568 417 582 440 576 432 b 496 210 547 369 522 301 b 494 211 496 210 496 210 b 510 306 494 235 500 267 b 536 388 518 339 526 365 b 549 417 544 406 549 414 b 546 419 549 418 547 418 b 531 426 539 424 535 425 l 529 426 b 514 411 525 426 521 421 b 438 251 493 376 468 322 l 438 253 b 475 375 438 274 450 314 b 486 401 482 390 486 400 b 483 406 486 403 486 404 b 461 410 482 407 474 408 b 435 358 457 410 447 392 b 406 239 415 301 406 263 l 406 235 b 422 199 406 218 411 206 b 442 192 429 194 436 192 b 442 192 442 192 442 192 b 446 203 443 192 444 196 b 476 289 451 224 463 253 l 476 288 b 463 181 467 244 463 210 b 482 104 463 143 469 117 b 496 97 488 100 492 97 l 497 97 b 499 100 499 97 499 97 l 499 101 l 499 106 b 513 190 499 124 504 153 b 551 315 525 236 538 278 l 553 315 l 553 314 b 549 293 553 313 551 306 b 532 201 538 247 532 217 b 547 157 532 181 538 165 b 558 146 550 154 554 150 b 583 128 565 133 574 128 b 597 131 588 128 593 129 b 640 149 613 139 628 144 b 699 165 657 156 676 161 b 746 171 724 169 739 171 l 746 172 b 693 193 735 186 717 193 b 611 175 675 193 649 188 b 576 165 592 168 579 165 b 571 167 574 165 572 165 b 565 194 567 171 565 181 b 572 265 565 217 568 240 b 608 404 583 319 596 367 b 618 438 614 422 617 433 b 613 443 618 440 615 442 b 593 447 601 446 594 447 z m 356 415 l 354 415 b 344 408 353 415 350 414 b 328 393 339 406 333 400 b 306 349 325 390 318 375 b 288 372 303 364 296 372 l 286 372 b 256 354 278 372 268 367 b 232 322 246 344 238 333 b 204 264 221 306 213 286 b 188 193 193 232 188 207 l 188 189 b 192 169 188 181 189 175 b 199 164 193 167 196 165 b 211 154 204 163 208 160 b 221 144 214 147 217 144 b 235 156 225 144 231 147 b 269 222 244 172 256 194 b 279 240 275 233 278 240 l 279 239 b 271 138 274 190 271 157 l 271 131 b 283 83 271 113 275 97 b 326 60 294 68 308 60 b 338 63 333 60 338 61 b 336 65 338 64 338 64 b 310 186 318 100 310 139 l 310 194 b 338 328 310 233 318 278 b 363 401 354 367 363 392 l 363 406 b 356 415 361 413 360 415 z m 626 265 b 628 272 626 265 626 268 b 636 324 631 296 633 313 b 653 375 642 347 647 364 b 669 400 660 390 665 399 l 672 400 b 679 381 676 392 679 386 b 675 365 679 376 678 372 b 643 269 661 321 650 289 b 633 246 639 254 635 246 l 632 246 b 626 265 629 246 628 253 z m 219 189 b 224 218 219 200 221 210 b 235 256 224 222 228 235 b 276 336 246 288 261 314 b 289 349 282 344 286 349 b 290 347 289 349 289 349 b 296 328 293 339 296 333 b 293 318 296 325 294 321 b 231 199 275 285 256 246 b 219 182 226 192 224 186 b 219 189 219 182 219 185 z m 581 -114 b 568 -119 572 -117 568 -118 l 568 -239 b 569 -239 568 -239 568 -239 l 579 -239 b 581 -239 581 -239 581 -239 l 581 -115 z m 860 -114 b 849 -119 853 -117 849 -118 l 849 -239 b 849 -239 849 -239 849 -239 l 860 -239 b 860 -239 860 -239 860 -239 l 860 -194 l 864 -190 l 865 -190 b 899 -239 871 -201 882 -217 l 913 -239 l 874 -183 l 874 -182 b 904 -154 893 -164 904 -154 l 894 -154 l 860 -185 l 860 -115 z m 936 -114 b 924 -119 928 -117 924 -118 l 924 -239 b 924 -239 924 -239 924 -239 l 935 -239 b 936 -239 936 -239 936 -239 l 936 -179 b 936 -175 936 -178 936 -176 b 953 -160 939 -165 944 -160 b 961 -162 956 -160 960 -161 b 969 -192 967 -165 969 -176 l 969 -239 b 969 -239 969 -239 969 -239 l 982 -239 b 982 -239 982 -239 982 -239 l 982 -189 b 979 -172 982 -183 981 -178 b 956 -154 975 -160 968 -154 l 953 -154 b 936 -160 946 -154 940 -156 l 936 -115 z m 1086 -132 b 1075 -137 1078 -135 1075 -137 l 1075 -154 l 1063 -154 b 1063 -154 1063 -154 1063 -154 l 1063 -160 b 1063 -160 1063 -160 1063 -160 l 1075 -160 l 1075 -201 b 1081 -232 1075 -217 1076 -226 b 1103 -239 1082 -236 1090 -239 l 1110 -239 b 1113 -226 1110 -239 1111 -235 b 1100 -232 1107 -231 1103 -232 l 1097 -232 b 1092 -231 1096 -232 1093 -232 b 1086 -203 1088 -229 1086 -219 l 1086 -160 l 1101 -160 b 1101 -160 1101 -160 1101 -160 l 1101 -154 b 1101 -154 1101 -154 1101 -154 l 1086 -154 l 1086 -132 z m 1226 -153 b 1207 -160 1218 -153 1211 -156 l 1203 -156 b 1194 -160 1199 -157 1194 -158 b 1196 -171 1196 -162 1196 -167 l 1196 -281 l 1197 -281 b 1208 -275 1204 -276 1208 -275 l 1208 -235 b 1226 -240 1214 -237 1219 -240 b 1242 -236 1232 -240 1238 -239 b 1254 -199 1250 -232 1254 -219 l 1254 -194 b 1251 -168 1254 -182 1254 -174 b 1226 -153 1247 -158 1239 -153 z m 607 -153 b 594 -158 599 -156 594 -157 l 594 -239 b 596 -239 594 -239 594 -239 l 607 -239 b 607 -239 607 -239 607 -239 l 607 -179 b 608 -174 607 -178 607 -175 b 624 -160 610 -165 615 -160 b 635 -165 629 -160 633 -162 b 639 -203 638 -168 639 -181 l 639 -239 b 640 -239 639 -239 639 -239 l 651 -239 b 651 -239 651 -239 651 -239 l 651 -179 b 668 -160 653 -167 658 -160 b 679 -164 672 -160 676 -161 b 683 -194 682 -168 683 -178 l 683 -239 b 685 -239 683 -239 685 -239 l 696 -239 b 696 -239 696 -239 696 -239 l 696 -192 b 693 -168 696 -182 694 -175 b 671 -154 689 -158 682 -154 l 667 -154 b 656 -156 664 -154 660 -154 b 647 -165 651 -160 647 -162 b 647 -164 647 -164 647 -164 b 626 -154 643 -157 636 -154 l 622 -154 b 607 -158 617 -154 611 -156 l 607 -153 z m 794 -153 b 782 -158 786 -156 782 -157 l 782 -239 b 782 -239 782 -239 782 -239 l 793 -239 b 794 -239 794 -239 794 -239 l 794 -211 b 796 -182 794 -200 794 -190 b 815 -160 800 -168 806 -160 b 836 -168 822 -160 829 -162 b 831 -154 833 -158 832 -154 l 814 -154 b 808 -154 813 -154 810 -154 b 794 -164 800 -157 796 -160 l 794 -153 z m 1133 -153 b 1121 -158 1126 -156 1122 -157 l 1121 -200 b 1125 -224 1121 -210 1122 -218 b 1149 -239 1129 -235 1138 -239 l 1150 -239 b 1168 -233 1157 -239 1163 -237 l 1168 -236 b 1167 -253 1168 -242 1168 -247 b 1150 -272 1164 -267 1158 -272 l 1147 -272 b 1129 -265 1143 -272 1136 -269 b 1133 -279 1132 -275 1133 -279 l 1151 -279 b 1161 -276 1154 -279 1157 -279 b 1179 -237 1174 -272 1179 -258 l 1179 -153 b 1168 -158 1172 -156 1168 -157 l 1168 -211 b 1168 -217 1168 -212 1168 -214 b 1151 -232 1165 -226 1160 -232 l 1149 -232 b 1140 -229 1144 -232 1142 -231 b 1133 -196 1136 -225 1133 -214 l 1133 -153 z m 1517 -153 b 1504 -158 1508 -156 1504 -157 l 1504 -239 b 1506 -239 1504 -239 1504 -239 l 1517 -239 b 1517 -239 1517 -239 1517 -239 l 1517 -181 b 1518 -172 1517 -178 1517 -175 b 1533 -160 1521 -164 1525 -160 b 1543 -164 1538 -160 1540 -161 b 1549 -192 1547 -167 1549 -176 l 1549 -239 b 1550 -239 1549 -239 1549 -239 l 1561 -239 b 1561 -239 1561 -239 1561 -239 l 1561 -183 b 1563 -174 1561 -181 1561 -176 b 1578 -160 1565 -165 1569 -160 b 1589 -165 1583 -160 1588 -162 b 1594 -203 1592 -168 1594 -181 l 1594 -239 b 1594 -239 1594 -239 1594 -239 l 1606 -239 b 1606 -239 1606 -239 1606 -239 l 1606 -196 b 1604 -171 1606 -185 1606 -176 b 1581 -154 1600 -160 1593 -154 l 1576 -154 b 1564 -157 1572 -154 1568 -154 b 1557 -165 1560 -160 1557 -162 b 1557 -162 1557 -164 1557 -164 b 1536 -154 1551 -157 1546 -154 l 1532 -154 b 1517 -158 1526 -154 1521 -156 l 1517 -153 z m 1299 -153 b 1288 -154 1294 -153 1292 -153 b 1268 -189 1275 -158 1268 -171 l 1268 -204 b 1297 -239 1268 -228 1278 -239 l 1318 -239 b 1322 -225 1318 -239 1319 -233 b 1303 -232 1315 -229 1308 -232 l 1300 -232 b 1290 -231 1296 -232 1293 -232 b 1281 -204 1283 -228 1281 -219 l 1281 -203 b 1313 -196 1301 -199 1313 -196 b 1326 -193 1322 -194 1326 -193 l 1326 -190 b 1322 -168 1326 -182 1325 -174 b 1299 -153 1318 -158 1310 -153 z m 1461 -153 b 1447 -156 1456 -153 1450 -154 b 1431 -197 1436 -161 1431 -175 b 1461 -240 1431 -225 1440 -240 b 1490 -197 1481 -240 1490 -225 l 1490 -194 b 1489 -176 1490 -187 1490 -182 b 1461 -153 1485 -161 1476 -153 z m 108 -154 b 136 -232 108 -156 118 -182 b 139 -239 138 -236 138 -239 l 144 -239 b 161 -189 156 -208 161 -192 b 179 -239 174 -222 179 -239 l 185 -239 b 215 -154 204 -185 215 -157 l 208 -154 b 185 -218 200 -176 192 -199 b 161 -154 169 -175 161 -154 l 150 -154 l 149 -154 l 158 -179 l 144 -218 l 133 -187 b 121 -154 125 -165 121 -154 z m 228 -154 b 250 -217 242 -194 249 -217 b 258 -239 254 -231 257 -237 l 264 -239 b 281 -190 264 -237 269 -221 b 290 -215 282 -190 285 -200 b 299 -239 296 -231 299 -239 l 304 -239 l 335 -154 b 333 -154 335 -154 335 -154 l 328 -154 b 304 -218 319 -175 311 -197 b 290 -181 296 -196 292 -183 b 281 -154 285 -164 282 -156 l 268 -154 b 278 -179 268 -154 271 -162 b 275 -185 276 -183 275 -185 b 263 -218 267 -207 263 -218 b 246 -168 263 -217 257 -200 b 240 -154 242 -158 240 -154 z m 347 -154 b 374 -231 347 -156 357 -182 b 376 -239 376 -236 376 -239 l 382 -239 b 400 -189 383 -239 389 -222 b 414 -228 408 -215 414 -228 b 418 -239 417 -235 418 -239 l 424 -239 b 454 -154 444 -183 454 -154 l 447 -154 b 432 -194 446 -156 442 -169 b 424 -218 426 -211 424 -218 b 406 -168 413 -187 407 -171 b 400 -154 403 -158 400 -154 l 389 -154 l 388 -154 l 396 -179 l 382 -218 b 369 -185 375 -197 371 -186 b 360 -154 363 -164 360 -154 z m 503 -154 b 497 -168 501 -154 500 -158 b 500 -167 499 -168 499 -167 b 519 -160 504 -162 511 -160 b 533 -164 525 -160 531 -161 b 538 -176 536 -168 538 -172 b 511 -181 528 -176 519 -178 b 493 -210 500 -186 493 -194 l 493 -214 b 494 -222 493 -217 494 -219 b 517 -240 499 -233 506 -240 b 539 -232 526 -240 533 -237 b 543 -239 540 -235 542 -237 b 553 -239 544 -239 549 -239 l 554 -239 b 550 -226 551 -236 550 -232 l 550 -192 b 550 -176 550 -186 550 -181 b 522 -154 547 -161 538 -154 z m 718 -154 b 714 -168 718 -154 717 -158 b 715 -167 714 -168 715 -168 b 736 -160 721 -162 728 -160 b 750 -164 743 -160 747 -161 b 754 -176 753 -168 754 -172 b 726 -182 743 -176 733 -178 b 710 -211 715 -186 710 -196 l 710 -212 b 711 -224 710 -215 710 -219 b 733 -240 715 -235 722 -240 b 756 -231 742 -240 750 -236 b 760 -239 757 -236 758 -239 b 769 -239 761 -239 764 -239 b 767 -225 768 -236 767 -232 l 767 -190 b 764 -168 767 -182 765 -174 b 739 -154 758 -158 751 -154 z m 1004 -154 b 1000 -168 1004 -154 1003 -158 b 1000 -168 1000 -168 1000 -168 b 1022 -160 1007 -162 1014 -160 b 1036 -165 1028 -160 1033 -161 b 1040 -176 1038 -167 1039 -171 l 1039 -176 b 1011 -182 1028 -176 1018 -179 b 996 -211 1000 -187 996 -197 b 997 -224 996 -217 996 -221 b 1019 -240 1001 -235 1008 -240 b 1042 -231 1028 -240 1035 -236 b 1044 -239 1042 -233 1042 -236 b 1056 -239 1046 -239 1050 -239 b 1053 -229 1054 -235 1053 -232 l 1053 -199 b 1050 -172 1053 -186 1053 -176 b 1025 -154 1046 -160 1038 -154 z m 1394 -154 b 1381 -157 1389 -154 1385 -154 b 1365 -196 1371 -162 1365 -175 b 1369 -222 1365 -207 1367 -215 b 1396 -239 1374 -233 1382 -239 l 1415 -239 b 1419 -225 1417 -239 1418 -235 b 1401 -232 1413 -229 1407 -232 l 1397 -232 b 1385 -228 1390 -232 1386 -231 b 1379 -197 1381 -226 1379 -215 b 1382 -167 1379 -181 1381 -169 b 1400 -160 1385 -162 1390 -160 b 1419 -168 1406 -160 1413 -162 b 1415 -154 1418 -158 1417 -154 z m 1208 -179 b 1210 -172 1208 -178 1208 -175 b 1225 -160 1211 -164 1217 -160 l 1226 -160 b 1236 -162 1229 -160 1233 -161 b 1243 -192 1240 -167 1243 -176 b 1239 -225 1243 -207 1242 -218 b 1226 -233 1238 -231 1232 -233 b 1218 -232 1224 -233 1221 -232 b 1208 -214 1211 -228 1208 -222 z m 1281 -192 b 1283 -169 1281 -183 1281 -175 b 1297 -160 1286 -162 1290 -160 b 1303 -161 1299 -160 1300 -160 b 1314 -187 1311 -165 1314 -174 l 1314 -189 l 1281 -194 z m 1443 -194 b 1447 -171 1443 -183 1444 -175 b 1461 -160 1449 -162 1454 -160 b 1469 -162 1464 -160 1467 -161 b 1478 -194 1475 -167 1478 -176 l 1478 -199 b 1475 -222 1478 -208 1476 -217 b 1461 -233 1472 -229 1468 -233 b 1451 -231 1457 -233 1454 -232 b 1443 -199 1446 -226 1443 -217 z m 506 -210 b 510 -192 506 -203 507 -197 b 539 -183 515 -186 525 -183 b 539 -189 539 -186 539 -187 l 539 -221 b 521 -231 535 -228 528 -231 b 506 -210 510 -231 506 -224 z m 722 -208 b 726 -193 722 -203 724 -197 b 754 -183 731 -187 740 -183 l 754 -185 l 754 -221 b 736 -231 751 -228 744 -231 l 733 -231 b 722 -211 725 -229 722 -222 z m 1007 -211 b 1010 -196 1007 -204 1008 -200 b 1040 -183 1014 -187 1025 -183 l 1040 -221 b 1022 -231 1036 -228 1031 -231 b 1007 -211 1013 -231 1007 -224 z m 475 -224 l 474 -224 b 467 -231 468 -225 467 -228 l 467 -233 b 474 -239 468 -237 471 -239 b 476 -239 475 -239 476 -239 b 482 -232 479 -237 482 -235 l 482 -231 b 475 -224 481 -226 478 -224 z m 1347 -224 l 1346 -224 b 1339 -232 1342 -225 1339 -228 b 1339 -233 1339 -232 1339 -232 b 1346 -239 1340 -237 1343 -239 l 1349 -239 b 1354 -232 1353 -237 1354 -235 b 1354 -229 1354 -232 1354 -231 b 1347 -224 1351 -225 1350 -224 z "}}}
